<svg width="64" height="80" viewBox="0 0 64 80" fill="none" xmlns="http://www.w3.org/2000/svg">
<path fill-rule="evenodd" clip-rule="evenodd" d="M64 23.884V16C64 7.16344 49.6731 0 32 0C14.3269 0 0 7.16344 0 16V23.884C1.96741 26.3057 4.77437 28.3687 8.03094 29.997C14.5442 33.2536 23.1674 35 32 35C40.8326 35 49.4558 33.2536 55.9691 29.997C59.2256 28.3687 62.0326 26.3057 64 23.884ZM64 26.8387C61.9862 28.8048 59.5127 30.4613 56.8635 31.7858C50.0088 35.2132 41.063 37 32 37C22.937 37 13.9912 35.2132 7.13652 31.7858C4.48734 30.4613 2.0138 28.8048 0 26.8387V47.884C1.96741 50.3057 4.77437 52.3687 8.03094 53.997C14.5442 57.2536 23.1674 59 32 59C40.8326 59 49.4558 57.2536 55.9691 53.997C59.2256 52.3687 62.0326 50.3057 64 47.884V26.8387ZM64 50.8387C61.9862 52.8048 59.5127 54.4613 56.8635 55.7858C50.0088 59.2132 41.063 61 32 61C22.937 61 13.9912 59.2132 7.13652 55.7858C4.48734 54.4613 2.0138 52.8048 0 50.8387V64C0 72.8366 14.3269 80 32 80C49.6731 80 64 72.8366 64 64V50.8387Z" fill="white"/>
</svg>
