<svg width="374" height="88" viewBox="0 0 374 88" fill="none" xmlns="http://www.w3.org/2000/svg">
<rect width="374" height="88" rx="20" fill="#DF561C"/>
<path fill-rule="evenodd" clip-rule="evenodd" d="M351 29.7064V23.75C351 16.7084 339.583 11 325.5 11C311.417 11 300 16.7084 300 23.75V29.7064C301.548 31.6907 303.818 33.3861 306.49 34.7222C311.646 37.2999 318.485 38.6875 325.5 38.6875C332.515 38.6875 339.354 37.2999 344.51 34.7222C347.182 33.3861 349.452 31.6907 351 29.7064ZM351 32.6691C349.401 34.1955 347.464 35.4811 345.404 36.511C339.907 39.2595 332.745 40.6875 325.5 40.6875C318.255 40.6875 311.093 39.2595 305.596 36.511C303.536 35.4811 301.599 34.1955 300 32.6691V48.8314C301.548 50.8157 303.818 52.5111 306.491 53.8472C311.646 56.4249 318.485 57.8125 325.5 57.8125C332.515 57.8125 339.354 56.4249 344.51 53.8472C347.182 52.5111 349.452 50.8157 351 48.8314V32.6691ZM351 51.7941C349.401 53.3205 347.464 54.6061 345.404 55.636C339.907 58.3845 332.745 59.8125 325.5 59.8125C318.255 59.8125 311.093 58.3845 305.596 55.636C303.536 54.6061 301.599 53.3205 300 51.7941V62C300 69.0416 311.417 74.75 325.5 74.75C339.583 74.75 351 69.0416 351 62V51.7941Z" fill="#EDF2F4"/>
<path d="M34.4102 51.4883C34.4102 52.2962 34.2441 53.0544 33.9121 53.7627C33.5911 54.471 33.154 55.0908 32.6006 55.6221C32.0583 56.1533 31.4219 56.5739 30.6914 56.8838C29.972 57.1826 29.2083 57.332 28.4004 57.332H26.6904C25.8825 57.332 25.1133 57.1826 24.3828 56.8838C23.6634 56.5739 23.027 56.1533 22.4736 55.6221C21.9313 55.0908 21.4941 54.471 21.1621 53.7627C20.8411 53.0544 20.6807 52.2962 20.6807 51.4883V50.542L22.8223 50.1934V51.4883C22.8223 52.0195 22.9274 52.5176 23.1377 52.9824C23.359 53.4362 23.6523 53.8402 24.0176 54.1943C24.3828 54.5374 24.8034 54.8086 25.2793 55.0078C25.7663 55.207 26.2754 55.3066 26.8066 55.3066H28.3008C28.832 55.3066 29.3356 55.207 29.8115 55.0078C30.2874 54.8086 30.708 54.5374 31.0732 54.1943C31.4385 53.8402 31.7262 53.4362 31.9365 52.9824C32.1579 52.5176 32.2686 52.0195 32.2686 51.4883V50.7744C32.2686 49.9554 32.1081 49.2747 31.7871 48.7324C31.4661 48.1901 31.04 47.7308 30.5088 47.3545C29.9775 46.9671 29.3743 46.6406 28.6992 46.375C28.0352 46.1094 27.349 45.8438 26.6406 45.5781C25.9323 45.3125 25.2406 45.0192 24.5654 44.6982C23.9014 44.3773 23.3037 43.9788 22.7725 43.5029C22.2412 43.016 21.8151 42.4238 21.4941 41.7266C21.1732 41.0293 21.0127 40.1715 21.0127 39.1533V38.7051C21.0127 37.8971 21.1621 37.139 21.4609 36.4307C21.7708 35.7223 22.1914 35.1025 22.7227 34.5713C23.2539 34.04 23.8737 33.625 24.582 33.3262C25.3014 33.0163 26.0651 32.8613 26.873 32.8613H28.4004C29.2083 32.8613 29.9665 33.0163 30.6748 33.3262C31.3831 33.625 32.0029 34.04 32.5342 34.5713C33.0654 35.1025 33.4805 35.7223 33.7793 36.4307C34.0892 37.139 34.2441 37.8971 34.2441 38.7051V39.3193L32.1025 39.668V38.7051C32.1025 38.1738 32.0029 37.6813 31.8037 37.2275C31.6045 36.7627 31.3333 36.3587 30.9902 36.0156C30.6471 35.6725 30.2432 35.4014 29.7783 35.2021C29.3245 35.0029 28.832 34.9033 28.3008 34.9033H26.9727C26.4414 34.9033 25.9434 35.0029 25.4785 35.2021C25.0247 35.4014 24.6208 35.6725 24.2666 36.0156C23.9235 36.3587 23.6523 36.7627 23.4531 37.2275C23.2539 37.6813 23.1543 38.1738 23.1543 38.7051V39.1533C23.1543 39.917 23.3148 40.5589 23.6357 41.0791C23.9567 41.5993 24.3828 42.0475 24.9141 42.4238C25.4453 42.7891 26.043 43.11 26.707 43.3867C27.3822 43.6523 28.0739 43.929 28.7822 44.2168C29.4906 44.4935 30.1768 44.8034 30.8408 45.1465C31.516 45.4785 32.1191 45.8936 32.6504 46.3916C33.1816 46.8786 33.6077 47.4762 33.9287 48.1846C34.2497 48.8929 34.4102 49.7562 34.4102 50.7744V51.4883ZM44.5371 57C43.9173 57 43.3307 56.8838 42.7773 56.6514C42.235 56.4189 41.7591 56.098 41.3496 55.6885C40.9512 55.279 40.6302 54.8031 40.3867 54.2607C40.1543 53.7184 40.0381 53.1374 40.0381 52.5176V41.9424H36.9834V40H40.0381V35.916L42.0801 35.584V40H46.3965V41.9424H42.0801V52.6172C42.0801 52.9603 42.141 53.2812 42.2627 53.5801C42.3955 53.8678 42.5726 54.1224 42.7939 54.3438C43.0153 54.5651 43.2754 54.7422 43.5742 54.875C43.873 54.9967 44.194 55.0576 44.5371 55.0576H46.3965V57H44.5371ZM61.5205 52.335C61.5205 53.0212 61.3877 53.6686 61.1221 54.2773C60.8675 54.8861 60.5133 55.4173 60.0596 55.8711C59.6058 56.3249 59.0745 56.6846 58.4658 56.9502C57.8571 57.2048 57.2096 57.332 56.5234 57.332H55.1621C54.4759 57.332 53.8285 57.2048 53.2197 56.9502C52.611 56.6846 52.0798 56.3249 51.626 55.8711C51.1722 55.4173 50.8125 54.8861 50.5469 54.2773C50.2923 53.6686 50.165 53.0212 50.165 52.335V44.665C50.165 43.9788 50.2923 43.3314 50.5469 42.7227C50.8125 42.1139 51.1722 41.5827 51.626 41.1289C52.0798 40.6751 52.611 40.321 53.2197 40.0664C53.8285 39.8008 54.4759 39.668 55.1621 39.668H56.5234C57.2096 39.668 57.8571 39.8008 58.4658 40.0664C59.0745 40.321 59.6058 40.6751 60.0596 41.1289C60.5133 41.5827 60.8675 42.1139 61.1221 42.7227C61.3877 43.3314 61.5205 43.9788 61.5205 44.665V52.335ZM59.4785 44.5488C59.4785 44.1393 59.401 43.7575 59.2461 43.4033C59.0911 43.0381 58.8809 42.7227 58.6152 42.457C58.3496 42.1914 58.0342 41.9811 57.6689 41.8262C57.3148 41.6712 56.9329 41.5938 56.5234 41.5938H55.1621C54.7526 41.5938 54.3652 41.6712 54 41.8262C53.6458 41.9811 53.3359 42.1914 53.0703 42.457C52.8047 42.7227 52.5944 43.0381 52.4395 43.4033C52.2845 43.7575 52.207 44.1393 52.207 44.5488V52.4512C52.207 52.8607 52.2845 53.248 52.4395 53.6133C52.5944 53.9674 52.8047 54.2773 53.0703 54.543C53.3359 54.8086 53.6458 55.0189 54 55.1738C54.3652 55.3288 54.7526 55.4062 55.1621 55.4062H56.5234C56.9329 55.4062 57.3148 55.3288 57.6689 55.1738C58.0342 55.0189 58.3496 54.8086 58.6152 54.543C58.8809 54.2773 59.0911 53.9674 59.2461 53.6133C59.401 53.248 59.4785 52.8607 59.4785 52.4512V44.5488ZM70.6016 41.9424C70.1921 41.9424 69.8047 42.0199 69.4395 42.1748C69.0853 42.3298 68.7754 42.54 68.5098 42.8057C68.2441 43.0713 68.0339 43.3867 67.8789 43.752C67.724 44.1061 67.6465 44.488 67.6465 44.8975V57H65.6045V40H66.2852L67.3975 41.7266C67.8623 41.0957 68.4434 40.5977 69.1406 40.2324C69.849 39.8561 70.6182 39.668 71.4482 39.668H72.6436V41.9424H70.6016ZM86.041 57L84.9121 55.3066C84.4473 55.9154 83.8662 56.4079 83.1689 56.7842C82.4717 57.1494 81.708 57.332 80.8779 57.332H80.3633C79.6771 57.332 79.0296 57.2048 78.4209 56.9502C77.8122 56.6846 77.2809 56.3249 76.8271 55.8711C76.3734 55.4173 76.0137 54.8861 75.748 54.2773C75.4935 53.6686 75.3662 53.0212 75.3662 52.335V52.1689C75.3662 51.4827 75.4935 50.8353 75.748 50.2266C76.0137 49.6178 76.3734 49.0866 76.8271 48.6328C77.2809 48.179 77.8122 47.8249 78.4209 47.5703C79.0296 47.3047 79.6771 47.1719 80.3633 47.1719H84.6797V44.5488C84.6797 44.1393 84.6022 43.7575 84.4473 43.4033C84.2923 43.0381 84.082 42.7227 83.8164 42.457C83.5508 42.1914 83.2354 41.9811 82.8701 41.8262C82.516 41.6712 82.1341 41.5938 81.7246 41.5938H80.5293C80.1198 41.5938 79.7324 41.6712 79.3672 41.8262C79.013 41.9811 78.7031 42.1914 78.4375 42.457C78.1719 42.7227 77.9616 43.0381 77.8066 43.4033C77.6517 43.7575 77.5742 44.1393 77.5742 44.5488V45.1631L75.5322 44.8311V44.665C75.5322 43.9788 75.6595 43.3314 75.9141 42.7227C76.1797 42.1139 76.5394 41.5827 76.9932 41.1289C77.4469 40.6751 77.9782 40.321 78.5869 40.0664C79.1956 39.8008 79.8431 39.668 80.5293 39.668H81.7246C82.4108 39.668 83.0583 39.8008 83.667 40.0664C84.2757 40.321 84.807 40.6751 85.2607 41.1289C85.7145 41.5827 86.0687 42.1139 86.3232 42.7227C86.5889 43.3314 86.7217 43.9788 86.7217 44.665V57H86.041ZM84.6797 48.7656H80.3633C79.9538 48.7656 79.5664 48.8431 79.2012 48.998C78.847 49.153 78.5371 49.3688 78.2715 49.6455C78.0059 49.9111 77.7956 50.2266 77.6406 50.5918C77.4857 50.946 77.4082 51.3278 77.4082 51.7373V52.4512C77.4082 52.8607 77.4857 53.248 77.6406 53.6133C77.7956 53.9674 78.0059 54.2773 78.2715 54.543C78.5371 54.8086 78.847 55.0189 79.2012 55.1738C79.5664 55.3288 79.9538 55.4062 80.3633 55.4062H81.7246C82.1341 55.4062 82.516 55.3288 82.8701 55.1738C83.2354 55.0189 83.5508 54.8086 83.8164 54.543C84.082 54.2773 84.2923 53.9674 84.4473 53.6133C84.6022 53.248 84.6797 52.8607 84.6797 52.4512V48.7656ZM102.327 59.1416C102.327 59.8278 102.194 60.4587 101.929 61.0342C101.674 61.6097 101.32 62.1022 100.866 62.5117C100.412 62.9212 99.8812 63.2367 99.2725 63.458C98.6637 63.6904 98.0163 63.8066 97.3301 63.8066H96.4834C95.7972 63.8066 95.1497 63.6904 94.541 63.458C93.9323 63.2367 93.401 62.9212 92.9473 62.5117C92.4935 62.1022 92.1338 61.6097 91.8682 61.0342C91.6136 60.4587 91.4863 59.8278 91.4863 59.1416V59.0752C91.4863 58.4111 91.6081 57.8024 91.8516 57.249C92.0951 56.6956 92.4271 56.2142 92.8477 55.8047C92.3164 55.4837 91.8903 55.0521 91.5693 54.5098C91.2594 53.9564 91.1045 53.3477 91.1045 52.6836C91.1045 52.0859 91.2318 51.5326 91.4863 51.0234C91.7409 50.5033 92.0895 50.0827 92.5322 49.7617C92.001 49.2969 91.5804 48.738 91.2705 48.085C90.9606 47.432 90.8057 46.7181 90.8057 45.9434V44.665C90.8057 43.9788 90.9329 43.3314 91.1875 42.7227C91.4531 42.1139 91.8128 41.5827 92.2666 41.1289C92.7204 40.6751 93.2516 40.321 93.8604 40.0664C94.4691 39.8008 95.1165 39.668 95.8027 39.668H96.6494C97.4795 39.668 98.2432 39.8561 98.9404 40.2324C99.6488 40.5977 100.235 41.0957 100.7 41.7266L101.812 40H102.493V45.9434C102.493 46.6296 102.36 47.277 102.095 47.8857C101.84 48.4945 101.486 49.0257 101.032 49.4795C100.578 49.9333 100.047 50.293 99.4385 50.5586C98.8298 50.8132 98.1823 50.9404 97.4961 50.9404H94.541C94.3086 50.9404 94.0872 50.9902 93.877 51.0898C93.6667 51.1784 93.4785 51.3001 93.3125 51.4551C93.1576 51.61 93.0358 51.7982 92.9473 52.0195C92.8587 52.2298 92.8145 52.4512 92.8145 52.6836C92.8145 52.916 92.8587 53.1374 92.9473 53.3477C93.0358 53.5579 93.1576 53.7461 93.3125 53.9121C93.4785 54.0671 93.6667 54.1888 93.877 54.2773C94.0872 54.3659 94.3086 54.4102 94.541 54.4102H97.3301C98.0163 54.4102 98.6637 54.5264 99.2725 54.7588C99.8812 54.9801 100.412 55.2956 100.866 55.7051C101.32 56.1146 101.674 56.6071 101.929 57.1826C102.194 57.7581 102.327 58.389 102.327 59.0752V59.1416ZM100.468 44.5488C100.468 44.1393 100.39 43.7575 100.235 43.4033C100.08 43.0381 99.8646 42.7227 99.5879 42.457C99.3223 42.1914 99.0068 41.9811 98.6416 41.8262C98.2874 41.6712 97.9056 41.5938 97.4961 41.5938H95.8027C95.3932 41.5938 95.0059 41.6712 94.6406 41.8262C94.2865 41.9811 93.9766 42.1914 93.7109 42.457C93.4453 42.7227 93.235 43.0381 93.0801 43.4033C92.9251 43.7575 92.8477 44.1393 92.8477 44.5488V46.0596C92.8477 46.4691 92.9251 46.8564 93.0801 47.2217C93.235 47.5758 93.4453 47.8857 93.7109 48.1514C93.9766 48.417 94.2865 48.6273 94.6406 48.7822C95.0059 48.9372 95.3932 49.0146 95.8027 49.0146H97.4961C97.9056 49.0146 98.2874 48.9372 98.6416 48.7822C99.0068 48.6273 99.3223 48.417 99.5879 48.1514C99.8646 47.8857 100.08 47.5758 100.235 47.2217C100.39 46.8564 100.468 46.4691 100.468 46.0596V44.5488ZM100.385 58.9756C100.385 58.5661 100.307 58.1953 100.152 57.8633C99.9974 57.5423 99.7871 57.2712 99.5215 57.0498C99.2559 56.8285 98.9404 56.6569 98.5752 56.5352C98.221 56.4134 97.8392 56.3525 97.4297 56.3525H96.3838C95.9743 56.3525 95.5869 56.4134 95.2217 56.5352C94.8675 56.6569 94.5576 56.8285 94.292 57.0498C94.0264 57.2712 93.8161 57.5423 93.6611 57.8633C93.5062 58.1953 93.4287 58.5661 93.4287 58.9756V59.2412C93.4287 59.6507 93.5062 60.016 93.6611 60.3369C93.8161 60.6579 94.0264 60.929 94.292 61.1504C94.5576 61.3828 94.8675 61.5599 95.2217 61.6816C95.5869 61.8034 95.9743 61.8643 96.3838 61.8643H97.4297C97.8392 61.8643 98.221 61.8034 98.5752 61.6816C98.9404 61.5599 99.2559 61.3828 99.5215 61.1504C99.7871 60.929 99.9974 60.6579 100.152 60.3369C100.307 60.016 100.385 59.6507 100.385 59.2412V58.9756ZM117.601 52.335C117.601 53.0212 117.468 53.6686 117.202 54.2773C116.948 54.8861 116.593 55.4173 116.14 55.8711C115.686 56.3249 115.155 56.6846 114.546 56.9502C113.937 57.2048 113.29 57.332 112.604 57.332H111.242C110.556 57.332 109.909 57.2048 109.3 56.9502C108.691 56.6846 108.16 56.3249 107.706 55.8711C107.252 55.4173 106.893 54.8861 106.627 54.2773C106.372 53.6686 106.245 53.0212 106.245 52.335V44.665C106.245 43.9788 106.372 43.3314 106.627 42.7227C106.893 42.1139 107.252 41.5827 107.706 41.1289C108.16 40.6751 108.691 40.321 109.3 40.0664C109.909 39.8008 110.556 39.668 111.242 39.668H112.604C113.29 39.668 113.937 39.8008 114.546 40.0664C115.155 40.321 115.686 40.6751 116.14 41.1289C116.593 41.5827 116.948 42.1139 117.202 42.7227C117.468 43.3314 117.601 43.9788 117.601 44.665V48.666H108.287V52.4512C108.287 52.8607 108.365 53.248 108.52 53.6133C108.674 53.9674 108.885 54.2773 109.15 54.543C109.416 54.8086 109.726 55.0189 110.08 55.1738C110.445 55.3288 110.833 55.4062 111.242 55.4062H112.604C113.013 55.4062 113.395 55.3288 113.749 55.1738C114.114 55.0189 114.43 54.8086 114.695 54.543C114.961 54.2773 115.171 53.9674 115.326 53.6133C115.481 53.248 115.559 52.8607 115.559 52.4512V51.3223L117.601 51.6543V52.335ZM115.559 44.5488C115.559 44.1393 115.481 43.7575 115.326 43.4033C115.171 43.0381 114.961 42.7227 114.695 42.457C114.43 42.1914 114.114 41.9811 113.749 41.8262C113.395 41.6712 113.013 41.5938 112.604 41.5938H111.242C110.833 41.5938 110.445 41.6712 110.08 41.8262C109.726 41.9811 109.416 42.1914 109.15 42.457C108.885 42.7227 108.674 43.0381 108.52 43.4033C108.365 43.7575 108.287 44.1393 108.287 44.5488V47.0723H115.559V44.5488ZM144.86 57V40.6807L144.711 41.6934L139.183 57H138.054L132.476 41.6934L132.343 40.6807V57H130.201V33.1934H131.313L138.535 52.7168L138.602 53.5967L138.668 52.7168L145.873 33.1934H147.002V57H144.86ZM162.109 57L160.98 55.3066C160.516 55.9154 159.935 56.4079 159.237 56.7842C158.54 57.1494 157.776 57.332 156.946 57.332H156.432C155.745 57.332 155.098 57.2048 154.489 56.9502C153.881 56.6846 153.349 56.3249 152.896 55.8711C152.442 55.4173 152.082 54.8861 151.816 54.2773C151.562 53.6686 151.435 53.0212 151.435 52.335V52.1689C151.435 51.4827 151.562 50.8353 151.816 50.2266C152.082 49.6178 152.442 49.0866 152.896 48.6328C153.349 48.179 153.881 47.8249 154.489 47.5703C155.098 47.3047 155.745 47.1719 156.432 47.1719H160.748V44.5488C160.748 44.1393 160.671 43.7575 160.516 43.4033C160.361 43.0381 160.15 42.7227 159.885 42.457C159.619 42.1914 159.304 41.9811 158.938 41.8262C158.584 41.6712 158.202 41.5938 157.793 41.5938H156.598C156.188 41.5938 155.801 41.6712 155.436 41.8262C155.081 41.9811 154.771 42.1914 154.506 42.457C154.24 42.7227 154.03 43.0381 153.875 43.4033C153.72 43.7575 153.643 44.1393 153.643 44.5488V45.1631L151.601 44.8311V44.665C151.601 43.9788 151.728 43.3314 151.982 42.7227C152.248 42.1139 152.608 41.5827 153.062 41.1289C153.515 40.6751 154.047 40.321 154.655 40.0664C155.264 39.8008 155.911 39.668 156.598 39.668H157.793C158.479 39.668 159.127 39.8008 159.735 40.0664C160.344 40.321 160.875 40.6751 161.329 41.1289C161.783 41.5827 162.137 42.1139 162.392 42.7227C162.657 43.3314 162.79 43.9788 162.79 44.665V57H162.109ZM160.748 48.7656H156.432C156.022 48.7656 155.635 48.8431 155.27 48.998C154.915 49.153 154.605 49.3688 154.34 49.6455C154.074 49.9111 153.864 50.2266 153.709 50.5918C153.554 50.946 153.477 51.3278 153.477 51.7373V52.4512C153.477 52.8607 153.554 53.248 153.709 53.6133C153.864 53.9674 154.074 54.2773 154.34 54.543C154.605 54.8086 154.915 55.0189 155.27 55.1738C155.635 55.3288 156.022 55.4062 156.432 55.4062H157.793C158.202 55.4062 158.584 55.3288 158.938 55.1738C159.304 55.0189 159.619 54.8086 159.885 54.543C160.15 54.2773 160.361 53.9674 160.516 53.6133C160.671 53.248 160.748 52.8607 160.748 52.4512V48.7656ZM176.188 57V44.5488C176.188 44.1393 176.11 43.7575 175.955 43.4033C175.8 43.0381 175.59 42.7227 175.324 42.457C175.059 42.1914 174.743 41.9811 174.378 41.8262C174.024 41.6712 173.642 41.5938 173.232 41.5938H171.871C171.462 41.5938 171.074 41.6712 170.709 41.8262C170.355 41.9811 170.045 42.1914 169.779 42.457C169.514 42.7227 169.303 43.0381 169.148 43.4033C168.993 43.7575 168.916 44.1393 168.916 44.5488V57H166.874V40H167.555L168.667 41.7266C169.132 41.0957 169.713 40.5977 170.41 40.2324C171.118 39.8561 171.888 39.668 172.718 39.668H173.232C173.919 39.668 174.566 39.8008 175.175 40.0664C175.784 40.321 176.315 40.6751 176.769 41.1289C177.222 41.5827 177.576 42.1139 177.831 42.7227C178.097 43.3314 178.229 43.9788 178.229 44.665V57H176.188ZM192.988 57L191.859 55.3066C191.395 55.9154 190.813 56.4079 190.116 56.7842C189.419 57.1494 188.655 57.332 187.825 57.332H187.311C186.624 57.332 185.977 57.2048 185.368 56.9502C184.759 56.6846 184.228 56.3249 183.774 55.8711C183.321 55.4173 182.961 54.8861 182.695 54.2773C182.441 53.6686 182.313 53.0212 182.313 52.335V52.1689C182.313 51.4827 182.441 50.8353 182.695 50.2266C182.961 49.6178 183.321 49.0866 183.774 48.6328C184.228 48.179 184.759 47.8249 185.368 47.5703C185.977 47.3047 186.624 47.1719 187.311 47.1719H191.627V44.5488C191.627 44.1393 191.549 43.7575 191.395 43.4033C191.24 43.0381 191.029 42.7227 190.764 42.457C190.498 42.1914 190.183 41.9811 189.817 41.8262C189.463 41.6712 189.081 41.5938 188.672 41.5938H187.477C187.067 41.5938 186.68 41.6712 186.314 41.8262C185.96 41.9811 185.65 42.1914 185.385 42.457C185.119 42.7227 184.909 43.0381 184.754 43.4033C184.599 43.7575 184.521 44.1393 184.521 44.5488V45.1631L182.479 44.8311V44.665C182.479 43.9788 182.607 43.3314 182.861 42.7227C183.127 42.1139 183.487 41.5827 183.94 41.1289C184.394 40.6751 184.925 40.321 185.534 40.0664C186.143 39.8008 186.79 39.668 187.477 39.668H188.672C189.358 39.668 190.006 39.8008 190.614 40.0664C191.223 40.321 191.754 40.6751 192.208 41.1289C192.662 41.5827 193.016 42.1139 193.271 42.7227C193.536 43.3314 193.669 43.9788 193.669 44.665V57H192.988ZM191.627 48.7656H187.311C186.901 48.7656 186.514 48.8431 186.148 48.998C185.794 49.153 185.484 49.3688 185.219 49.6455C184.953 49.9111 184.743 50.2266 184.588 50.5918C184.433 50.946 184.355 51.3278 184.355 51.7373V52.4512C184.355 52.8607 184.433 53.248 184.588 53.6133C184.743 53.9674 184.953 54.2773 185.219 54.543C185.484 54.8086 185.794 55.0189 186.148 55.1738C186.514 55.3288 186.901 55.4062 187.311 55.4062H188.672C189.081 55.4062 189.463 55.3288 189.817 55.1738C190.183 55.0189 190.498 54.8086 190.764 54.543C191.029 54.2773 191.24 53.9674 191.395 53.6133C191.549 53.248 191.627 52.8607 191.627 52.4512V48.7656ZM209.274 59.1416C209.274 59.8278 209.142 60.4587 208.876 61.0342C208.621 61.6097 208.267 62.1022 207.813 62.5117C207.36 62.9212 206.828 63.2367 206.22 63.458C205.611 63.6904 204.964 63.8066 204.277 63.8066H203.431C202.744 63.8066 202.097 63.6904 201.488 63.458C200.88 63.2367 200.348 62.9212 199.895 62.5117C199.441 62.1022 199.081 61.6097 198.815 61.0342C198.561 60.4587 198.434 59.8278 198.434 59.1416V59.0752C198.434 58.4111 198.555 57.8024 198.799 57.249C199.042 56.6956 199.374 56.2142 199.795 55.8047C199.264 55.4837 198.838 55.0521 198.517 54.5098C198.207 53.9564 198.052 53.3477 198.052 52.6836C198.052 52.0859 198.179 51.5326 198.434 51.0234C198.688 50.5033 199.037 50.0827 199.479 49.7617C198.948 49.2969 198.528 48.738 198.218 48.085C197.908 47.432 197.753 46.7181 197.753 45.9434V44.665C197.753 43.9788 197.88 43.3314 198.135 42.7227C198.4 42.1139 198.76 41.5827 199.214 41.1289C199.668 40.6751 200.199 40.321 200.808 40.0664C201.416 39.8008 202.064 39.668 202.75 39.668H203.597C204.427 39.668 205.19 39.8561 205.888 40.2324C206.596 40.5977 207.183 41.0957 207.647 41.7266L208.76 40H209.44V45.9434C209.44 46.6296 209.308 47.277 209.042 47.8857C208.787 48.4945 208.433 49.0257 207.979 49.4795C207.526 49.9333 206.994 50.293 206.386 50.5586C205.777 50.8132 205.13 50.9404 204.443 50.9404H201.488C201.256 50.9404 201.035 50.9902 200.824 51.0898C200.614 51.1784 200.426 51.3001 200.26 51.4551C200.105 51.61 199.983 51.7982 199.895 52.0195C199.806 52.2298 199.762 52.4512 199.762 52.6836C199.762 52.916 199.806 53.1374 199.895 53.3477C199.983 53.5579 200.105 53.7461 200.26 53.9121C200.426 54.0671 200.614 54.1888 200.824 54.2773C201.035 54.3659 201.256 54.4102 201.488 54.4102H204.277C204.964 54.4102 205.611 54.5264 206.22 54.7588C206.828 54.9801 207.36 55.2956 207.813 55.7051C208.267 56.1146 208.621 56.6071 208.876 57.1826C209.142 57.7581 209.274 58.389 209.274 59.0752V59.1416ZM207.415 44.5488C207.415 44.1393 207.338 43.7575 207.183 43.4033C207.028 43.0381 206.812 42.7227 206.535 42.457C206.27 42.1914 205.954 41.9811 205.589 41.8262C205.235 41.6712 204.853 41.5938 204.443 41.5938H202.75C202.34 41.5938 201.953 41.6712 201.588 41.8262C201.234 41.9811 200.924 42.1914 200.658 42.457C200.393 42.7227 200.182 43.0381 200.027 43.4033C199.872 43.7575 199.795 44.1393 199.795 44.5488V46.0596C199.795 46.4691 199.872 46.8564 200.027 47.2217C200.182 47.5758 200.393 47.8857 200.658 48.1514C200.924 48.417 201.234 48.6273 201.588 48.7822C201.953 48.9372 202.34 49.0146 202.75 49.0146H204.443C204.853 49.0146 205.235 48.9372 205.589 48.7822C205.954 48.6273 206.27 48.417 206.535 48.1514C206.812 47.8857 207.028 47.5758 207.183 47.2217C207.338 46.8564 207.415 46.4691 207.415 46.0596V44.5488ZM207.332 58.9756C207.332 58.5661 207.255 58.1953 207.1 57.8633C206.945 57.5423 206.734 57.2712 206.469 57.0498C206.203 56.8285 205.888 56.6569 205.522 56.5352C205.168 56.4134 204.786 56.3525 204.377 56.3525H203.331C202.922 56.3525 202.534 56.4134 202.169 56.5352C201.815 56.6569 201.505 56.8285 201.239 57.0498C200.974 57.2712 200.763 57.5423 200.608 57.8633C200.453 58.1953 200.376 58.5661 200.376 58.9756V59.2412C200.376 59.6507 200.453 60.016 200.608 60.3369C200.763 60.6579 200.974 60.929 201.239 61.1504C201.505 61.3828 201.815 61.5599 202.169 61.6816C202.534 61.8034 202.922 61.8643 203.331 61.8643H204.377C204.786 61.8643 205.168 61.8034 205.522 61.6816C205.888 61.5599 206.203 61.3828 206.469 61.1504C206.734 60.929 206.945 60.6579 207.1 60.3369C207.255 60.016 207.332 59.6507 207.332 59.2412V58.9756ZM224.548 52.335C224.548 53.0212 224.415 53.6686 224.149 54.2773C223.895 54.8861 223.541 55.4173 223.087 55.8711C222.633 56.3249 222.102 56.6846 221.493 56.9502C220.884 57.2048 220.237 57.332 219.551 57.332H218.189C217.503 57.332 216.856 57.2048 216.247 56.9502C215.638 56.6846 215.107 56.3249 214.653 55.8711C214.2 55.4173 213.84 54.8861 213.574 54.2773C213.32 53.6686 213.192 53.0212 213.192 52.335V44.665C213.192 43.9788 213.32 43.3314 213.574 42.7227C213.84 42.1139 214.2 41.5827 214.653 41.1289C215.107 40.6751 215.638 40.321 216.247 40.0664C216.856 39.8008 217.503 39.668 218.189 39.668H219.551C220.237 39.668 220.884 39.8008 221.493 40.0664C222.102 40.321 222.633 40.6751 223.087 41.1289C223.541 41.5827 223.895 42.1139 224.149 42.7227C224.415 43.3314 224.548 43.9788 224.548 44.665V48.666H215.234V52.4512C215.234 52.8607 215.312 53.248 215.467 53.6133C215.622 53.9674 215.832 54.2773 216.098 54.543C216.363 54.8086 216.673 55.0189 217.027 55.1738C217.393 55.3288 217.78 55.4062 218.189 55.4062H219.551C219.96 55.4062 220.342 55.3288 220.696 55.1738C221.062 55.0189 221.377 54.8086 221.643 54.543C221.908 54.2773 222.118 53.9674 222.273 53.6133C222.428 53.248 222.506 52.8607 222.506 52.4512V51.3223L224.548 51.6543V52.335ZM222.506 44.5488C222.506 44.1393 222.428 43.7575 222.273 43.4033C222.118 43.0381 221.908 42.7227 221.643 42.457C221.377 42.1914 221.062 41.9811 220.696 41.8262C220.342 41.6712 219.96 41.5938 219.551 41.5938H218.189C217.78 41.5938 217.393 41.6712 217.027 41.8262C216.673 41.9811 216.363 42.1914 216.098 42.457C215.832 42.7227 215.622 43.0381 215.467 43.4033C215.312 43.7575 215.234 44.1393 215.234 44.5488V47.0723H222.506V44.5488ZM246.578 57V44.5488C246.578 44.1393 246.501 43.7575 246.346 43.4033C246.191 43.0381 245.98 42.7227 245.715 42.457C245.449 42.1914 245.134 41.9811 244.769 41.8262C244.414 41.6712 244.033 41.5938 243.623 41.5938H242.61C242.201 41.5938 241.813 41.6712 241.448 41.8262C241.094 41.9811 240.779 42.1914 240.502 42.457C240.236 42.7227 240.026 43.0381 239.871 43.4033C239.716 43.7575 239.639 44.1393 239.639 44.5488V57H237.613V44.5488C237.613 44.1393 237.536 43.7575 237.381 43.4033C237.226 43.0381 237.01 42.7227 236.733 42.457C236.468 42.1914 236.152 41.9811 235.787 41.8262C235.433 41.6712 235.051 41.5938 234.642 41.5938H233.629C233.219 41.5938 232.832 41.6712 232.467 41.8262C232.113 41.9811 231.803 42.1914 231.537 42.457C231.271 42.7227 231.061 43.0381 230.906 43.4033C230.751 43.7575 230.674 44.1393 230.674 44.5488V57H228.632V40H229.312L230.425 41.7266C230.89 41.0957 231.471 40.5977 232.168 40.2324C232.876 39.8561 233.646 39.668 234.476 39.668H234.642C235.604 39.668 236.473 39.9059 237.248 40.3818C238.023 40.8577 238.62 41.4886 239.041 42.2744C239.251 41.887 239.511 41.5329 239.821 41.2119C240.131 40.891 240.474 40.6198 240.851 40.3984C241.227 40.166 241.636 39.9889 242.079 39.8672C242.522 39.7344 242.981 39.668 243.457 39.668H243.623C244.309 39.668 244.957 39.8008 245.565 40.0664C246.174 40.321 246.705 40.6751 247.159 41.1289C247.613 41.5827 247.967 42.1139 248.222 42.7227C248.487 43.3314 248.62 43.9788 248.62 44.665V57H246.578ZM264.06 52.335C264.06 53.0212 263.927 53.6686 263.661 54.2773C263.407 54.8861 263.052 55.4173 262.599 55.8711C262.145 56.3249 261.614 56.6846 261.005 56.9502C260.396 57.2048 259.749 57.332 259.062 57.332H257.701C257.015 57.332 256.368 57.2048 255.759 56.9502C255.15 56.6846 254.619 56.3249 254.165 55.8711C253.711 55.4173 253.352 54.8861 253.086 54.2773C252.831 53.6686 252.704 53.0212 252.704 52.335V44.665C252.704 43.9788 252.831 43.3314 253.086 42.7227C253.352 42.1139 253.711 41.5827 254.165 41.1289C254.619 40.6751 255.15 40.321 255.759 40.0664C256.368 39.8008 257.015 39.668 257.701 39.668H259.062C259.749 39.668 260.396 39.8008 261.005 40.0664C261.614 40.321 262.145 40.6751 262.599 41.1289C263.052 41.5827 263.407 42.1139 263.661 42.7227C263.927 43.3314 264.06 43.9788 264.06 44.665V48.666H254.746V52.4512C254.746 52.8607 254.824 53.248 254.979 53.6133C255.133 53.9674 255.344 54.2773 255.609 54.543C255.875 54.8086 256.185 55.0189 256.539 55.1738C256.904 55.3288 257.292 55.4062 257.701 55.4062H259.062C259.472 55.4062 259.854 55.3288 260.208 55.1738C260.573 55.0189 260.889 54.8086 261.154 54.543C261.42 54.2773 261.63 53.9674 261.785 53.6133C261.94 53.248 262.018 52.8607 262.018 52.4512V51.3223L264.06 51.6543V52.335ZM262.018 44.5488C262.018 44.1393 261.94 43.7575 261.785 43.4033C261.63 43.0381 261.42 42.7227 261.154 42.457C260.889 42.1914 260.573 41.9811 260.208 41.8262C259.854 41.6712 259.472 41.5938 259.062 41.5938H257.701C257.292 41.5938 256.904 41.6712 256.539 41.8262C256.185 41.9811 255.875 42.1914 255.609 42.457C255.344 42.7227 255.133 43.0381 254.979 43.4033C254.824 43.7575 254.746 44.1393 254.746 44.5488V47.0723H262.018V44.5488ZM277.457 57V44.5488C277.457 44.1393 277.38 43.7575 277.225 43.4033C277.07 43.0381 276.859 42.7227 276.594 42.457C276.328 42.1914 276.013 41.9811 275.647 41.8262C275.293 41.6712 274.911 41.5938 274.502 41.5938H273.141C272.731 41.5938 272.344 41.6712 271.979 41.8262C271.624 41.9811 271.314 42.1914 271.049 42.457C270.783 42.7227 270.573 43.0381 270.418 43.4033C270.263 43.7575 270.186 44.1393 270.186 44.5488V57H268.144V40H268.824L269.937 41.7266C270.401 41.0957 270.982 40.5977 271.68 40.2324C272.388 39.8561 273.157 39.668 273.987 39.668H274.502C275.188 39.668 275.836 39.8008 276.444 40.0664C277.053 40.321 277.584 40.6751 278.038 41.1289C278.492 41.5827 278.846 42.1139 279.101 42.7227C279.366 43.3314 279.499 43.9788 279.499 44.665V57H277.457ZM289.775 57C289.156 57 288.569 56.8838 288.016 56.6514C287.473 56.4189 286.997 56.098 286.588 55.6885C286.189 55.279 285.868 54.8031 285.625 54.2607C285.393 53.7184 285.276 53.1374 285.276 52.5176V41.9424H282.222V40H285.276V35.916L287.318 35.584V40H291.635V41.9424H287.318V52.6172C287.318 52.9603 287.379 53.2812 287.501 53.5801C287.634 53.8678 287.811 54.1224 288.032 54.3438C288.254 54.5651 288.514 54.7422 288.812 54.875C289.111 54.9967 289.432 55.0576 289.775 55.0576H291.635V57H289.775Z" fill="#EDF2F4"/>
</svg>
