<svg width="375" height="319" viewBox="0 0 375 319" fill="none" xmlns="http://www.w3.org/2000/svg">
<rect width="374" height="88" rx="20" fill="#8D99AE"/>
<path fill-rule="evenodd" clip-rule="evenodd" d="M351 29.7064V23.75C351 16.7084 339.583 11 325.5 11C311.417 11 300 16.7084 300 23.75V29.7064C301.548 31.6907 303.818 33.3861 306.49 34.7222C311.646 37.2999 318.485 38.6875 325.5 38.6875C332.515 38.6875 339.354 37.2999 344.51 34.7222C347.182 33.3861 349.452 31.6907 351 29.7064ZM351 32.6691C349.401 34.1955 347.464 35.4811 345.404 36.511C339.907 39.2595 332.745 40.6875 325.5 40.6875C318.255 40.6875 311.093 39.2595 305.596 36.511C303.536 35.4811 301.599 34.1955 300 32.6691V48.8314C301.548 50.8157 303.818 52.5111 306.491 53.8472C311.646 56.4249 318.485 57.8125 325.5 57.8125C332.515 57.8125 339.354 56.4249 344.51 53.8472C347.182 52.5111 349.452 50.8157 351 48.8314V32.6691ZM351 51.7941C349.401 53.3205 347.464 54.6061 345.404 55.636C339.907 58.3845 332.745 59.8125 325.5 59.8125C318.255 59.8125 311.093 58.3845 305.596 55.636C303.536 54.6061 301.599 53.3205 300 51.7941V62C300 69.0416 311.417 74.75 325.5 74.75C339.583 74.75 351 69.0416 351 62V51.7941Z" fill="#EDF2F4"/>
<path d="M34.4102 51.4883C34.4102 52.2962 34.2441 53.0544 33.9121 53.7627C33.5911 54.471 33.154 55.0908 32.6006 55.6221C32.0583 56.1533 31.4219 56.5739 30.6914 56.8838C29.972 57.1826 29.2083 57.332 28.4004 57.332H26.6904C25.8825 57.332 25.1133 57.1826 24.3828 56.8838C23.6634 56.5739 23.027 56.1533 22.4736 55.6221C21.9313 55.0908 21.4941 54.471 21.1621 53.7627C20.8411 53.0544 20.6807 52.2962 20.6807 51.4883V50.542L22.8223 50.1934V51.4883C22.8223 52.0195 22.9274 52.5176 23.1377 52.9824C23.359 53.4362 23.6523 53.8402 24.0176 54.1943C24.3828 54.5374 24.8034 54.8086 25.2793 55.0078C25.7663 55.207 26.2754 55.3066 26.8066 55.3066H28.3008C28.832 55.3066 29.3356 55.207 29.8115 55.0078C30.2874 54.8086 30.708 54.5374 31.0732 54.1943C31.4385 53.8402 31.7262 53.4362 31.9365 52.9824C32.1579 52.5176 32.2686 52.0195 32.2686 51.4883V50.7744C32.2686 49.9554 32.1081 49.2747 31.7871 48.7324C31.4661 48.1901 31.04 47.7308 30.5088 47.3545C29.9775 46.9671 29.3743 46.6406 28.6992 46.375C28.0352 46.1094 27.349 45.8438 26.6406 45.5781C25.9323 45.3125 25.2406 45.0192 24.5654 44.6982C23.9014 44.3773 23.3037 43.9788 22.7725 43.5029C22.2412 43.016 21.8151 42.4238 21.4941 41.7266C21.1732 41.0293 21.0127 40.1715 21.0127 39.1533V38.7051C21.0127 37.8971 21.1621 37.139 21.4609 36.4307C21.7708 35.7223 22.1914 35.1025 22.7227 34.5713C23.2539 34.04 23.8737 33.625 24.582 33.3262C25.3014 33.0163 26.0651 32.8613 26.873 32.8613H28.4004C29.2083 32.8613 29.9665 33.0163 30.6748 33.3262C31.3831 33.625 32.0029 34.04 32.5342 34.5713C33.0654 35.1025 33.4805 35.7223 33.7793 36.4307C34.0892 37.139 34.2441 37.8971 34.2441 38.7051V39.3193L32.1025 39.668V38.7051C32.1025 38.1738 32.0029 37.6813 31.8037 37.2275C31.6045 36.7627 31.3333 36.3587 30.9902 36.0156C30.6471 35.6725 30.2432 35.4014 29.7783 35.2021C29.3245 35.0029 28.832 34.9033 28.3008 34.9033H26.9727C26.4414 34.9033 25.9434 35.0029 25.4785 35.2021C25.0247 35.4014 24.6208 35.6725 24.2666 36.0156C23.9235 36.3587 23.6523 36.7627 23.4531 37.2275C23.2539 37.6813 23.1543 38.1738 23.1543 38.7051V39.1533C23.1543 39.917 23.3148 40.5589 23.6357 41.0791C23.9567 41.5993 24.3828 42.0475 24.9141 42.4238C25.4453 42.7891 26.043 43.11 26.707 43.3867C27.3822 43.6523 28.0739 43.929 28.7822 44.2168C29.4906 44.4935 30.1768 44.8034 30.8408 45.1465C31.516 45.4785 32.1191 45.8936 32.6504 46.3916C33.1816 46.8786 33.6077 47.4762 33.9287 48.1846C34.2497 48.8929 34.4102 49.7562 34.4102 50.7744V51.4883ZM44.5371 57C43.9173 57 43.3307 56.8838 42.7773 56.6514C42.235 56.4189 41.7591 56.098 41.3496 55.6885C40.9512 55.279 40.6302 54.8031 40.3867 54.2607C40.1543 53.7184 40.0381 53.1374 40.0381 52.5176V41.9424H36.9834V40H40.0381V35.916L42.0801 35.584V40H46.3965V41.9424H42.0801V52.6172C42.0801 52.9603 42.141 53.2812 42.2627 53.5801C42.3955 53.8678 42.5726 54.1224 42.7939 54.3438C43.0153 54.5651 43.2754 54.7422 43.5742 54.875C43.873 54.9967 44.194 55.0576 44.5371 55.0576H46.3965V57H44.5371ZM61.5205 52.335C61.5205 53.0212 61.3877 53.6686 61.1221 54.2773C60.8675 54.8861 60.5133 55.4173 60.0596 55.8711C59.6058 56.3249 59.0745 56.6846 58.4658 56.9502C57.8571 57.2048 57.2096 57.332 56.5234 57.332H55.1621C54.4759 57.332 53.8285 57.2048 53.2197 56.9502C52.611 56.6846 52.0798 56.3249 51.626 55.8711C51.1722 55.4173 50.8125 54.8861 50.5469 54.2773C50.2923 53.6686 50.165 53.0212 50.165 52.335V44.665C50.165 43.9788 50.2923 43.3314 50.5469 42.7227C50.8125 42.1139 51.1722 41.5827 51.626 41.1289C52.0798 40.6751 52.611 40.321 53.2197 40.0664C53.8285 39.8008 54.4759 39.668 55.1621 39.668H56.5234C57.2096 39.668 57.8571 39.8008 58.4658 40.0664C59.0745 40.321 59.6058 40.6751 60.0596 41.1289C60.5133 41.5827 60.8675 42.1139 61.1221 42.7227C61.3877 43.3314 61.5205 43.9788 61.5205 44.665V52.335ZM59.4785 44.5488C59.4785 44.1393 59.401 43.7575 59.2461 43.4033C59.0911 43.0381 58.8809 42.7227 58.6152 42.457C58.3496 42.1914 58.0342 41.9811 57.6689 41.8262C57.3148 41.6712 56.9329 41.5938 56.5234 41.5938H55.1621C54.7526 41.5938 54.3652 41.6712 54 41.8262C53.6458 41.9811 53.3359 42.1914 53.0703 42.457C52.8047 42.7227 52.5944 43.0381 52.4395 43.4033C52.2845 43.7575 52.207 44.1393 52.207 44.5488V52.4512C52.207 52.8607 52.2845 53.248 52.4395 53.6133C52.5944 53.9674 52.8047 54.2773 53.0703 54.543C53.3359 54.8086 53.6458 55.0189 54 55.1738C54.3652 55.3288 54.7526 55.4062 55.1621 55.4062H56.5234C56.9329 55.4062 57.3148 55.3288 57.6689 55.1738C58.0342 55.0189 58.3496 54.8086 58.6152 54.543C58.8809 54.2773 59.0911 53.9674 59.2461 53.6133C59.401 53.248 59.4785 52.8607 59.4785 52.4512V44.5488ZM70.6016 41.9424C70.1921 41.9424 69.8047 42.0199 69.4395 42.1748C69.0853 42.3298 68.7754 42.54 68.5098 42.8057C68.2441 43.0713 68.0339 43.3867 67.8789 43.752C67.724 44.1061 67.6465 44.488 67.6465 44.8975V57H65.6045V40H66.2852L67.3975 41.7266C67.8623 41.0957 68.4434 40.5977 69.1406 40.2324C69.849 39.8561 70.6182 39.668 71.4482 39.668H72.6436V41.9424H70.6016ZM86.041 57L84.9121 55.3066C84.4473 55.9154 83.8662 56.4079 83.1689 56.7842C82.4717 57.1494 81.708 57.332 80.8779 57.332H80.3633C79.6771 57.332 79.0296 57.2048 78.4209 56.9502C77.8122 56.6846 77.2809 56.3249 76.8271 55.8711C76.3734 55.4173 76.0137 54.8861 75.748 54.2773C75.4935 53.6686 75.3662 53.0212 75.3662 52.335V52.1689C75.3662 51.4827 75.4935 50.8353 75.748 50.2266C76.0137 49.6178 76.3734 49.0866 76.8271 48.6328C77.2809 48.179 77.8122 47.8249 78.4209 47.5703C79.0296 47.3047 79.6771 47.1719 80.3633 47.1719H84.6797V44.5488C84.6797 44.1393 84.6022 43.7575 84.4473 43.4033C84.2923 43.0381 84.082 42.7227 83.8164 42.457C83.5508 42.1914 83.2354 41.9811 82.8701 41.8262C82.516 41.6712 82.1341 41.5938 81.7246 41.5938H80.5293C80.1198 41.5938 79.7324 41.6712 79.3672 41.8262C79.013 41.9811 78.7031 42.1914 78.4375 42.457C78.1719 42.7227 77.9616 43.0381 77.8066 43.4033C77.6517 43.7575 77.5742 44.1393 77.5742 44.5488V45.1631L75.5322 44.8311V44.665C75.5322 43.9788 75.6595 43.3314 75.9141 42.7227C76.1797 42.1139 76.5394 41.5827 76.9932 41.1289C77.4469 40.6751 77.9782 40.321 78.5869 40.0664C79.1956 39.8008 79.8431 39.668 80.5293 39.668H81.7246C82.4108 39.668 83.0583 39.8008 83.667 40.0664C84.2757 40.321 84.807 40.6751 85.2607 41.1289C85.7145 41.5827 86.0687 42.1139 86.3232 42.7227C86.5889 43.3314 86.7217 43.9788 86.7217 44.665V57H86.041ZM84.6797 48.7656H80.3633C79.9538 48.7656 79.5664 48.8431 79.2012 48.998C78.847 49.153 78.5371 49.3688 78.2715 49.6455C78.0059 49.9111 77.7956 50.2266 77.6406 50.5918C77.4857 50.946 77.4082 51.3278 77.4082 51.7373V52.4512C77.4082 52.8607 77.4857 53.248 77.6406 53.6133C77.7956 53.9674 78.0059 54.2773 78.2715 54.543C78.5371 54.8086 78.847 55.0189 79.2012 55.1738C79.5664 55.3288 79.9538 55.4062 80.3633 55.4062H81.7246C82.1341 55.4062 82.516 55.3288 82.8701 55.1738C83.2354 55.0189 83.5508 54.8086 83.8164 54.543C84.082 54.2773 84.2923 53.9674 84.4473 53.6133C84.6022 53.248 84.6797 52.8607 84.6797 52.4512V48.7656ZM102.327 59.1416C102.327 59.8278 102.194 60.4587 101.929 61.0342C101.674 61.6097 101.32 62.1022 100.866 62.5117C100.412 62.9212 99.8812 63.2367 99.2725 63.458C98.6637 63.6904 98.0163 63.8066 97.3301 63.8066H96.4834C95.7972 63.8066 95.1497 63.6904 94.541 63.458C93.9323 63.2367 93.401 62.9212 92.9473 62.5117C92.4935 62.1022 92.1338 61.6097 91.8682 61.0342C91.6136 60.4587 91.4863 59.8278 91.4863 59.1416V59.0752C91.4863 58.4111 91.6081 57.8024 91.8516 57.249C92.0951 56.6956 92.4271 56.2142 92.8477 55.8047C92.3164 55.4837 91.8903 55.0521 91.5693 54.5098C91.2594 53.9564 91.1045 53.3477 91.1045 52.6836C91.1045 52.0859 91.2318 51.5326 91.4863 51.0234C91.7409 50.5033 92.0895 50.0827 92.5322 49.7617C92.001 49.2969 91.5804 48.738 91.2705 48.085C90.9606 47.432 90.8057 46.7181 90.8057 45.9434V44.665C90.8057 43.9788 90.9329 43.3314 91.1875 42.7227C91.4531 42.1139 91.8128 41.5827 92.2666 41.1289C92.7204 40.6751 93.2516 40.321 93.8604 40.0664C94.4691 39.8008 95.1165 39.668 95.8027 39.668H96.6494C97.4795 39.668 98.2432 39.8561 98.9404 40.2324C99.6488 40.5977 100.235 41.0957 100.7 41.7266L101.812 40H102.493V45.9434C102.493 46.6296 102.36 47.277 102.095 47.8857C101.84 48.4945 101.486 49.0257 101.032 49.4795C100.578 49.9333 100.047 50.293 99.4385 50.5586C98.8298 50.8132 98.1823 50.9404 97.4961 50.9404H94.541C94.3086 50.9404 94.0872 50.9902 93.877 51.0898C93.6667 51.1784 93.4785 51.3001 93.3125 51.4551C93.1576 51.61 93.0358 51.7982 92.9473 52.0195C92.8587 52.2298 92.8145 52.4512 92.8145 52.6836C92.8145 52.916 92.8587 53.1374 92.9473 53.3477C93.0358 53.5579 93.1576 53.7461 93.3125 53.9121C93.4785 54.0671 93.6667 54.1888 93.877 54.2773C94.0872 54.3659 94.3086 54.4102 94.541 54.4102H97.3301C98.0163 54.4102 98.6637 54.5264 99.2725 54.7588C99.8812 54.9801 100.412 55.2956 100.866 55.7051C101.32 56.1146 101.674 56.6071 101.929 57.1826C102.194 57.7581 102.327 58.389 102.327 59.0752V59.1416ZM100.468 44.5488C100.468 44.1393 100.39 43.7575 100.235 43.4033C100.08 43.0381 99.8646 42.7227 99.5879 42.457C99.3223 42.1914 99.0068 41.9811 98.6416 41.8262C98.2874 41.6712 97.9056 41.5938 97.4961 41.5938H95.8027C95.3932 41.5938 95.0059 41.6712 94.6406 41.8262C94.2865 41.9811 93.9766 42.1914 93.7109 42.457C93.4453 42.7227 93.235 43.0381 93.0801 43.4033C92.9251 43.7575 92.8477 44.1393 92.8477 44.5488V46.0596C92.8477 46.4691 92.9251 46.8564 93.0801 47.2217C93.235 47.5758 93.4453 47.8857 93.7109 48.1514C93.9766 48.417 94.2865 48.6273 94.6406 48.7822C95.0059 48.9372 95.3932 49.0146 95.8027 49.0146H97.4961C97.9056 49.0146 98.2874 48.9372 98.6416 48.7822C99.0068 48.6273 99.3223 48.417 99.5879 48.1514C99.8646 47.8857 100.08 47.5758 100.235 47.2217C100.39 46.8564 100.468 46.4691 100.468 46.0596V44.5488ZM100.385 58.9756C100.385 58.5661 100.307 58.1953 100.152 57.8633C99.9974 57.5423 99.7871 57.2712 99.5215 57.0498C99.2559 56.8285 98.9404 56.6569 98.5752 56.5352C98.221 56.4134 97.8392 56.3525 97.4297 56.3525H96.3838C95.9743 56.3525 95.5869 56.4134 95.2217 56.5352C94.8675 56.6569 94.5576 56.8285 94.292 57.0498C94.0264 57.2712 93.8161 57.5423 93.6611 57.8633C93.5062 58.1953 93.4287 58.5661 93.4287 58.9756V59.2412C93.4287 59.6507 93.5062 60.016 93.6611 60.3369C93.8161 60.6579 94.0264 60.929 94.292 61.1504C94.5576 61.3828 94.8675 61.5599 95.2217 61.6816C95.5869 61.8034 95.9743 61.8643 96.3838 61.8643H97.4297C97.8392 61.8643 98.221 61.8034 98.5752 61.6816C98.9404 61.5599 99.2559 61.3828 99.5215 61.1504C99.7871 60.929 99.9974 60.6579 100.152 60.3369C100.307 60.016 100.385 59.6507 100.385 59.2412V58.9756ZM117.601 52.335C117.601 53.0212 117.468 53.6686 117.202 54.2773C116.948 54.8861 116.593 55.4173 116.14 55.8711C115.686 56.3249 115.155 56.6846 114.546 56.9502C113.937 57.2048 113.29 57.332 112.604 57.332H111.242C110.556 57.332 109.909 57.2048 109.3 56.9502C108.691 56.6846 108.16 56.3249 107.706 55.8711C107.252 55.4173 106.893 54.8861 106.627 54.2773C106.372 53.6686 106.245 53.0212 106.245 52.335V44.665C106.245 43.9788 106.372 43.3314 106.627 42.7227C106.893 42.1139 107.252 41.5827 107.706 41.1289C108.16 40.6751 108.691 40.321 109.3 40.0664C109.909 39.8008 110.556 39.668 111.242 39.668H112.604C113.29 39.668 113.937 39.8008 114.546 40.0664C115.155 40.321 115.686 40.6751 116.14 41.1289C116.593 41.5827 116.948 42.1139 117.202 42.7227C117.468 43.3314 117.601 43.9788 117.601 44.665V48.666H108.287V52.4512C108.287 52.8607 108.365 53.248 108.52 53.6133C108.674 53.9674 108.885 54.2773 109.15 54.543C109.416 54.8086 109.726 55.0189 110.08 55.1738C110.445 55.3288 110.833 55.4062 111.242 55.4062H112.604C113.013 55.4062 113.395 55.3288 113.749 55.1738C114.114 55.0189 114.43 54.8086 114.695 54.543C114.961 54.2773 115.171 53.9674 115.326 53.6133C115.481 53.248 115.559 52.8607 115.559 52.4512V51.3223L117.601 51.6543V52.335ZM115.559 44.5488C115.559 44.1393 115.481 43.7575 115.326 43.4033C115.171 43.0381 114.961 42.7227 114.695 42.457C114.43 42.1914 114.114 41.9811 113.749 41.8262C113.395 41.6712 113.013 41.5938 112.604 41.5938H111.242C110.833 41.5938 110.445 41.6712 110.08 41.8262C109.726 41.9811 109.416 42.1914 109.15 42.457C108.885 42.7227 108.674 43.0381 108.52 43.4033C108.365 43.7575 108.287 44.1393 108.287 44.5488V47.0723H115.559V44.5488ZM144.86 57V40.6807L144.711 41.6934L139.183 57H138.054L132.476 41.6934L132.343 40.6807V57H130.201V33.1934H131.313L138.535 52.7168L138.602 53.5967L138.668 52.7168L145.873 33.1934H147.002V57H144.86ZM162.109 57L160.98 55.3066C160.516 55.9154 159.935 56.4079 159.237 56.7842C158.54 57.1494 157.776 57.332 156.946 57.332H156.432C155.745 57.332 155.098 57.2048 154.489 56.9502C153.881 56.6846 153.349 56.3249 152.896 55.8711C152.442 55.4173 152.082 54.8861 151.816 54.2773C151.562 53.6686 151.435 53.0212 151.435 52.335V52.1689C151.435 51.4827 151.562 50.8353 151.816 50.2266C152.082 49.6178 152.442 49.0866 152.896 48.6328C153.349 48.179 153.881 47.8249 154.489 47.5703C155.098 47.3047 155.745 47.1719 156.432 47.1719H160.748V44.5488C160.748 44.1393 160.671 43.7575 160.516 43.4033C160.361 43.0381 160.15 42.7227 159.885 42.457C159.619 42.1914 159.304 41.9811 158.938 41.8262C158.584 41.6712 158.202 41.5938 157.793 41.5938H156.598C156.188 41.5938 155.801 41.6712 155.436 41.8262C155.081 41.9811 154.771 42.1914 154.506 42.457C154.24 42.7227 154.03 43.0381 153.875 43.4033C153.72 43.7575 153.643 44.1393 153.643 44.5488V45.1631L151.601 44.8311V44.665C151.601 43.9788 151.728 43.3314 151.982 42.7227C152.248 42.1139 152.608 41.5827 153.062 41.1289C153.515 40.6751 154.047 40.321 154.655 40.0664C155.264 39.8008 155.911 39.668 156.598 39.668H157.793C158.479 39.668 159.127 39.8008 159.735 40.0664C160.344 40.321 160.875 40.6751 161.329 41.1289C161.783 41.5827 162.137 42.1139 162.392 42.7227C162.657 43.3314 162.79 43.9788 162.79 44.665V57H162.109ZM160.748 48.7656H156.432C156.022 48.7656 155.635 48.8431 155.27 48.998C154.915 49.153 154.605 49.3688 154.34 49.6455C154.074 49.9111 153.864 50.2266 153.709 50.5918C153.554 50.946 153.477 51.3278 153.477 51.7373V52.4512C153.477 52.8607 153.554 53.248 153.709 53.6133C153.864 53.9674 154.074 54.2773 154.34 54.543C154.605 54.8086 154.915 55.0189 155.27 55.1738C155.635 55.3288 156.022 55.4062 156.432 55.4062H157.793C158.202 55.4062 158.584 55.3288 158.938 55.1738C159.304 55.0189 159.619 54.8086 159.885 54.543C160.15 54.2773 160.361 53.9674 160.516 53.6133C160.671 53.248 160.748 52.8607 160.748 52.4512V48.7656ZM176.188 57V44.5488C176.188 44.1393 176.11 43.7575 175.955 43.4033C175.8 43.0381 175.59 42.7227 175.324 42.457C175.059 42.1914 174.743 41.9811 174.378 41.8262C174.024 41.6712 173.642 41.5938 173.232 41.5938H171.871C171.462 41.5938 171.074 41.6712 170.709 41.8262C170.355 41.9811 170.045 42.1914 169.779 42.457C169.514 42.7227 169.303 43.0381 169.148 43.4033C168.993 43.7575 168.916 44.1393 168.916 44.5488V57H166.874V40H167.555L168.667 41.7266C169.132 41.0957 169.713 40.5977 170.41 40.2324C171.118 39.8561 171.888 39.668 172.718 39.668H173.232C173.919 39.668 174.566 39.8008 175.175 40.0664C175.784 40.321 176.315 40.6751 176.769 41.1289C177.222 41.5827 177.576 42.1139 177.831 42.7227C178.097 43.3314 178.229 43.9788 178.229 44.665V57H176.188ZM192.988 57L191.859 55.3066C191.395 55.9154 190.813 56.4079 190.116 56.7842C189.419 57.1494 188.655 57.332 187.825 57.332H187.311C186.624 57.332 185.977 57.2048 185.368 56.9502C184.759 56.6846 184.228 56.3249 183.774 55.8711C183.321 55.4173 182.961 54.8861 182.695 54.2773C182.441 53.6686 182.313 53.0212 182.313 52.335V52.1689C182.313 51.4827 182.441 50.8353 182.695 50.2266C182.961 49.6178 183.321 49.0866 183.774 48.6328C184.228 48.179 184.759 47.8249 185.368 47.5703C185.977 47.3047 186.624 47.1719 187.311 47.1719H191.627V44.5488C191.627 44.1393 191.549 43.7575 191.395 43.4033C191.24 43.0381 191.029 42.7227 190.764 42.457C190.498 42.1914 190.183 41.9811 189.817 41.8262C189.463 41.6712 189.081 41.5938 188.672 41.5938H187.477C187.067 41.5938 186.68 41.6712 186.314 41.8262C185.96 41.9811 185.65 42.1914 185.385 42.457C185.119 42.7227 184.909 43.0381 184.754 43.4033C184.599 43.7575 184.521 44.1393 184.521 44.5488V45.1631L182.479 44.8311V44.665C182.479 43.9788 182.607 43.3314 182.861 42.7227C183.127 42.1139 183.487 41.5827 183.94 41.1289C184.394 40.6751 184.925 40.321 185.534 40.0664C186.143 39.8008 186.79 39.668 187.477 39.668H188.672C189.358 39.668 190.006 39.8008 190.614 40.0664C191.223 40.321 191.754 40.6751 192.208 41.1289C192.662 41.5827 193.016 42.1139 193.271 42.7227C193.536 43.3314 193.669 43.9788 193.669 44.665V57H192.988ZM191.627 48.7656H187.311C186.901 48.7656 186.514 48.8431 186.148 48.998C185.794 49.153 185.484 49.3688 185.219 49.6455C184.953 49.9111 184.743 50.2266 184.588 50.5918C184.433 50.946 184.355 51.3278 184.355 51.7373V52.4512C184.355 52.8607 184.433 53.248 184.588 53.6133C184.743 53.9674 184.953 54.2773 185.219 54.543C185.484 54.8086 185.794 55.0189 186.148 55.1738C186.514 55.3288 186.901 55.4062 187.311 55.4062H188.672C189.081 55.4062 189.463 55.3288 189.817 55.1738C190.183 55.0189 190.498 54.8086 190.764 54.543C191.029 54.2773 191.24 53.9674 191.395 53.6133C191.549 53.248 191.627 52.8607 191.627 52.4512V48.7656ZM209.274 59.1416C209.274 59.8278 209.142 60.4587 208.876 61.0342C208.621 61.6097 208.267 62.1022 207.813 62.5117C207.36 62.9212 206.828 63.2367 206.22 63.458C205.611 63.6904 204.964 63.8066 204.277 63.8066H203.431C202.744 63.8066 202.097 63.6904 201.488 63.458C200.88 63.2367 200.348 62.9212 199.895 62.5117C199.441 62.1022 199.081 61.6097 198.815 61.0342C198.561 60.4587 198.434 59.8278 198.434 59.1416V59.0752C198.434 58.4111 198.555 57.8024 198.799 57.249C199.042 56.6956 199.374 56.2142 199.795 55.8047C199.264 55.4837 198.838 55.0521 198.517 54.5098C198.207 53.9564 198.052 53.3477 198.052 52.6836C198.052 52.0859 198.179 51.5326 198.434 51.0234C198.688 50.5033 199.037 50.0827 199.479 49.7617C198.948 49.2969 198.528 48.738 198.218 48.085C197.908 47.432 197.753 46.7181 197.753 45.9434V44.665C197.753 43.9788 197.88 43.3314 198.135 42.7227C198.4 42.1139 198.76 41.5827 199.214 41.1289C199.668 40.6751 200.199 40.321 200.808 40.0664C201.416 39.8008 202.064 39.668 202.75 39.668H203.597C204.427 39.668 205.19 39.8561 205.888 40.2324C206.596 40.5977 207.183 41.0957 207.647 41.7266L208.76 40H209.44V45.9434C209.44 46.6296 209.308 47.277 209.042 47.8857C208.787 48.4945 208.433 49.0257 207.979 49.4795C207.526 49.9333 206.994 50.293 206.386 50.5586C205.777 50.8132 205.13 50.9404 204.443 50.9404H201.488C201.256 50.9404 201.035 50.9902 200.824 51.0898C200.614 51.1784 200.426 51.3001 200.26 51.4551C200.105 51.61 199.983 51.7982 199.895 52.0195C199.806 52.2298 199.762 52.4512 199.762 52.6836C199.762 52.916 199.806 53.1374 199.895 53.3477C199.983 53.5579 200.105 53.7461 200.26 53.9121C200.426 54.0671 200.614 54.1888 200.824 54.2773C201.035 54.3659 201.256 54.4102 201.488 54.4102H204.277C204.964 54.4102 205.611 54.5264 206.22 54.7588C206.828 54.9801 207.36 55.2956 207.813 55.7051C208.267 56.1146 208.621 56.6071 208.876 57.1826C209.142 57.7581 209.274 58.389 209.274 59.0752V59.1416ZM207.415 44.5488C207.415 44.1393 207.338 43.7575 207.183 43.4033C207.028 43.0381 206.812 42.7227 206.535 42.457C206.27 42.1914 205.954 41.9811 205.589 41.8262C205.235 41.6712 204.853 41.5938 204.443 41.5938H202.75C202.34 41.5938 201.953 41.6712 201.588 41.8262C201.234 41.9811 200.924 42.1914 200.658 42.457C200.393 42.7227 200.182 43.0381 200.027 43.4033C199.872 43.7575 199.795 44.1393 199.795 44.5488V46.0596C199.795 46.4691 199.872 46.8564 200.027 47.2217C200.182 47.5758 200.393 47.8857 200.658 48.1514C200.924 48.417 201.234 48.6273 201.588 48.7822C201.953 48.9372 202.34 49.0146 202.75 49.0146H204.443C204.853 49.0146 205.235 48.9372 205.589 48.7822C205.954 48.6273 206.27 48.417 206.535 48.1514C206.812 47.8857 207.028 47.5758 207.183 47.2217C207.338 46.8564 207.415 46.4691 207.415 46.0596V44.5488ZM207.332 58.9756C207.332 58.5661 207.255 58.1953 207.1 57.8633C206.945 57.5423 206.734 57.2712 206.469 57.0498C206.203 56.8285 205.888 56.6569 205.522 56.5352C205.168 56.4134 204.786 56.3525 204.377 56.3525H203.331C202.922 56.3525 202.534 56.4134 202.169 56.5352C201.815 56.6569 201.505 56.8285 201.239 57.0498C200.974 57.2712 200.763 57.5423 200.608 57.8633C200.453 58.1953 200.376 58.5661 200.376 58.9756V59.2412C200.376 59.6507 200.453 60.016 200.608 60.3369C200.763 60.6579 200.974 60.929 201.239 61.1504C201.505 61.3828 201.815 61.5599 202.169 61.6816C202.534 61.8034 202.922 61.8643 203.331 61.8643H204.377C204.786 61.8643 205.168 61.8034 205.522 61.6816C205.888 61.5599 206.203 61.3828 206.469 61.1504C206.734 60.929 206.945 60.6579 207.1 60.3369C207.255 60.016 207.332 59.6507 207.332 59.2412V58.9756ZM224.548 52.335C224.548 53.0212 224.415 53.6686 224.149 54.2773C223.895 54.8861 223.541 55.4173 223.087 55.8711C222.633 56.3249 222.102 56.6846 221.493 56.9502C220.884 57.2048 220.237 57.332 219.551 57.332H218.189C217.503 57.332 216.856 57.2048 216.247 56.9502C215.638 56.6846 215.107 56.3249 214.653 55.8711C214.2 55.4173 213.84 54.8861 213.574 54.2773C213.32 53.6686 213.192 53.0212 213.192 52.335V44.665C213.192 43.9788 213.32 43.3314 213.574 42.7227C213.84 42.1139 214.2 41.5827 214.653 41.1289C215.107 40.6751 215.638 40.321 216.247 40.0664C216.856 39.8008 217.503 39.668 218.189 39.668H219.551C220.237 39.668 220.884 39.8008 221.493 40.0664C222.102 40.321 222.633 40.6751 223.087 41.1289C223.541 41.5827 223.895 42.1139 224.149 42.7227C224.415 43.3314 224.548 43.9788 224.548 44.665V48.666H215.234V52.4512C215.234 52.8607 215.312 53.248 215.467 53.6133C215.622 53.9674 215.832 54.2773 216.098 54.543C216.363 54.8086 216.673 55.0189 217.027 55.1738C217.393 55.3288 217.78 55.4062 218.189 55.4062H219.551C219.96 55.4062 220.342 55.3288 220.696 55.1738C221.062 55.0189 221.377 54.8086 221.643 54.543C221.908 54.2773 222.118 53.9674 222.273 53.6133C222.428 53.248 222.506 52.8607 222.506 52.4512V51.3223L224.548 51.6543V52.335ZM222.506 44.5488C222.506 44.1393 222.428 43.7575 222.273 43.4033C222.118 43.0381 221.908 42.7227 221.643 42.457C221.377 42.1914 221.062 41.9811 220.696 41.8262C220.342 41.6712 219.96 41.5938 219.551 41.5938H218.189C217.78 41.5938 217.393 41.6712 217.027 41.8262C216.673 41.9811 216.363 42.1914 216.098 42.457C215.832 42.7227 215.622 43.0381 215.467 43.4033C215.312 43.7575 215.234 44.1393 215.234 44.5488V47.0723H222.506V44.5488ZM246.578 57V44.5488C246.578 44.1393 246.501 43.7575 246.346 43.4033C246.191 43.0381 245.98 42.7227 245.715 42.457C245.449 42.1914 245.134 41.9811 244.769 41.8262C244.414 41.6712 244.033 41.5938 243.623 41.5938H242.61C242.201 41.5938 241.813 41.6712 241.448 41.8262C241.094 41.9811 240.779 42.1914 240.502 42.457C240.236 42.7227 240.026 43.0381 239.871 43.4033C239.716 43.7575 239.639 44.1393 239.639 44.5488V57H237.613V44.5488C237.613 44.1393 237.536 43.7575 237.381 43.4033C237.226 43.0381 237.01 42.7227 236.733 42.457C236.468 42.1914 236.152 41.9811 235.787 41.8262C235.433 41.6712 235.051 41.5938 234.642 41.5938H233.629C233.219 41.5938 232.832 41.6712 232.467 41.8262C232.113 41.9811 231.803 42.1914 231.537 42.457C231.271 42.7227 231.061 43.0381 230.906 43.4033C230.751 43.7575 230.674 44.1393 230.674 44.5488V57H228.632V40H229.312L230.425 41.7266C230.89 41.0957 231.471 40.5977 232.168 40.2324C232.876 39.8561 233.646 39.668 234.476 39.668H234.642C235.604 39.668 236.473 39.9059 237.248 40.3818C238.023 40.8577 238.62 41.4886 239.041 42.2744C239.251 41.887 239.511 41.5329 239.821 41.2119C240.131 40.891 240.474 40.6198 240.851 40.3984C241.227 40.166 241.636 39.9889 242.079 39.8672C242.522 39.7344 242.981 39.668 243.457 39.668H243.623C244.309 39.668 244.957 39.8008 245.565 40.0664C246.174 40.321 246.705 40.6751 247.159 41.1289C247.613 41.5827 247.967 42.1139 248.222 42.7227C248.487 43.3314 248.62 43.9788 248.62 44.665V57H246.578ZM264.06 52.335C264.06 53.0212 263.927 53.6686 263.661 54.2773C263.407 54.8861 263.052 55.4173 262.599 55.8711C262.145 56.3249 261.614 56.6846 261.005 56.9502C260.396 57.2048 259.749 57.332 259.062 57.332H257.701C257.015 57.332 256.368 57.2048 255.759 56.9502C255.15 56.6846 254.619 56.3249 254.165 55.8711C253.711 55.4173 253.352 54.8861 253.086 54.2773C252.831 53.6686 252.704 53.0212 252.704 52.335V44.665C252.704 43.9788 252.831 43.3314 253.086 42.7227C253.352 42.1139 253.711 41.5827 254.165 41.1289C254.619 40.6751 255.15 40.321 255.759 40.0664C256.368 39.8008 257.015 39.668 257.701 39.668H259.062C259.749 39.668 260.396 39.8008 261.005 40.0664C261.614 40.321 262.145 40.6751 262.599 41.1289C263.052 41.5827 263.407 42.1139 263.661 42.7227C263.927 43.3314 264.06 43.9788 264.06 44.665V48.666H254.746V52.4512C254.746 52.8607 254.824 53.248 254.979 53.6133C255.133 53.9674 255.344 54.2773 255.609 54.543C255.875 54.8086 256.185 55.0189 256.539 55.1738C256.904 55.3288 257.292 55.4062 257.701 55.4062H259.062C259.472 55.4062 259.854 55.3288 260.208 55.1738C260.573 55.0189 260.889 54.8086 261.154 54.543C261.42 54.2773 261.63 53.9674 261.785 53.6133C261.94 53.248 262.018 52.8607 262.018 52.4512V51.3223L264.06 51.6543V52.335ZM262.018 44.5488C262.018 44.1393 261.94 43.7575 261.785 43.4033C261.63 43.0381 261.42 42.7227 261.154 42.457C260.889 42.1914 260.573 41.9811 260.208 41.8262C259.854 41.6712 259.472 41.5938 259.062 41.5938H257.701C257.292 41.5938 256.904 41.6712 256.539 41.8262C256.185 41.9811 255.875 42.1914 255.609 42.457C255.344 42.7227 255.133 43.0381 254.979 43.4033C254.824 43.7575 254.746 44.1393 254.746 44.5488V47.0723H262.018V44.5488ZM277.457 57V44.5488C277.457 44.1393 277.38 43.7575 277.225 43.4033C277.07 43.0381 276.859 42.7227 276.594 42.457C276.328 42.1914 276.013 41.9811 275.647 41.8262C275.293 41.6712 274.911 41.5938 274.502 41.5938H273.141C272.731 41.5938 272.344 41.6712 271.979 41.8262C271.624 41.9811 271.314 42.1914 271.049 42.457C270.783 42.7227 270.573 43.0381 270.418 43.4033C270.263 43.7575 270.186 44.1393 270.186 44.5488V57H268.144V40H268.824L269.937 41.7266C270.401 41.0957 270.982 40.5977 271.68 40.2324C272.388 39.8561 273.157 39.668 273.987 39.668H274.502C275.188 39.668 275.836 39.8008 276.444 40.0664C277.053 40.321 277.584 40.6751 278.038 41.1289C278.492 41.5827 278.846 42.1139 279.101 42.7227C279.366 43.3314 279.499 43.9788 279.499 44.665V57H277.457ZM289.775 57C289.156 57 288.569 56.8838 288.016 56.6514C287.473 56.4189 286.997 56.098 286.588 55.6885C286.189 55.279 285.868 54.8031 285.625 54.2607C285.393 53.7184 285.276 53.1374 285.276 52.5176V41.9424H282.222V40H285.276V35.916L287.318 35.584V40H291.635V41.9424H287.318V52.6172C287.318 52.9603 287.379 53.2812 287.501 53.5801C287.634 53.8678 287.811 54.1224 288.032 54.3438C288.254 54.5651 288.514 54.7422 288.812 54.875C289.111 54.9967 289.432 55.0576 289.775 55.0576H291.635V57H289.775Z" fill="#EDF2F4"/>
<rect y="117" width="374" height="88" rx="20" fill="#8D99AE"/>
<path d="M316.267 177C316.267 178.467 317.467 179.667 318.933 179.667H321.6V189C321.6 191.213 323.387 193 325.6 193C327.813 193 329.6 191.213 329.6 189V179.667H334.933V189C334.933 191.213 336.72 193 338.933 193C341.147 193 342.933 191.213 342.933 189V179.667H345.6C347.067 179.667 348.267 178.467 348.267 177V150.333H316.267V177ZM309.6 150.333C307.387 150.333 305.6 152.12 305.6 154.333V173C305.6 175.213 307.387 177 309.6 177C311.813 177 313.6 175.213 313.6 173V154.333C313.6 152.12 311.813 150.333 309.6 150.333ZM354.933 150.333C352.72 150.333 350.933 152.12 350.933 154.333V173C350.933 175.213 352.72 177 354.933 177C357.147 177 358.933 175.213 358.933 173V154.333C358.933 152.12 357.147 150.333 354.933 150.333ZM341.68 134.76L345.147 131.293C345.68 130.76 345.68 129.933 345.147 129.4C344.613 128.867 343.787 128.867 343.253 129.4L339.307 133.347C337.2 132.28 334.8 131.667 332.267 131.667C329.707 131.667 327.307 132.28 325.173 133.347L321.2 129.4C320.667 128.867 319.84 128.867 319.307 129.4C318.773 129.933 318.773 130.76 319.307 131.293L322.8 134.787C318.853 137.693 316.267 142.36 316.267 147.667H348.267C348.267 142.36 345.68 137.667 341.68 134.76ZM326.933 142.333H324.267V139.667H326.933V142.333ZM340.267 142.333H337.6V139.667H340.267V142.333Z" fill="#EDF2F4"/>
<path d="M31.4668 167.129H23.4863L21.834 173H19.4785L26.8613 147.793H28.0566L35.4746 173H33.1367L31.4668 167.129ZM24.1016 164.967H30.8691L27.5469 153.348L27.4766 152.416L27.4062 153.348L24.1016 164.967ZM49.291 173L48.0957 171.172C47.6035 171.84 46.9883 172.373 46.25 172.771C45.5117 173.158 44.7031 173.352 43.8242 173.352H43.2793C42.5527 173.352 41.8672 173.217 41.2227 172.947C40.5781 172.666 40.0156 172.285 39.5352 171.805C39.0547 171.324 38.6738 170.762 38.3926 170.117C38.123 169.473 37.9883 168.787 37.9883 168.061V155H40.1504V168.184C40.1504 168.617 40.2324 169.027 40.3965 169.414C40.5605 169.789 40.7832 170.117 41.0645 170.398C41.3457 170.68 41.6738 170.902 42.0488 171.066C42.4355 171.23 42.8457 171.312 43.2793 171.312H44.7207C45.1543 171.312 45.5586 171.23 45.9336 171.066C46.3203 170.902 46.6543 170.68 46.9355 170.398C47.2168 170.117 47.4395 169.789 47.6035 169.414C47.7676 169.027 47.8496 168.617 47.8496 168.184V155H50.0117V173H49.291ZM60.8926 173C60.2363 173 59.6152 172.877 59.0293 172.631C58.4551 172.385 57.9512 172.045 57.5176 171.611C57.0957 171.178 56.7559 170.674 56.498 170.1C56.252 169.525 56.1289 168.91 56.1289 168.254V157.057H52.8945V155H56.1289V150.676L58.291 150.324V155H62.8613V157.057H58.291V168.359C58.291 168.723 58.3555 169.062 58.4844 169.379C58.625 169.684 58.8125 169.953 59.0469 170.188C59.2812 170.422 59.5566 170.609 59.873 170.75C60.1895 170.879 60.5293 170.943 60.8926 170.943H62.8613V173H60.8926ZM78.875 168.061C78.875 168.787 78.7344 169.473 78.4531 170.117C78.1836 170.762 77.8086 171.324 77.3281 171.805C76.8477 172.285 76.2852 172.666 75.6406 172.947C74.9961 173.217 74.3105 173.352 73.584 173.352H72.1426C71.416 173.352 70.7305 173.217 70.0859 172.947C69.4414 172.666 68.8789 172.285 68.3984 171.805C67.918 171.324 67.5371 170.762 67.2559 170.117C66.9863 169.473 66.8516 168.787 66.8516 168.061V159.939C66.8516 159.213 66.9863 158.527 67.2559 157.883C67.5371 157.238 67.918 156.676 68.3984 156.195C68.8789 155.715 69.4414 155.34 70.0859 155.07C70.7305 154.789 71.416 154.648 72.1426 154.648H73.584C74.3105 154.648 74.9961 154.789 75.6406 155.07C76.2852 155.34 76.8477 155.715 77.3281 156.195C77.8086 156.676 78.1836 157.238 78.4531 157.883C78.7344 158.527 78.875 159.213 78.875 159.939V168.061ZM76.7129 159.816C76.7129 159.383 76.6309 158.979 76.4668 158.604C76.3027 158.217 76.0801 157.883 75.7988 157.602C75.5176 157.32 75.1836 157.098 74.7969 156.934C74.4219 156.77 74.0176 156.688 73.584 156.688H72.1426C71.709 156.688 71.2988 156.77 70.9121 156.934C70.5371 157.098 70.209 157.32 69.9277 157.602C69.6465 157.883 69.4238 158.217 69.2598 158.604C69.0957 158.979 69.0137 159.383 69.0137 159.816V168.184C69.0137 168.617 69.0957 169.027 69.2598 169.414C69.4238 169.789 69.6465 170.117 69.9277 170.398C70.209 170.68 70.5371 170.902 70.9121 171.066C71.2988 171.23 71.709 171.312 72.1426 171.312H73.584C74.0176 171.312 74.4219 171.23 74.7969 171.066C75.1836 170.902 75.5176 170.68 75.7988 170.398C76.0801 170.117 76.3027 169.789 76.4668 169.414C76.6309 169.027 76.7129 168.617 76.7129 168.184V159.816ZM102.201 173V159.816C102.201 159.383 102.119 158.979 101.955 158.604C101.791 158.217 101.568 157.883 101.287 157.602C101.006 157.32 100.672 157.098 100.285 156.934C99.9102 156.77 99.5059 156.688 99.0723 156.688H98C97.5664 156.688 97.1562 156.77 96.7695 156.934C96.3945 157.098 96.0605 157.32 95.7676 157.602C95.4863 157.883 95.2637 158.217 95.0996 158.604C94.9355 158.979 94.8535 159.383 94.8535 159.816V173H92.709V159.816C92.709 159.383 92.627 158.979 92.4629 158.604C92.2988 158.217 92.0703 157.883 91.7773 157.602C91.4961 157.32 91.1621 157.098 90.7754 156.934C90.4004 156.77 89.9961 156.688 89.5625 156.688H88.4902C88.0566 156.688 87.6465 156.77 87.2598 156.934C86.8848 157.098 86.5566 157.32 86.2754 157.602C85.9941 157.883 85.7715 158.217 85.6074 158.604C85.4434 158.979 85.3613 159.383 85.3613 159.816V173H83.1992V155H83.9199L85.0977 156.828C85.5898 156.16 86.2051 155.633 86.9434 155.246C87.6934 154.848 88.5078 154.648 89.3867 154.648H89.5625C90.582 154.648 91.502 154.9 92.3223 155.404C93.1426 155.908 93.7754 156.576 94.2207 157.408C94.4434 156.998 94.7188 156.623 95.0469 156.283C95.375 155.943 95.7383 155.656 96.1367 155.422C96.5352 155.176 96.9688 154.988 97.4375 154.859C97.9062 154.719 98.3926 154.648 98.8965 154.648H99.0723C99.7988 154.648 100.484 154.789 101.129 155.07C101.773 155.34 102.336 155.715 102.816 156.195C103.297 156.676 103.672 157.238 103.941 157.883C104.223 158.527 104.363 159.213 104.363 159.939V173H102.201ZM119.99 173L118.795 171.207C118.303 171.852 117.688 172.373 116.949 172.771C116.211 173.158 115.402 173.352 114.523 173.352H113.979C113.252 173.352 112.566 173.217 111.922 172.947C111.277 172.666 110.715 172.285 110.234 171.805C109.754 171.324 109.373 170.762 109.092 170.117C108.822 169.473 108.688 168.787 108.688 168.061V167.885C108.688 167.158 108.822 166.473 109.092 165.828C109.373 165.184 109.754 164.621 110.234 164.141C110.715 163.66 111.277 163.285 111.922 163.016C112.566 162.734 113.252 162.594 113.979 162.594H118.549V159.816C118.549 159.383 118.467 158.979 118.303 158.604C118.139 158.217 117.916 157.883 117.635 157.602C117.354 157.32 117.02 157.098 116.633 156.934C116.258 156.77 115.854 156.688 115.42 156.688H114.154C113.721 156.688 113.311 156.77 112.924 156.934C112.549 157.098 112.221 157.32 111.939 157.602C111.658 157.883 111.436 158.217 111.271 158.604C111.107 158.979 111.025 159.383 111.025 159.816V160.467L108.863 160.115V159.939C108.863 159.213 108.998 158.527 109.268 157.883C109.549 157.238 109.93 156.676 110.41 156.195C110.891 155.715 111.453 155.34 112.098 155.07C112.742 154.789 113.428 154.648 114.154 154.648H115.42C116.146 154.648 116.832 154.789 117.477 155.07C118.121 155.34 118.684 155.715 119.164 156.195C119.645 156.676 120.02 157.238 120.289 157.883C120.57 158.527 120.711 159.213 120.711 159.939V173H119.99ZM118.549 164.281H113.979C113.545 164.281 113.135 164.363 112.748 164.527C112.373 164.691 112.045 164.92 111.764 165.213C111.482 165.494 111.26 165.828 111.096 166.215C110.932 166.59 110.85 166.994 110.85 167.428V168.184C110.85 168.617 110.932 169.027 111.096 169.414C111.26 169.789 111.482 170.117 111.764 170.398C112.045 170.68 112.373 170.902 112.748 171.066C113.135 171.23 113.545 171.312 113.979 171.312H115.42C115.854 171.312 116.258 171.23 116.633 171.066C117.02 170.902 117.354 170.68 117.635 170.398C117.916 170.117 118.139 169.789 118.303 169.414C118.467 169.027 118.549 168.617 118.549 168.184V164.281ZM131.592 173C130.936 173 130.314 172.877 129.729 172.631C129.154 172.385 128.65 172.045 128.217 171.611C127.795 171.178 127.455 170.674 127.197 170.1C126.951 169.525 126.828 168.91 126.828 168.254V157.057H123.594V155H126.828V150.676L128.99 150.324V155H133.561V157.057H128.99V168.359C128.99 168.723 129.055 169.062 129.184 169.379C129.324 169.684 129.512 169.953 129.746 170.188C129.98 170.422 130.256 170.609 130.572 170.75C130.889 170.879 131.229 170.943 131.592 170.943H133.561V173H131.592ZM149.574 168.061C149.574 168.787 149.434 169.473 149.152 170.117C148.883 170.762 148.508 171.324 148.027 171.805C147.547 172.285 146.984 172.666 146.34 172.947C145.695 173.217 145.01 173.352 144.283 173.352H142.842C142.115 173.352 141.43 173.217 140.785 172.947C140.141 172.666 139.578 172.285 139.098 171.805C138.617 171.324 138.236 170.762 137.955 170.117C137.686 169.473 137.551 168.787 137.551 168.061V159.939C137.551 159.213 137.686 158.527 137.955 157.883C138.236 157.238 138.617 156.676 139.098 156.195C139.578 155.715 140.141 155.34 140.785 155.07C141.43 154.789 142.115 154.648 142.842 154.648H144.283C145.01 154.648 145.695 154.789 146.34 155.07C146.984 155.34 147.547 155.715 148.027 156.195C148.508 156.676 148.883 157.238 149.152 157.883C149.434 158.527 149.574 159.213 149.574 159.939V164.176H139.713V168.184C139.713 168.617 139.795 169.027 139.959 169.414C140.123 169.789 140.346 170.117 140.627 170.398C140.908 170.68 141.236 170.902 141.611 171.066C141.998 171.23 142.408 171.312 142.842 171.312H144.283C144.717 171.312 145.121 171.23 145.496 171.066C145.883 170.902 146.217 170.68 146.498 170.398C146.779 170.117 147.002 169.789 147.166 169.414C147.33 169.027 147.412 168.617 147.412 168.184V166.988L149.574 167.34V168.061ZM147.412 159.816C147.412 159.383 147.33 158.979 147.166 158.604C147.002 158.217 146.779 157.883 146.498 157.602C146.217 157.32 145.883 157.098 145.496 156.934C145.121 156.77 144.717 156.688 144.283 156.688H142.842C142.408 156.688 141.998 156.77 141.611 156.934C141.236 157.098 140.908 157.32 140.627 157.602C140.346 157.883 140.123 158.217 139.959 158.604C139.795 158.979 139.713 159.383 139.713 159.816V162.488H147.412V159.816ZM169.033 149.955V173H166.766V149.955H160.754V147.793H175.045V149.955H169.033ZM187.596 173L186.4 171.207C185.908 171.852 185.293 172.373 184.555 172.771C183.816 173.158 183.008 173.352 182.129 173.352H181.584C180.857 173.352 180.172 173.217 179.527 172.947C178.883 172.666 178.32 172.285 177.84 171.805C177.359 171.324 176.979 170.762 176.697 170.117C176.428 169.473 176.293 168.787 176.293 168.061V167.885C176.293 167.158 176.428 166.473 176.697 165.828C176.979 165.184 177.359 164.621 177.84 164.141C178.32 163.66 178.883 163.285 179.527 163.016C180.172 162.734 180.857 162.594 181.584 162.594H186.154V159.816C186.154 159.383 186.072 158.979 185.908 158.604C185.744 158.217 185.521 157.883 185.24 157.602C184.959 157.32 184.625 157.098 184.238 156.934C183.863 156.77 183.459 156.688 183.025 156.688H181.76C181.326 156.688 180.916 156.77 180.529 156.934C180.154 157.098 179.826 157.32 179.545 157.602C179.264 157.883 179.041 158.217 178.877 158.604C178.713 158.979 178.631 159.383 178.631 159.816V160.467L176.469 160.115V159.939C176.469 159.213 176.604 158.527 176.873 157.883C177.154 157.238 177.535 156.676 178.016 156.195C178.496 155.715 179.059 155.34 179.703 155.07C180.348 154.789 181.033 154.648 181.76 154.648H183.025C183.752 154.648 184.438 154.789 185.082 155.07C185.727 155.34 186.289 155.715 186.77 156.195C187.25 156.676 187.625 157.238 187.895 157.883C188.176 158.527 188.316 159.213 188.316 159.939V173H187.596ZM186.154 164.281H181.584C181.15 164.281 180.74 164.363 180.354 164.527C179.979 164.691 179.65 164.92 179.369 165.213C179.088 165.494 178.865 165.828 178.701 166.215C178.537 166.59 178.455 166.994 178.455 167.428V168.184C178.455 168.617 178.537 169.027 178.701 169.414C178.865 169.789 179.088 170.117 179.369 170.398C179.65 170.68 179.979 170.902 180.354 171.066C180.74 171.23 181.15 171.312 181.584 171.312H183.025C183.459 171.312 183.863 171.23 184.238 171.066C184.625 170.902 184.959 170.68 185.24 170.398C185.521 170.117 185.744 169.789 185.908 169.414C186.072 169.027 186.154 168.617 186.154 168.184V164.281ZM205.016 168.43C205.016 169.156 204.869 169.824 204.576 170.434C204.283 171.031 203.885 171.547 203.381 171.98C202.877 172.414 202.291 172.754 201.623 173C200.967 173.234 200.275 173.352 199.549 173.352H198.107C197.381 173.352 196.684 173.217 196.016 172.947C195.359 172.666 194.779 172.285 194.275 171.805C193.783 171.324 193.385 170.762 193.08 170.117C192.787 169.473 192.641 168.787 192.641 168.061V167.34L194.803 166.988V168.184C194.803 168.617 194.891 169.027 195.066 169.414C195.254 169.789 195.5 170.117 195.805 170.398C196.109 170.68 196.461 170.902 196.859 171.066C197.258 171.23 197.674 171.312 198.107 171.312H199.549C199.982 171.312 200.398 171.248 200.797 171.119C201.195 170.99 201.547 170.809 201.852 170.574C202.168 170.328 202.414 170.035 202.59 169.695C202.777 169.355 202.871 168.969 202.871 168.535C202.871 167.891 202.73 167.363 202.449 166.953C202.168 166.543 201.793 166.203 201.324 165.934C200.867 165.652 200.34 165.424 199.742 165.248C199.156 165.061 198.553 164.879 197.932 164.703C197.311 164.516 196.701 164.305 196.104 164.07C195.518 163.836 194.99 163.531 194.521 163.156C194.064 162.77 193.695 162.289 193.414 161.715C193.133 161.141 192.992 160.426 192.992 159.57C192.992 158.844 193.133 158.182 193.414 157.584C193.695 156.975 194.076 156.453 194.557 156.02C195.037 155.586 195.594 155.252 196.227 155.018C196.871 154.771 197.557 154.648 198.283 154.648H199.549C200.275 154.648 200.961 154.789 201.605 155.07C202.25 155.34 202.812 155.715 203.293 156.195C203.773 156.676 204.148 157.238 204.418 157.883C204.699 158.527 204.84 159.213 204.84 159.939V160.01L202.678 160.361V159.816C202.678 159.383 202.596 158.979 202.432 158.604C202.268 158.217 202.045 157.883 201.764 157.602C201.482 157.32 201.148 157.098 200.762 156.934C200.387 156.77 199.982 156.688 199.549 156.688H198.283C197.85 156.688 197.439 156.752 197.053 156.881C196.678 157.01 196.35 157.197 196.068 157.443C195.787 157.678 195.564 157.965 195.4 158.305C195.236 158.645 195.154 159.031 195.154 159.465C195.154 160.086 195.295 160.596 195.576 160.994C195.857 161.381 196.227 161.709 196.684 161.979C197.152 162.248 197.68 162.477 198.266 162.664C198.863 162.84 199.467 163.027 200.076 163.227C200.697 163.414 201.301 163.631 201.887 163.877C202.484 164.123 203.012 164.439 203.469 164.826C203.938 165.213 204.312 165.699 204.594 166.285C204.875 166.859 205.016 167.574 205.016 168.43ZM219.816 173L212.469 164L219.816 155H222.629L215.105 164L222.629 173H219.816ZM209.885 173V147.793H212.047V173H209.885ZM237.887 168.43C237.887 169.156 237.74 169.824 237.447 170.434C237.154 171.031 236.756 171.547 236.252 171.98C235.748 172.414 235.162 172.754 234.494 173C233.838 173.234 233.146 173.352 232.42 173.352H230.979C230.252 173.352 229.555 173.217 228.887 172.947C228.23 172.666 227.65 172.285 227.146 171.805C226.654 171.324 226.256 170.762 225.951 170.117C225.658 169.473 225.512 168.787 225.512 168.061V167.34L227.674 166.988V168.184C227.674 168.617 227.762 169.027 227.938 169.414C228.125 169.789 228.371 170.117 228.676 170.398C228.98 170.68 229.332 170.902 229.73 171.066C230.129 171.23 230.545 171.312 230.979 171.312H232.42C232.854 171.312 233.27 171.248 233.668 171.119C234.066 170.99 234.418 170.809 234.723 170.574C235.039 170.328 235.285 170.035 235.461 169.695C235.648 169.355 235.742 168.969 235.742 168.535C235.742 167.891 235.602 167.363 235.32 166.953C235.039 166.543 234.664 166.203 234.195 165.934C233.738 165.652 233.211 165.424 232.613 165.248C232.027 165.061 231.424 164.879 230.803 164.703C230.182 164.516 229.572 164.305 228.975 164.07C228.389 163.836 227.861 163.531 227.393 163.156C226.936 162.77 226.566 162.289 226.285 161.715C226.004 161.141 225.863 160.426 225.863 159.57C225.863 158.844 226.004 158.182 226.285 157.584C226.566 156.975 226.947 156.453 227.428 156.02C227.908 155.586 228.465 155.252 229.098 155.018C229.742 154.771 230.428 154.648 231.154 154.648H232.42C233.146 154.648 233.832 154.789 234.477 155.07C235.121 155.34 235.684 155.715 236.164 156.195C236.645 156.676 237.02 157.238 237.289 157.883C237.57 158.527 237.711 159.213 237.711 159.939V160.01L235.549 160.361V159.816C235.549 159.383 235.467 158.979 235.303 158.604C235.139 158.217 234.916 157.883 234.635 157.602C234.354 157.32 234.02 157.098 233.633 156.934C233.258 156.77 232.854 156.688 232.42 156.688H231.154C230.721 156.688 230.311 156.752 229.924 156.881C229.549 157.01 229.221 157.197 228.939 157.443C228.658 157.678 228.436 157.965 228.271 158.305C228.107 158.645 228.025 159.031 228.025 159.465C228.025 160.086 228.166 160.596 228.447 160.994C228.729 161.381 229.098 161.709 229.555 161.979C230.023 162.248 230.551 162.477 231.137 162.664C231.734 162.84 232.338 163.027 232.947 163.227C233.568 163.414 234.172 163.631 234.758 163.877C235.355 164.123 235.883 164.439 236.34 164.826C236.809 165.213 237.184 165.699 237.465 166.285C237.746 166.859 237.887 167.574 237.887 168.43Z" fill="#EDF2F4"/>
<rect x="1" y="231" width="374" height="88" rx="20" fill="#8D99AE"/>
<path d="M336.875 271.062C329.781 269.219 327.5 267.312 327.5 264.344C327.5 260.938 330.656 258.562 335.937 258.562C341.5 258.562 343.562 261.219 343.75 265.125H350.656C350.437 259.75 347.156 254.812 340.625 253.219V246.375H331.25V253.125C325.187 254.438 320.312 258.375 320.312 264.406C320.312 271.625 326.281 275.219 335 277.312C342.812 279.188 344.375 281.938 344.375 284.844C344.375 287 342.844 290.438 335.937 290.438C329.5 290.438 326.969 287.562 326.625 283.875H319.75C320.125 290.719 325.25 294.562 331.25 295.844V302.625H340.625V295.906C346.719 294.75 351.562 291.219 351.562 284.812C351.562 275.938 343.969 272.906 336.875 271.062Z" fill="#EDF2F4"/>
<path d="M27.9062 286V260.793H30.1738V286H27.9062ZM45.0977 286V272.816C45.0977 272.383 45.0156 271.979 44.8516 271.604C44.6875 271.217 44.4648 270.883 44.1836 270.602C43.9023 270.32 43.5684 270.098 43.1816 269.934C42.8066 269.77 42.4023 269.688 41.9688 269.688H40.5273C40.0938 269.688 39.6836 269.77 39.2969 269.934C38.9219 270.098 38.5938 270.32 38.3125 270.602C38.0312 270.883 37.8086 271.217 37.6445 271.604C37.4805 271.979 37.3984 272.383 37.3984 272.816V286H35.2363V268H35.957L37.1348 269.828C37.627 269.16 38.2422 268.633 38.9805 268.246C39.7305 267.848 40.5449 267.648 41.4238 267.648H41.9688C42.6953 267.648 43.3809 267.789 44.0254 268.07C44.6699 268.34 45.2324 268.715 45.7129 269.195C46.1934 269.676 46.5684 270.238 46.8379 270.883C47.1191 271.527 47.2598 272.213 47.2598 272.939V286H45.0977ZM63.6074 281.061C63.6074 281.787 63.4668 282.473 63.1855 283.117C62.916 283.762 62.541 284.324 62.0605 284.805C61.5801 285.285 61.0176 285.666 60.373 285.947C59.7285 286.217 59.043 286.352 58.3164 286.352H56.875C56.1484 286.352 55.4629 286.217 54.8184 285.947C54.1738 285.666 53.6113 285.285 53.1309 284.805C52.6504 284.324 52.2695 283.762 51.9883 283.117C51.7188 282.473 51.584 281.787 51.584 281.061V272.939C51.584 272.213 51.7188 271.527 51.9883 270.883C52.2695 270.238 52.6504 269.676 53.1309 269.195C53.6113 268.715 54.1738 268.34 54.8184 268.07C55.4629 267.789 56.1484 267.648 56.875 267.648H58.3164C59.043 267.648 59.7285 267.789 60.373 268.07C61.0176 268.34 61.5801 268.715 62.0605 269.195C62.541 269.676 62.916 270.238 63.1855 270.883C63.4668 271.527 63.6074 272.213 63.6074 272.939V273.66L61.4453 274.012V272.816C61.4453 272.383 61.3633 271.979 61.1992 271.604C61.0352 271.217 60.8125 270.883 60.5312 270.602C60.25 270.32 59.916 270.098 59.5293 269.934C59.1543 269.77 58.75 269.688 58.3164 269.688H56.875C56.4414 269.688 56.0312 269.77 55.6445 269.934C55.2695 270.098 54.9414 270.32 54.6602 270.602C54.3789 270.883 54.1562 271.217 53.9922 271.604C53.8281 271.979 53.7461 272.383 53.7461 272.816V281.184C53.7461 281.617 53.8281 282.027 53.9922 282.414C54.1562 282.789 54.3789 283.117 54.6602 283.398C54.9414 283.68 55.2695 283.902 55.6445 284.066C56.0312 284.23 56.4414 284.312 56.875 284.312H58.3164C58.75 284.312 59.1543 284.23 59.5293 284.066C59.916 283.902 60.25 283.68 60.5312 283.398C60.8125 283.117 61.0352 282.789 61.1992 282.414C61.3633 282.027 61.4453 281.617 61.4453 281.184V279.988L63.6074 280.34V281.061ZM73.2227 270.057C72.7891 270.057 72.3789 270.139 71.9922 270.303C71.6172 270.467 71.2891 270.689 71.0078 270.971C70.7266 271.252 70.5039 271.586 70.3398 271.973C70.1758 272.348 70.0938 272.752 70.0938 273.186V286H67.9316V268H68.6523L69.8301 269.828C70.3223 269.16 70.9375 268.633 71.6758 268.246C72.4258 267.848 73.2402 267.648 74.1191 267.648H75.3848V270.057H73.2227ZM90.291 281.061C90.291 281.787 90.1504 282.473 89.8691 283.117C89.5996 283.762 89.2246 284.324 88.7441 284.805C88.2637 285.285 87.7012 285.666 87.0566 285.947C86.4121 286.217 85.7266 286.352 85 286.352H83.5586C82.832 286.352 82.1465 286.217 81.502 285.947C80.8574 285.666 80.2949 285.285 79.8145 284.805C79.334 284.324 78.9531 283.762 78.6719 283.117C78.4023 282.473 78.2676 281.787 78.2676 281.061V272.939C78.2676 272.213 78.4023 271.527 78.6719 270.883C78.9531 270.238 79.334 269.676 79.8145 269.195C80.2949 268.715 80.8574 268.34 81.502 268.07C82.1465 267.789 82.832 267.648 83.5586 267.648H85C85.7266 267.648 86.4121 267.789 87.0566 268.07C87.7012 268.34 88.2637 268.715 88.7441 269.195C89.2246 269.676 89.5996 270.238 89.8691 270.883C90.1504 271.527 90.291 272.213 90.291 272.939V277.176H80.4297V281.184C80.4297 281.617 80.5117 282.027 80.6758 282.414C80.8398 282.789 81.0625 283.117 81.3438 283.398C81.625 283.68 81.9531 283.902 82.3281 284.066C82.7148 284.23 83.125 284.312 83.5586 284.312H85C85.4336 284.312 85.8379 284.23 86.2129 284.066C86.5996 283.902 86.9336 283.68 87.2148 283.398C87.4961 283.117 87.7188 282.789 87.8828 282.414C88.0469 282.027 88.1289 281.617 88.1289 281.184V279.988L90.291 280.34V281.061ZM88.1289 272.816C88.1289 272.383 88.0469 271.979 87.8828 271.604C87.7188 271.217 87.4961 270.883 87.2148 270.602C86.9336 270.32 86.5996 270.098 86.2129 269.934C85.8379 269.77 85.4336 269.688 85 269.688H83.5586C83.125 269.688 82.7148 269.77 82.3281 269.934C81.9531 270.098 81.625 270.32 81.3438 270.602C81.0625 270.883 80.8398 271.217 80.6758 271.604C80.5117 271.979 80.4297 272.383 80.4297 272.816V275.488H88.1289V272.816ZM105.918 286L104.723 284.207C104.23 284.852 103.615 285.373 102.877 285.771C102.139 286.158 101.33 286.352 100.451 286.352H99.9062C99.1797 286.352 98.4941 286.217 97.8496 285.947C97.2051 285.666 96.6426 285.285 96.1621 284.805C95.6816 284.324 95.3008 283.762 95.0195 283.117C94.75 282.473 94.6152 281.787 94.6152 281.061V280.885C94.6152 280.158 94.75 279.473 95.0195 278.828C95.3008 278.184 95.6816 277.621 96.1621 277.141C96.6426 276.66 97.2051 276.285 97.8496 276.016C98.4941 275.734 99.1797 275.594 99.9062 275.594H104.477V272.816C104.477 272.383 104.395 271.979 104.23 271.604C104.066 271.217 103.844 270.883 103.562 270.602C103.281 270.32 102.947 270.098 102.561 269.934C102.186 269.77 101.781 269.688 101.348 269.688H100.082C99.6484 269.688 99.2383 269.77 98.8516 269.934C98.4766 270.098 98.1484 270.32 97.8672 270.602C97.5859 270.883 97.3633 271.217 97.1992 271.604C97.0352 271.979 96.9531 272.383 96.9531 272.816V273.467L94.791 273.115V272.939C94.791 272.213 94.9258 271.527 95.1953 270.883C95.4766 270.238 95.8574 269.676 96.3379 269.195C96.8184 268.715 97.3809 268.34 98.0254 268.07C98.6699 267.789 99.3555 267.648 100.082 267.648H101.348C102.074 267.648 102.76 267.789 103.404 268.07C104.049 268.34 104.611 268.715 105.092 269.195C105.572 269.676 105.947 270.238 106.217 270.883C106.498 271.527 106.639 272.213 106.639 272.939V286H105.918ZM104.477 277.281H99.9062C99.4727 277.281 99.0625 277.363 98.6758 277.527C98.3008 277.691 97.9727 277.92 97.6914 278.213C97.4102 278.494 97.1875 278.828 97.0234 279.215C96.8594 279.59 96.7773 279.994 96.7773 280.428V281.184C96.7773 281.617 96.8594 282.027 97.0234 282.414C97.1875 282.789 97.4102 283.117 97.6914 283.398C97.9727 283.68 98.3008 283.902 98.6758 284.066C99.0625 284.23 99.4727 284.312 99.9062 284.312H101.348C101.781 284.312 102.186 284.23 102.561 284.066C102.947 283.902 103.281 283.68 103.562 283.398C103.844 283.117 104.066 282.789 104.23 282.414C104.395 282.027 104.477 281.617 104.477 281.184V277.281ZM123.338 281.43C123.338 282.156 123.191 282.824 122.898 283.434C122.605 284.031 122.207 284.547 121.703 284.98C121.199 285.414 120.613 285.754 119.945 286C119.289 286.234 118.598 286.352 117.871 286.352H116.43C115.703 286.352 115.006 286.217 114.338 285.947C113.682 285.666 113.102 285.285 112.598 284.805C112.105 284.324 111.707 283.762 111.402 283.117C111.109 282.473 110.963 281.787 110.963 281.061V280.34L113.125 279.988V281.184C113.125 281.617 113.213 282.027 113.389 282.414C113.576 282.789 113.822 283.117 114.127 283.398C114.432 283.68 114.783 283.902 115.182 284.066C115.58 284.23 115.996 284.312 116.43 284.312H117.871C118.305 284.312 118.721 284.248 119.119 284.119C119.518 283.99 119.869 283.809 120.174 283.574C120.49 283.328 120.736 283.035 120.912 282.695C121.1 282.355 121.193 281.969 121.193 281.535C121.193 280.891 121.053 280.363 120.771 279.953C120.49 279.543 120.115 279.203 119.646 278.934C119.189 278.652 118.662 278.424 118.064 278.248C117.479 278.061 116.875 277.879 116.254 277.703C115.633 277.516 115.023 277.305 114.426 277.07C113.84 276.836 113.312 276.531 112.844 276.156C112.387 275.77 112.018 275.289 111.736 274.715C111.455 274.141 111.314 273.426 111.314 272.57C111.314 271.844 111.455 271.182 111.736 270.584C112.018 269.975 112.398 269.453 112.879 269.02C113.359 268.586 113.916 268.252 114.549 268.018C115.193 267.771 115.879 267.648 116.605 267.648H117.871C118.598 267.648 119.283 267.789 119.928 268.07C120.572 268.34 121.135 268.715 121.615 269.195C122.096 269.676 122.471 270.238 122.74 270.883C123.021 271.527 123.162 272.213 123.162 272.939V273.01L121 273.361V272.816C121 272.383 120.918 271.979 120.754 271.604C120.59 271.217 120.367 270.883 120.086 270.602C119.805 270.32 119.471 270.098 119.084 269.934C118.709 269.77 118.305 269.688 117.871 269.688H116.605C116.172 269.688 115.762 269.752 115.375 269.881C115 270.01 114.672 270.197 114.391 270.443C114.109 270.678 113.887 270.965 113.723 271.305C113.559 271.645 113.477 272.031 113.477 272.465C113.477 273.086 113.617 273.596 113.898 273.994C114.18 274.381 114.549 274.709 115.006 274.979C115.475 275.248 116.002 275.477 116.588 275.664C117.186 275.84 117.789 276.027 118.398 276.227C119.02 276.414 119.623 276.631 120.209 276.877C120.807 277.123 121.334 277.439 121.791 277.826C122.26 278.213 122.635 278.699 122.916 279.285C123.197 279.859 123.338 280.574 123.338 281.43ZM139.51 281.061C139.51 281.787 139.369 282.473 139.088 283.117C138.818 283.762 138.443 284.324 137.963 284.805C137.482 285.285 136.92 285.666 136.275 285.947C135.631 286.217 134.945 286.352 134.219 286.352H132.777C132.051 286.352 131.365 286.217 130.721 285.947C130.076 285.666 129.514 285.285 129.033 284.805C128.553 284.324 128.172 283.762 127.891 283.117C127.621 282.473 127.486 281.787 127.486 281.061V272.939C127.486 272.213 127.621 271.527 127.891 270.883C128.172 270.238 128.553 269.676 129.033 269.195C129.514 268.715 130.076 268.34 130.721 268.07C131.365 267.789 132.051 267.648 132.777 267.648H134.219C134.945 267.648 135.631 267.789 136.275 268.07C136.92 268.34 137.482 268.715 137.963 269.195C138.443 269.676 138.818 270.238 139.088 270.883C139.369 271.527 139.51 272.213 139.51 272.939V277.176H129.648V281.184C129.648 281.617 129.73 282.027 129.895 282.414C130.059 282.789 130.281 283.117 130.562 283.398C130.844 283.68 131.172 283.902 131.547 284.066C131.934 284.23 132.344 284.312 132.777 284.312H134.219C134.652 284.312 135.057 284.23 135.432 284.066C135.818 283.902 136.152 283.68 136.434 283.398C136.715 283.117 136.938 282.789 137.102 282.414C137.266 282.027 137.348 281.617 137.348 281.184V279.988L139.51 280.34V281.061ZM137.348 272.816C137.348 272.383 137.266 271.979 137.102 271.604C136.938 271.217 136.715 270.883 136.434 270.602C136.152 270.32 135.818 270.098 135.432 269.934C135.057 269.77 134.652 269.688 134.219 269.688H132.777C132.344 269.688 131.934 269.77 131.547 269.934C131.172 270.098 130.844 270.32 130.562 270.602C130.281 270.883 130.059 271.217 129.895 271.604C129.73 271.979 129.648 272.383 129.648 272.816V275.488H137.348V272.816ZM167.037 270.127C167.037 270.982 166.873 271.785 166.545 272.535C166.229 273.285 165.789 273.941 165.227 274.504C164.664 275.066 164.002 275.512 163.24 275.84C162.49 276.156 161.688 276.314 160.832 276.314H155.119V286H152.852V260.793H160.832C161.688 260.793 162.49 260.957 163.24 261.285C164.002 261.602 164.664 262.041 165.227 262.604C165.789 263.166 166.229 263.828 166.545 264.59C166.873 265.34 167.037 266.143 167.037 266.998V270.127ZM164.77 266.998C164.77 266.436 164.664 265.914 164.453 265.434C164.242 264.941 163.949 264.514 163.574 264.15C163.211 263.775 162.783 263.482 162.291 263.271C161.811 263.061 161.289 262.955 160.727 262.955H155.119V274.152H160.727C161.289 274.152 161.811 274.047 162.291 273.836C162.783 273.625 163.211 273.338 163.574 272.975C163.949 272.611 164.242 272.189 164.453 271.709C164.664 271.217 164.77 270.689 164.77 270.127V266.998ZM175.949 270.057C175.516 270.057 175.105 270.139 174.719 270.303C174.344 270.467 174.016 270.689 173.734 270.971C173.453 271.252 173.23 271.586 173.066 271.973C172.902 272.348 172.82 272.752 172.82 273.186V286H170.658V268H171.379L172.557 269.828C173.049 269.16 173.664 268.633 174.402 268.246C175.152 267.848 175.967 267.648 176.846 267.648H178.111V270.057H175.949ZM193.018 281.061C193.018 281.787 192.877 282.473 192.596 283.117C192.326 283.762 191.951 284.324 191.471 284.805C190.99 285.285 190.428 285.666 189.783 285.947C189.139 286.217 188.453 286.352 187.727 286.352H186.285C185.559 286.352 184.873 286.217 184.229 285.947C183.584 285.666 183.021 285.285 182.541 284.805C182.061 284.324 181.68 283.762 181.398 283.117C181.129 282.473 180.994 281.787 180.994 281.061V272.939C180.994 272.213 181.129 271.527 181.398 270.883C181.68 270.238 182.061 269.676 182.541 269.195C183.021 268.715 183.584 268.34 184.229 268.07C184.873 267.789 185.559 267.648 186.285 267.648H187.727C188.453 267.648 189.139 267.789 189.783 268.07C190.428 268.34 190.99 268.715 191.471 269.195C191.951 269.676 192.326 270.238 192.596 270.883C192.877 271.527 193.018 272.213 193.018 272.939V281.061ZM190.855 272.816C190.855 272.383 190.773 271.979 190.609 271.604C190.445 271.217 190.223 270.883 189.941 270.602C189.66 270.32 189.326 270.098 188.939 269.934C188.564 269.77 188.16 269.688 187.727 269.688H186.285C185.852 269.688 185.441 269.77 185.055 269.934C184.68 270.098 184.352 270.32 184.07 270.602C183.789 270.883 183.566 271.217 183.402 271.604C183.238 271.979 183.156 272.383 183.156 272.816V281.184C183.156 281.617 183.238 282.027 183.402 282.414C183.566 282.789 183.789 283.117 184.07 283.398C184.352 283.68 184.68 283.902 185.055 284.066C185.441 284.23 185.852 284.312 186.285 284.312H187.727C188.16 284.312 188.564 284.23 188.939 284.066C189.326 283.902 189.66 283.68 189.941 283.398C190.223 283.117 190.445 282.789 190.609 282.414C190.773 282.027 190.855 281.617 190.855 281.184V272.816ZM203.529 262.85C203.166 262.85 202.826 262.92 202.51 263.061C202.205 263.189 201.936 263.371 201.701 263.605C201.467 263.84 201.279 264.115 201.139 264.432C201.01 264.748 200.945 265.088 200.945 265.451V268H205.146V270.057H200.945V286H198.783V270.057H195.531V268H198.783V265.557C198.783 264.9 198.906 264.285 199.152 263.711C199.398 263.125 199.738 262.615 200.172 262.182C200.605 261.748 201.109 261.408 201.684 261.162C202.258 260.916 202.873 260.793 203.529 260.793H205.516V262.85H203.529ZM208.223 263.676V260.793H210.736V263.676H208.223ZM208.398 286V268H210.561V286H208.398ZM222.18 286C221.523 286 220.902 285.877 220.316 285.631C219.742 285.385 219.238 285.045 218.805 284.611C218.383 284.178 218.043 283.674 217.785 283.1C217.539 282.525 217.416 281.91 217.416 281.254V270.057H214.182V268H217.416V263.676L219.578 263.324V268H224.148V270.057H219.578V281.359C219.578 281.723 219.643 282.062 219.771 282.379C219.912 282.684 220.1 282.953 220.334 283.188C220.568 283.422 220.844 283.609 221.16 283.75C221.477 283.879 221.816 283.943 222.18 283.943H224.148V286H222.18Z" fill="#EDF2F4"/>
</svg>
