<svg width="374" height="88" viewBox="0 0 374 88" fill="none" xmlns="http://www.w3.org/2000/svg">
<rect width="374" height="88" rx="20" fill="#14B568"/>
<path d="M316.267 60C316.267 61.4667 317.467 62.6667 318.933 62.6667H321.6V72C321.6 74.2133 323.387 76 325.6 76C327.813 76 329.6 74.2133 329.6 72V62.6667H334.933V72C334.933 74.2133 336.72 76 338.933 76C341.147 76 342.933 74.2133 342.933 72V62.6667H345.6C347.067 62.6667 348.267 61.4667 348.267 60V33.3333H316.267V60ZM309.6 33.3333C307.387 33.3333 305.6 35.12 305.6 37.3333V56C305.6 58.2133 307.387 60 309.6 60C311.813 60 313.6 58.2133 313.6 56V37.3333C313.6 35.12 311.813 33.3333 309.6 33.3333ZM354.933 33.3333C352.72 33.3333 350.933 35.12 350.933 37.3333V56C350.933 58.2133 352.72 60 354.933 60C357.147 60 358.933 58.2133 358.933 56V37.3333C358.933 35.12 357.147 33.3333 354.933 33.3333ZM341.68 17.76L345.147 14.2933C345.68 13.76 345.68 12.9333 345.147 12.4C344.613 11.8667 343.787 11.8667 343.253 12.4L339.307 16.3467C337.2 15.28 334.8 14.6667 332.267 14.6667C329.707 14.6667 327.307 15.28 325.173 16.3467L321.2 12.4C320.667 11.8667 319.84 11.8667 319.307 12.4C318.773 12.9333 318.773 13.76 319.307 14.2933L322.8 17.7867C318.853 20.6933 316.267 25.36 316.267 30.6667H348.267C348.267 25.36 345.68 20.6667 341.68 17.76ZM326.933 25.3333H324.267V22.6667H326.933V25.3333ZM340.267 25.3333H337.6V22.6667H340.267V25.3333Z" fill="#EDF2F4"/>
<path d="M31.4668 50.1289H23.4863L21.834 56H19.4785L26.8613 30.793H28.0566L35.4746 56H33.1367L31.4668 50.1289ZM24.1016 47.9668H30.8691L27.5469 36.3477L27.4766 35.416L27.4062 36.3477L24.1016 47.9668ZM49.291 56L48.0957 54.1719C47.6035 54.8398 46.9883 55.373 46.25 55.7715C45.5117 56.1582 44.7031 56.3516 43.8242 56.3516H43.2793C42.5527 56.3516 41.8672 56.2168 41.2227 55.9473C40.5781 55.666 40.0156 55.2852 39.5352 54.8047C39.0547 54.3242 38.6738 53.7617 38.3926 53.1172C38.123 52.4727 37.9883 51.7871 37.9883 51.0605V38H40.1504V51.1836C40.1504 51.6172 40.2324 52.0273 40.3965 52.4141C40.5605 52.7891 40.7832 53.1172 41.0645 53.3984C41.3457 53.6797 41.6738 53.9023 42.0488 54.0664C42.4355 54.2305 42.8457 54.3125 43.2793 54.3125H44.7207C45.1543 54.3125 45.5586 54.2305 45.9336 54.0664C46.3203 53.9023 46.6543 53.6797 46.9355 53.3984C47.2168 53.1172 47.4395 52.7891 47.6035 52.4141C47.7676 52.0273 47.8496 51.6172 47.8496 51.1836V38H50.0117V56H49.291ZM60.8926 56C60.2363 56 59.6152 55.877 59.0293 55.6309C58.4551 55.3848 57.9512 55.0449 57.5176 54.6113C57.0957 54.1777 56.7559 53.6738 56.498 53.0996C56.252 52.5254 56.1289 51.9102 56.1289 51.2539V40.0566H52.8945V38H56.1289V33.6758L58.291 33.3242V38H62.8613V40.0566H58.291V51.3594C58.291 51.7227 58.3555 52.0625 58.4844 52.3789C58.625 52.6836 58.8125 52.9531 59.0469 53.1875C59.2812 53.4219 59.5566 53.6094 59.873 53.75C60.1895 53.8789 60.5293 53.9434 60.8926 53.9434H62.8613V56H60.8926ZM78.875 51.0605C78.875 51.7871 78.7344 52.4727 78.4531 53.1172C78.1836 53.7617 77.8086 54.3242 77.3281 54.8047C76.8477 55.2852 76.2852 55.666 75.6406 55.9473C74.9961 56.2168 74.3105 56.3516 73.584 56.3516H72.1426C71.416 56.3516 70.7305 56.2168 70.0859 55.9473C69.4414 55.666 68.8789 55.2852 68.3984 54.8047C67.918 54.3242 67.5371 53.7617 67.2559 53.1172C66.9863 52.4727 66.8516 51.7871 66.8516 51.0605V42.9395C66.8516 42.2129 66.9863 41.5273 67.2559 40.8828C67.5371 40.2383 67.918 39.6758 68.3984 39.1953C68.8789 38.7148 69.4414 38.3398 70.0859 38.0703C70.7305 37.7891 71.416 37.6484 72.1426 37.6484H73.584C74.3105 37.6484 74.9961 37.7891 75.6406 38.0703C76.2852 38.3398 76.8477 38.7148 77.3281 39.1953C77.8086 39.6758 78.1836 40.2383 78.4531 40.8828C78.7344 41.5273 78.875 42.2129 78.875 42.9395V51.0605ZM76.7129 42.8164C76.7129 42.3828 76.6309 41.9785 76.4668 41.6035C76.3027 41.2168 76.0801 40.8828 75.7988 40.6016C75.5176 40.3203 75.1836 40.0977 74.7969 39.9336C74.4219 39.7695 74.0176 39.6875 73.584 39.6875H72.1426C71.709 39.6875 71.2988 39.7695 70.9121 39.9336C70.5371 40.0977 70.209 40.3203 69.9277 40.6016C69.6465 40.8828 69.4238 41.2168 69.2598 41.6035C69.0957 41.9785 69.0137 42.3828 69.0137 42.8164V51.1836C69.0137 51.6172 69.0957 52.0273 69.2598 52.4141C69.4238 52.7891 69.6465 53.1172 69.9277 53.3984C70.209 53.6797 70.5371 53.9023 70.9121 54.0664C71.2988 54.2305 71.709 54.3125 72.1426 54.3125H73.584C74.0176 54.3125 74.4219 54.2305 74.7969 54.0664C75.1836 53.9023 75.5176 53.6797 75.7988 53.3984C76.0801 53.1172 76.3027 52.7891 76.4668 52.4141C76.6309 52.0273 76.7129 51.6172 76.7129 51.1836V42.8164ZM102.201 56V42.8164C102.201 42.3828 102.119 41.9785 101.955 41.6035C101.791 41.2168 101.568 40.8828 101.287 40.6016C101.006 40.3203 100.672 40.0977 100.285 39.9336C99.9102 39.7695 99.5059 39.6875 99.0723 39.6875H98C97.5664 39.6875 97.1562 39.7695 96.7695 39.9336C96.3945 40.0977 96.0605 40.3203 95.7676 40.6016C95.4863 40.8828 95.2637 41.2168 95.0996 41.6035C94.9355 41.9785 94.8535 42.3828 94.8535 42.8164V56H92.709V42.8164C92.709 42.3828 92.627 41.9785 92.4629 41.6035C92.2988 41.2168 92.0703 40.8828 91.7773 40.6016C91.4961 40.3203 91.1621 40.0977 90.7754 39.9336C90.4004 39.7695 89.9961 39.6875 89.5625 39.6875H88.4902C88.0566 39.6875 87.6465 39.7695 87.2598 39.9336C86.8848 40.0977 86.5566 40.3203 86.2754 40.6016C85.9941 40.8828 85.7715 41.2168 85.6074 41.6035C85.4434 41.9785 85.3613 42.3828 85.3613 42.8164V56H83.1992V38H83.9199L85.0977 39.8281C85.5898 39.1602 86.2051 38.6328 86.9434 38.2461C87.6934 37.8477 88.5078 37.6484 89.3867 37.6484H89.5625C90.582 37.6484 91.502 37.9004 92.3223 38.4043C93.1426 38.9082 93.7754 39.5762 94.2207 40.4082C94.4434 39.998 94.7188 39.623 95.0469 39.2832C95.375 38.9434 95.7383 38.6562 96.1367 38.4219C96.5352 38.1758 96.9688 37.9883 97.4375 37.8594C97.9062 37.7188 98.3926 37.6484 98.8965 37.6484H99.0723C99.7988 37.6484 100.484 37.7891 101.129 38.0703C101.773 38.3398 102.336 38.7148 102.816 39.1953C103.297 39.6758 103.672 40.2383 103.941 40.8828C104.223 41.5273 104.363 42.2129 104.363 42.9395V56H102.201ZM119.99 56L118.795 54.207C118.303 54.8516 117.688 55.373 116.949 55.7715C116.211 56.1582 115.402 56.3516 114.523 56.3516H113.979C113.252 56.3516 112.566 56.2168 111.922 55.9473C111.277 55.666 110.715 55.2852 110.234 54.8047C109.754 54.3242 109.373 53.7617 109.092 53.1172C108.822 52.4727 108.688 51.7871 108.688 51.0605V50.8848C108.688 50.1582 108.822 49.4727 109.092 48.8281C109.373 48.1836 109.754 47.6211 110.234 47.1406C110.715 46.6602 111.277 46.2852 111.922 46.0156C112.566 45.7344 113.252 45.5938 113.979 45.5938H118.549V42.8164C118.549 42.3828 118.467 41.9785 118.303 41.6035C118.139 41.2168 117.916 40.8828 117.635 40.6016C117.354 40.3203 117.02 40.0977 116.633 39.9336C116.258 39.7695 115.854 39.6875 115.42 39.6875H114.154C113.721 39.6875 113.311 39.7695 112.924 39.9336C112.549 40.0977 112.221 40.3203 111.939 40.6016C111.658 40.8828 111.436 41.2168 111.271 41.6035C111.107 41.9785 111.025 42.3828 111.025 42.8164V43.4668L108.863 43.1152V42.9395C108.863 42.2129 108.998 41.5273 109.268 40.8828C109.549 40.2383 109.93 39.6758 110.41 39.1953C110.891 38.7148 111.453 38.3398 112.098 38.0703C112.742 37.7891 113.428 37.6484 114.154 37.6484H115.42C116.146 37.6484 116.832 37.7891 117.477 38.0703C118.121 38.3398 118.684 38.7148 119.164 39.1953C119.645 39.6758 120.02 40.2383 120.289 40.8828C120.57 41.5273 120.711 42.2129 120.711 42.9395V56H119.99ZM118.549 47.2812H113.979C113.545 47.2812 113.135 47.3633 112.748 47.5273C112.373 47.6914 112.045 47.9199 111.764 48.2129C111.482 48.4941 111.26 48.8281 111.096 49.2148C110.932 49.5898 110.85 49.9941 110.85 50.4277V51.1836C110.85 51.6172 110.932 52.0273 111.096 52.4141C111.26 52.7891 111.482 53.1172 111.764 53.3984C112.045 53.6797 112.373 53.9023 112.748 54.0664C113.135 54.2305 113.545 54.3125 113.979 54.3125H115.42C115.854 54.3125 116.258 54.2305 116.633 54.0664C117.02 53.9023 117.354 53.6797 117.635 53.3984C117.916 53.1172 118.139 52.7891 118.303 52.4141C118.467 52.0273 118.549 51.6172 118.549 51.1836V47.2812ZM131.592 56C130.936 56 130.314 55.877 129.729 55.6309C129.154 55.3848 128.65 55.0449 128.217 54.6113C127.795 54.1777 127.455 53.6738 127.197 53.0996C126.951 52.5254 126.828 51.9102 126.828 51.2539V40.0566H123.594V38H126.828V33.6758L128.99 33.3242V38H133.561V40.0566H128.99V51.3594C128.99 51.7227 129.055 52.0625 129.184 52.3789C129.324 52.6836 129.512 52.9531 129.746 53.1875C129.98 53.4219 130.256 53.6094 130.572 53.75C130.889 53.8789 131.229 53.9434 131.592 53.9434H133.561V56H131.592ZM149.574 51.0605C149.574 51.7871 149.434 52.4727 149.152 53.1172C148.883 53.7617 148.508 54.3242 148.027 54.8047C147.547 55.2852 146.984 55.666 146.34 55.9473C145.695 56.2168 145.01 56.3516 144.283 56.3516H142.842C142.115 56.3516 141.43 56.2168 140.785 55.9473C140.141 55.666 139.578 55.2852 139.098 54.8047C138.617 54.3242 138.236 53.7617 137.955 53.1172C137.686 52.4727 137.551 51.7871 137.551 51.0605V42.9395C137.551 42.2129 137.686 41.5273 137.955 40.8828C138.236 40.2383 138.617 39.6758 139.098 39.1953C139.578 38.7148 140.141 38.3398 140.785 38.0703C141.43 37.7891 142.115 37.6484 142.842 37.6484H144.283C145.01 37.6484 145.695 37.7891 146.34 38.0703C146.984 38.3398 147.547 38.7148 148.027 39.1953C148.508 39.6758 148.883 40.2383 149.152 40.8828C149.434 41.5273 149.574 42.2129 149.574 42.9395V47.1758H139.713V51.1836C139.713 51.6172 139.795 52.0273 139.959 52.4141C140.123 52.7891 140.346 53.1172 140.627 53.3984C140.908 53.6797 141.236 53.9023 141.611 54.0664C141.998 54.2305 142.408 54.3125 142.842 54.3125H144.283C144.717 54.3125 145.121 54.2305 145.496 54.0664C145.883 53.9023 146.217 53.6797 146.498 53.3984C146.779 53.1172 147.002 52.7891 147.166 52.4141C147.33 52.0273 147.412 51.6172 147.412 51.1836V49.9883L149.574 50.3398V51.0605ZM147.412 42.8164C147.412 42.3828 147.33 41.9785 147.166 41.6035C147.002 41.2168 146.779 40.8828 146.498 40.6016C146.217 40.3203 145.883 40.0977 145.496 39.9336C145.121 39.7695 144.717 39.6875 144.283 39.6875H142.842C142.408 39.6875 141.998 39.7695 141.611 39.9336C141.236 40.0977 140.908 40.3203 140.627 40.6016C140.346 40.8828 140.123 41.2168 139.959 41.6035C139.795 41.9785 139.713 42.3828 139.713 42.8164V45.4883H147.412V42.8164ZM169.033 32.9551V56H166.766V32.9551H160.754V30.793H175.045V32.9551H169.033ZM187.596 56L186.4 54.207C185.908 54.8516 185.293 55.373 184.555 55.7715C183.816 56.1582 183.008 56.3516 182.129 56.3516H181.584C180.857 56.3516 180.172 56.2168 179.527 55.9473C178.883 55.666 178.32 55.2852 177.84 54.8047C177.359 54.3242 176.979 53.7617 176.697 53.1172C176.428 52.4727 176.293 51.7871 176.293 51.0605V50.8848C176.293 50.1582 176.428 49.4727 176.697 48.8281C176.979 48.1836 177.359 47.6211 177.84 47.1406C178.32 46.6602 178.883 46.2852 179.527 46.0156C180.172 45.7344 180.857 45.5938 181.584 45.5938H186.154V42.8164C186.154 42.3828 186.072 41.9785 185.908 41.6035C185.744 41.2168 185.521 40.8828 185.24 40.6016C184.959 40.3203 184.625 40.0977 184.238 39.9336C183.863 39.7695 183.459 39.6875 183.025 39.6875H181.76C181.326 39.6875 180.916 39.7695 180.529 39.9336C180.154 40.0977 179.826 40.3203 179.545 40.6016C179.264 40.8828 179.041 41.2168 178.877 41.6035C178.713 41.9785 178.631 42.3828 178.631 42.8164V43.4668L176.469 43.1152V42.9395C176.469 42.2129 176.604 41.5273 176.873 40.8828C177.154 40.2383 177.535 39.6758 178.016 39.1953C178.496 38.7148 179.059 38.3398 179.703 38.0703C180.348 37.7891 181.033 37.6484 181.76 37.6484H183.025C183.752 37.6484 184.438 37.7891 185.082 38.0703C185.727 38.3398 186.289 38.7148 186.77 39.1953C187.25 39.6758 187.625 40.2383 187.895 40.8828C188.176 41.5273 188.316 42.2129 188.316 42.9395V56H187.596ZM186.154 47.2812H181.584C181.15 47.2812 180.74 47.3633 180.354 47.5273C179.979 47.6914 179.65 47.9199 179.369 48.2129C179.088 48.4941 178.865 48.8281 178.701 49.2148C178.537 49.5898 178.455 49.9941 178.455 50.4277V51.1836C178.455 51.6172 178.537 52.0273 178.701 52.4141C178.865 52.7891 179.088 53.1172 179.369 53.3984C179.65 53.6797 179.979 53.9023 180.354 54.0664C180.74 54.2305 181.15 54.3125 181.584 54.3125H183.025C183.459 54.3125 183.863 54.2305 184.238 54.0664C184.625 53.9023 184.959 53.6797 185.24 53.3984C185.521 53.1172 185.744 52.7891 185.908 52.4141C186.072 52.0273 186.154 51.6172 186.154 51.1836V47.2812ZM205.016 51.4297C205.016 52.1562 204.869 52.8242 204.576 53.4336C204.283 54.0312 203.885 54.5469 203.381 54.9805C202.877 55.4141 202.291 55.7539 201.623 56C200.967 56.2344 200.275 56.3516 199.549 56.3516H198.107C197.381 56.3516 196.684 56.2168 196.016 55.9473C195.359 55.666 194.779 55.2852 194.275 54.8047C193.783 54.3242 193.385 53.7617 193.08 53.1172C192.787 52.4727 192.641 51.7871 192.641 51.0605V50.3398L194.803 49.9883V51.1836C194.803 51.6172 194.891 52.0273 195.066 52.4141C195.254 52.7891 195.5 53.1172 195.805 53.3984C196.109 53.6797 196.461 53.9023 196.859 54.0664C197.258 54.2305 197.674 54.3125 198.107 54.3125H199.549C199.982 54.3125 200.398 54.248 200.797 54.1191C201.195 53.9902 201.547 53.8086 201.852 53.5742C202.168 53.3281 202.414 53.0352 202.59 52.6953C202.777 52.3555 202.871 51.9688 202.871 51.5352C202.871 50.8906 202.73 50.3633 202.449 49.9531C202.168 49.543 201.793 49.2031 201.324 48.9336C200.867 48.6523 200.34 48.4238 199.742 48.248C199.156 48.0605 198.553 47.8789 197.932 47.7031C197.311 47.5156 196.701 47.3047 196.104 47.0703C195.518 46.8359 194.99 46.5312 194.521 46.1562C194.064 45.7695 193.695 45.2891 193.414 44.7148C193.133 44.1406 192.992 43.4258 192.992 42.5703C192.992 41.8438 193.133 41.1816 193.414 40.584C193.695 39.9746 194.076 39.4531 194.557 39.0195C195.037 38.5859 195.594 38.252 196.227 38.0176C196.871 37.7715 197.557 37.6484 198.283 37.6484H199.549C200.275 37.6484 200.961 37.7891 201.605 38.0703C202.25 38.3398 202.812 38.7148 203.293 39.1953C203.773 39.6758 204.148 40.2383 204.418 40.8828C204.699 41.5273 204.84 42.2129 204.84 42.9395V43.0098L202.678 43.3613V42.8164C202.678 42.3828 202.596 41.9785 202.432 41.6035C202.268 41.2168 202.045 40.8828 201.764 40.6016C201.482 40.3203 201.148 40.0977 200.762 39.9336C200.387 39.7695 199.982 39.6875 199.549 39.6875H198.283C197.85 39.6875 197.439 39.752 197.053 39.8809C196.678 40.0098 196.35 40.1973 196.068 40.4434C195.787 40.6777 195.564 40.9648 195.4 41.3047C195.236 41.6445 195.154 42.0312 195.154 42.4648C195.154 43.0859 195.295 43.5957 195.576 43.9941C195.857 44.3809 196.227 44.709 196.684 44.9785C197.152 45.248 197.68 45.4766 198.266 45.6641C198.863 45.8398 199.467 46.0273 200.076 46.2266C200.697 46.4141 201.301 46.6309 201.887 46.877C202.484 47.123 203.012 47.4395 203.469 47.8262C203.938 48.2129 204.312 48.6992 204.594 49.2852C204.875 49.8594 205.016 50.5742 205.016 51.4297ZM219.816 56L212.469 47L219.816 38H222.629L215.105 47L222.629 56H219.816ZM209.885 56V30.793H212.047V56H209.885ZM237.887 51.4297C237.887 52.1562 237.74 52.8242 237.447 53.4336C237.154 54.0312 236.756 54.5469 236.252 54.9805C235.748 55.4141 235.162 55.7539 234.494 56C233.838 56.2344 233.146 56.3516 232.42 56.3516H230.979C230.252 56.3516 229.555 56.2168 228.887 55.9473C228.23 55.666 227.65 55.2852 227.146 54.8047C226.654 54.3242 226.256 53.7617 225.951 53.1172C225.658 52.4727 225.512 51.7871 225.512 51.0605V50.3398L227.674 49.9883V51.1836C227.674 51.6172 227.762 52.0273 227.938 52.4141C228.125 52.7891 228.371 53.1172 228.676 53.3984C228.98 53.6797 229.332 53.9023 229.73 54.0664C230.129 54.2305 230.545 54.3125 230.979 54.3125H232.42C232.854 54.3125 233.27 54.248 233.668 54.1191C234.066 53.9902 234.418 53.8086 234.723 53.5742C235.039 53.3281 235.285 53.0352 235.461 52.6953C235.648 52.3555 235.742 51.9688 235.742 51.5352C235.742 50.8906 235.602 50.3633 235.32 49.9531C235.039 49.543 234.664 49.2031 234.195 48.9336C233.738 48.6523 233.211 48.4238 232.613 48.248C232.027 48.0605 231.424 47.8789 230.803 47.7031C230.182 47.5156 229.572 47.3047 228.975 47.0703C228.389 46.8359 227.861 46.5312 227.393 46.1562C226.936 45.7695 226.566 45.2891 226.285 44.7148C226.004 44.1406 225.863 43.4258 225.863 42.5703C225.863 41.8438 226.004 41.1816 226.285 40.584C226.566 39.9746 226.947 39.4531 227.428 39.0195C227.908 38.5859 228.465 38.252 229.098 38.0176C229.742 37.7715 230.428 37.6484 231.154 37.6484H232.42C233.146 37.6484 233.832 37.7891 234.477 38.0703C235.121 38.3398 235.684 38.7148 236.164 39.1953C236.645 39.6758 237.02 40.2383 237.289 40.8828C237.57 41.5273 237.711 42.2129 237.711 42.9395V43.0098L235.549 43.3613V42.8164C235.549 42.3828 235.467 41.9785 235.303 41.6035C235.139 41.2168 234.916 40.8828 234.635 40.6016C234.354 40.3203 234.02 40.0977 233.633 39.9336C233.258 39.7695 232.854 39.6875 232.42 39.6875H231.154C230.721 39.6875 230.311 39.752 229.924 39.8809C229.549 40.0098 229.221 40.1973 228.939 40.4434C228.658 40.6777 228.436 40.9648 228.271 41.3047C228.107 41.6445 228.025 42.0312 228.025 42.4648C228.025 43.0859 228.166 43.5957 228.447 43.9941C228.729 44.3809 229.098 44.709 229.555 44.9785C230.023 45.248 230.551 45.4766 231.137 45.6641C231.734 45.8398 232.338 46.0273 232.947 46.2266C233.568 46.4141 234.172 46.6309 234.758 46.877C235.355 47.123 235.883 47.4395 236.34 47.8262C236.809 48.2129 237.184 48.6992 237.465 49.2852C237.746 49.8594 237.887 50.5742 237.887 51.4297Z" fill="#EDF2F4"/>
</svg>
