<svg width="374" height="88" viewBox="0 0 374 88" fill="none" xmlns="http://www.w3.org/2000/svg">
<rect width="374" height="88" rx="20" fill="#D2CA0B"/>
<path d="M335.875 40.0625C328.781 38.2188 326.5 36.3125 326.5 33.3438C326.5 29.9375 329.656 27.5625 334.937 27.5625C340.5 27.5625 342.562 30.2188 342.75 34.125H349.656C349.437 28.75 346.156 23.8125 339.625 22.2188V15.375H330.25V22.125C324.187 23.4375 319.312 27.375 319.312 33.4062C319.312 40.625 325.281 44.2187 334 46.3125C341.812 48.1875 343.375 50.9375 343.375 53.8438C343.375 56 341.844 59.4375 334.937 59.4375C328.5 59.4375 325.969 56.5625 325.625 52.875H318.75C319.125 59.7188 324.25 63.5625 330.25 64.8437V71.625H339.625V64.9063C345.719 63.75 350.562 60.2188 350.562 53.8125C350.562 44.9375 342.969 41.9063 335.875 40.0625Z" fill="#EDF2F4"/>
<path d="M26.9062 55V29.793H29.1738V55H26.9062ZM44.0977 55V41.8164C44.0977 41.3828 44.0156 40.9785 43.8516 40.6035C43.6875 40.2168 43.4648 39.8828 43.1836 39.6016C42.9023 39.3203 42.5684 39.0977 42.1816 38.9336C41.8066 38.7695 41.4023 38.6875 40.9688 38.6875H39.5273C39.0938 38.6875 38.6836 38.7695 38.2969 38.9336C37.9219 39.0977 37.5938 39.3203 37.3125 39.6016C37.0312 39.8828 36.8086 40.2168 36.6445 40.6035C36.4805 40.9785 36.3984 41.3828 36.3984 41.8164V55H34.2363V37H34.957L36.1348 38.8281C36.627 38.1602 37.2422 37.6328 37.9805 37.2461C38.7305 36.8477 39.5449 36.6484 40.4238 36.6484H40.9688C41.6953 36.6484 42.3809 36.7891 43.0254 37.0703C43.6699 37.3398 44.2324 37.7148 44.7129 38.1953C45.1934 38.6758 45.5684 39.2383 45.8379 39.8828C46.1191 40.5273 46.2598 41.2129 46.2598 41.9395V55H44.0977ZM62.6074 50.0605C62.6074 50.7871 62.4668 51.4727 62.1855 52.1172C61.916 52.7617 61.541 53.3242 61.0605 53.8047C60.5801 54.2852 60.0176 54.666 59.373 54.9473C58.7285 55.2168 58.043 55.3516 57.3164 55.3516H55.875C55.1484 55.3516 54.4629 55.2168 53.8184 54.9473C53.1738 54.666 52.6113 54.2852 52.1309 53.8047C51.6504 53.3242 51.2695 52.7617 50.9883 52.1172C50.7188 51.4727 50.584 50.7871 50.584 50.0605V41.9395C50.584 41.2129 50.7188 40.5273 50.9883 39.8828C51.2695 39.2383 51.6504 38.6758 52.1309 38.1953C52.6113 37.7148 53.1738 37.3398 53.8184 37.0703C54.4629 36.7891 55.1484 36.6484 55.875 36.6484H57.3164C58.043 36.6484 58.7285 36.7891 59.373 37.0703C60.0176 37.3398 60.5801 37.7148 61.0605 38.1953C61.541 38.6758 61.916 39.2383 62.1855 39.8828C62.4668 40.5273 62.6074 41.2129 62.6074 41.9395V42.6602L60.4453 43.0117V41.8164C60.4453 41.3828 60.3633 40.9785 60.1992 40.6035C60.0352 40.2168 59.8125 39.8828 59.5312 39.6016C59.25 39.3203 58.916 39.0977 58.5293 38.9336C58.1543 38.7695 57.75 38.6875 57.3164 38.6875H55.875C55.4414 38.6875 55.0312 38.7695 54.6445 38.9336C54.2695 39.0977 53.9414 39.3203 53.6602 39.6016C53.3789 39.8828 53.1562 40.2168 52.9922 40.6035C52.8281 40.9785 52.7461 41.3828 52.7461 41.8164V50.1836C52.7461 50.6172 52.8281 51.0273 52.9922 51.4141C53.1562 51.7891 53.3789 52.1172 53.6602 52.3984C53.9414 52.6797 54.2695 52.9023 54.6445 53.0664C55.0312 53.2305 55.4414 53.3125 55.875 53.3125H57.3164C57.75 53.3125 58.1543 53.2305 58.5293 53.0664C58.916 52.9023 59.25 52.6797 59.5312 52.3984C59.8125 52.1172 60.0352 51.7891 60.1992 51.4141C60.3633 51.0273 60.4453 50.6172 60.4453 50.1836V48.9883L62.6074 49.3398V50.0605ZM72.2227 39.0566C71.7891 39.0566 71.3789 39.1387 70.9922 39.3027C70.6172 39.4668 70.2891 39.6895 70.0078 39.9707C69.7266 40.252 69.5039 40.5859 69.3398 40.9727C69.1758 41.3477 69.0938 41.752 69.0938 42.1855V55H66.9316V37H67.6523L68.8301 38.8281C69.3223 38.1602 69.9375 37.6328 70.6758 37.2461C71.4258 36.8477 72.2402 36.6484 73.1191 36.6484H74.3848V39.0566H72.2227ZM89.291 50.0605C89.291 50.7871 89.1504 51.4727 88.8691 52.1172C88.5996 52.7617 88.2246 53.3242 87.7441 53.8047C87.2637 54.2852 86.7012 54.666 86.0566 54.9473C85.4121 55.2168 84.7266 55.3516 84 55.3516H82.5586C81.832 55.3516 81.1465 55.2168 80.502 54.9473C79.8574 54.666 79.2949 54.2852 78.8145 53.8047C78.334 53.3242 77.9531 52.7617 77.6719 52.1172C77.4023 51.4727 77.2676 50.7871 77.2676 50.0605V41.9395C77.2676 41.2129 77.4023 40.5273 77.6719 39.8828C77.9531 39.2383 78.334 38.6758 78.8145 38.1953C79.2949 37.7148 79.8574 37.3398 80.502 37.0703C81.1465 36.7891 81.832 36.6484 82.5586 36.6484H84C84.7266 36.6484 85.4121 36.7891 86.0566 37.0703C86.7012 37.3398 87.2637 37.7148 87.7441 38.1953C88.2246 38.6758 88.5996 39.2383 88.8691 39.8828C89.1504 40.5273 89.291 41.2129 89.291 41.9395V46.1758H79.4297V50.1836C79.4297 50.6172 79.5117 51.0273 79.6758 51.4141C79.8398 51.7891 80.0625 52.1172 80.3438 52.3984C80.625 52.6797 80.9531 52.9023 81.3281 53.0664C81.7148 53.2305 82.125 53.3125 82.5586 53.3125H84C84.4336 53.3125 84.8379 53.2305 85.2129 53.0664C85.5996 52.9023 85.9336 52.6797 86.2148 52.3984C86.4961 52.1172 86.7188 51.7891 86.8828 51.4141C87.0469 51.0273 87.1289 50.6172 87.1289 50.1836V48.9883L89.291 49.3398V50.0605ZM87.1289 41.8164C87.1289 41.3828 87.0469 40.9785 86.8828 40.6035C86.7188 40.2168 86.4961 39.8828 86.2148 39.6016C85.9336 39.3203 85.5996 39.0977 85.2129 38.9336C84.8379 38.7695 84.4336 38.6875 84 38.6875H82.5586C82.125 38.6875 81.7148 38.7695 81.3281 38.9336C80.9531 39.0977 80.625 39.3203 80.3438 39.6016C80.0625 39.8828 79.8398 40.2168 79.6758 40.6035C79.5117 40.9785 79.4297 41.3828 79.4297 41.8164V44.4883H87.1289V41.8164ZM104.918 55L103.723 53.207C103.23 53.8516 102.615 54.373 101.877 54.7715C101.139 55.1582 100.33 55.3516 99.4512 55.3516H98.9062C98.1797 55.3516 97.4941 55.2168 96.8496 54.9473C96.2051 54.666 95.6426 54.2852 95.1621 53.8047C94.6816 53.3242 94.3008 52.7617 94.0195 52.1172C93.75 51.4727 93.6152 50.7871 93.6152 50.0605V49.8848C93.6152 49.1582 93.75 48.4727 94.0195 47.8281C94.3008 47.1836 94.6816 46.6211 95.1621 46.1406C95.6426 45.6602 96.2051 45.2852 96.8496 45.0156C97.4941 44.7344 98.1797 44.5938 98.9062 44.5938H103.477V41.8164C103.477 41.3828 103.395 40.9785 103.23 40.6035C103.066 40.2168 102.844 39.8828 102.562 39.6016C102.281 39.3203 101.947 39.0977 101.561 38.9336C101.186 38.7695 100.781 38.6875 100.348 38.6875H99.082C98.6484 38.6875 98.2383 38.7695 97.8516 38.9336C97.4766 39.0977 97.1484 39.3203 96.8672 39.6016C96.5859 39.8828 96.3633 40.2168 96.1992 40.6035C96.0352 40.9785 95.9531 41.3828 95.9531 41.8164V42.4668L93.791 42.1152V41.9395C93.791 41.2129 93.9258 40.5273 94.1953 39.8828C94.4766 39.2383 94.8574 38.6758 95.3379 38.1953C95.8184 37.7148 96.3809 37.3398 97.0254 37.0703C97.6699 36.7891 98.3555 36.6484 99.082 36.6484H100.348C101.074 36.6484 101.76 36.7891 102.404 37.0703C103.049 37.3398 103.611 37.7148 104.092 38.1953C104.572 38.6758 104.947 39.2383 105.217 39.8828C105.498 40.5273 105.639 41.2129 105.639 41.9395V55H104.918ZM103.477 46.2812H98.9062C98.4727 46.2812 98.0625 46.3633 97.6758 46.5273C97.3008 46.6914 96.9727 46.9199 96.6914 47.2129C96.4102 47.4941 96.1875 47.8281 96.0234 48.2148C95.8594 48.5898 95.7773 48.9941 95.7773 49.4277V50.1836C95.7773 50.6172 95.8594 51.0273 96.0234 51.4141C96.1875 51.7891 96.4102 52.1172 96.6914 52.3984C96.9727 52.6797 97.3008 52.9023 97.6758 53.0664C98.0625 53.2305 98.4727 53.3125 98.9062 53.3125H100.348C100.781 53.3125 101.186 53.2305 101.561 53.0664C101.947 52.9023 102.281 52.6797 102.562 52.3984C102.844 52.1172 103.066 51.7891 103.23 51.4141C103.395 51.0273 103.477 50.6172 103.477 50.1836V46.2812ZM122.338 50.4297C122.338 51.1562 122.191 51.8242 121.898 52.4336C121.605 53.0312 121.207 53.5469 120.703 53.9805C120.199 54.4141 119.613 54.7539 118.945 55C118.289 55.2344 117.598 55.3516 116.871 55.3516H115.43C114.703 55.3516 114.006 55.2168 113.338 54.9473C112.682 54.666 112.102 54.2852 111.598 53.8047C111.105 53.3242 110.707 52.7617 110.402 52.1172C110.109 51.4727 109.963 50.7871 109.963 50.0605V49.3398L112.125 48.9883V50.1836C112.125 50.6172 112.213 51.0273 112.389 51.4141C112.576 51.7891 112.822 52.1172 113.127 52.3984C113.432 52.6797 113.783 52.9023 114.182 53.0664C114.58 53.2305 114.996 53.3125 115.43 53.3125H116.871C117.305 53.3125 117.721 53.248 118.119 53.1191C118.518 52.9902 118.869 52.8086 119.174 52.5742C119.49 52.3281 119.736 52.0352 119.912 51.6953C120.1 51.3555 120.193 50.9688 120.193 50.5352C120.193 49.8906 120.053 49.3633 119.771 48.9531C119.49 48.543 119.115 48.2031 118.646 47.9336C118.189 47.6523 117.662 47.4238 117.064 47.248C116.479 47.0605 115.875 46.8789 115.254 46.7031C114.633 46.5156 114.023 46.3047 113.426 46.0703C112.84 45.8359 112.312 45.5312 111.844 45.1562C111.387 44.7695 111.018 44.2891 110.736 43.7148C110.455 43.1406 110.314 42.4258 110.314 41.5703C110.314 40.8438 110.455 40.1816 110.736 39.584C111.018 38.9746 111.398 38.4531 111.879 38.0195C112.359 37.5859 112.916 37.252 113.549 37.0176C114.193 36.7715 114.879 36.6484 115.605 36.6484H116.871C117.598 36.6484 118.283 36.7891 118.928 37.0703C119.572 37.3398 120.135 37.7148 120.615 38.1953C121.096 38.6758 121.471 39.2383 121.74 39.8828C122.021 40.5273 122.162 41.2129 122.162 41.9395V42.0098L120 42.3613V41.8164C120 41.3828 119.918 40.9785 119.754 40.6035C119.59 40.2168 119.367 39.8828 119.086 39.6016C118.805 39.3203 118.471 39.0977 118.084 38.9336C117.709 38.7695 117.305 38.6875 116.871 38.6875H115.605C115.172 38.6875 114.762 38.752 114.375 38.8809C114 39.0098 113.672 39.1973 113.391 39.4434C113.109 39.6777 112.887 39.9648 112.723 40.3047C112.559 40.6445 112.477 41.0312 112.477 41.4648C112.477 42.0859 112.617 42.5957 112.898 42.9941C113.18 43.3809 113.549 43.709 114.006 43.9785C114.475 44.248 115.002 44.4766 115.588 44.6641C116.186 44.8398 116.789 45.0273 117.398 45.2266C118.02 45.4141 118.623 45.6309 119.209 45.877C119.807 46.123 120.334 46.4395 120.791 46.8262C121.26 47.2129 121.635 47.6992 121.916 48.2852C122.197 48.8594 122.338 49.5742 122.338 50.4297ZM138.51 50.0605C138.51 50.7871 138.369 51.4727 138.088 52.1172C137.818 52.7617 137.443 53.3242 136.963 53.8047C136.482 54.2852 135.92 54.666 135.275 54.9473C134.631 55.2168 133.945 55.3516 133.219 55.3516H131.777C131.051 55.3516 130.365 55.2168 129.721 54.9473C129.076 54.666 128.514 54.2852 128.033 53.8047C127.553 53.3242 127.172 52.7617 126.891 52.1172C126.621 51.4727 126.486 50.7871 126.486 50.0605V41.9395C126.486 41.2129 126.621 40.5273 126.891 39.8828C127.172 39.2383 127.553 38.6758 128.033 38.1953C128.514 37.7148 129.076 37.3398 129.721 37.0703C130.365 36.7891 131.051 36.6484 131.777 36.6484H133.219C133.945 36.6484 134.631 36.7891 135.275 37.0703C135.92 37.3398 136.482 37.7148 136.963 38.1953C137.443 38.6758 137.818 39.2383 138.088 39.8828C138.369 40.5273 138.51 41.2129 138.51 41.9395V46.1758H128.648V50.1836C128.648 50.6172 128.73 51.0273 128.895 51.4141C129.059 51.7891 129.281 52.1172 129.562 52.3984C129.844 52.6797 130.172 52.9023 130.547 53.0664C130.934 53.2305 131.344 53.3125 131.777 53.3125H133.219C133.652 53.3125 134.057 53.2305 134.432 53.0664C134.818 52.9023 135.152 52.6797 135.434 52.3984C135.715 52.1172 135.938 51.7891 136.102 51.4141C136.266 51.0273 136.348 50.6172 136.348 50.1836V48.9883L138.51 49.3398V50.0605ZM136.348 41.8164C136.348 41.3828 136.266 40.9785 136.102 40.6035C135.938 40.2168 135.715 39.8828 135.434 39.6016C135.152 39.3203 134.818 39.0977 134.432 38.9336C134.057 38.7695 133.652 38.6875 133.219 38.6875H131.777C131.344 38.6875 130.934 38.7695 130.547 38.9336C130.172 39.0977 129.844 39.3203 129.562 39.6016C129.281 39.8828 129.059 40.2168 128.895 40.6035C128.73 40.9785 128.648 41.3828 128.648 41.8164V44.4883H136.348V41.8164ZM166.037 39.127C166.037 39.9824 165.873 40.7852 165.545 41.5352C165.229 42.2852 164.789 42.9414 164.227 43.5039C163.664 44.0664 163.002 44.5117 162.24 44.8398C161.49 45.1562 160.688 45.3145 159.832 45.3145H154.119V55H151.852V29.793H159.832C160.688 29.793 161.49 29.957 162.24 30.2852C163.002 30.6016 163.664 31.041 164.227 31.6035C164.789 32.166 165.229 32.8281 165.545 33.5898C165.873 34.3398 166.037 35.1426 166.037 35.998V39.127ZM163.77 35.998C163.77 35.4355 163.664 34.9141 163.453 34.4336C163.242 33.9414 162.949 33.5137 162.574 33.1504C162.211 32.7754 161.783 32.4824 161.291 32.2715C160.811 32.0605 160.289 31.9551 159.727 31.9551H154.119V43.1523H159.727C160.289 43.1523 160.811 43.0469 161.291 42.8359C161.783 42.625 162.211 42.3379 162.574 41.9746C162.949 41.6113 163.242 41.1895 163.453 40.709C163.664 40.2168 163.77 39.6895 163.77 39.127V35.998ZM174.949 39.0566C174.516 39.0566 174.105 39.1387 173.719 39.3027C173.344 39.4668 173.016 39.6895 172.734 39.9707C172.453 40.252 172.23 40.5859 172.066 40.9727C171.902 41.3477 171.82 41.752 171.82 42.1855V55H169.658V37H170.379L171.557 38.8281C172.049 38.1602 172.664 37.6328 173.402 37.2461C174.152 36.8477 174.967 36.6484 175.846 36.6484H177.111V39.0566H174.949ZM192.018 50.0605C192.018 50.7871 191.877 51.4727 191.596 52.1172C191.326 52.7617 190.951 53.3242 190.471 53.8047C189.99 54.2852 189.428 54.666 188.783 54.9473C188.139 55.2168 187.453 55.3516 186.727 55.3516H185.285C184.559 55.3516 183.873 55.2168 183.229 54.9473C182.584 54.666 182.021 54.2852 181.541 53.8047C181.061 53.3242 180.68 52.7617 180.398 52.1172C180.129 51.4727 179.994 50.7871 179.994 50.0605V41.9395C179.994 41.2129 180.129 40.5273 180.398 39.8828C180.68 39.2383 181.061 38.6758 181.541 38.1953C182.021 37.7148 182.584 37.3398 183.229 37.0703C183.873 36.7891 184.559 36.6484 185.285 36.6484H186.727C187.453 36.6484 188.139 36.7891 188.783 37.0703C189.428 37.3398 189.99 37.7148 190.471 38.1953C190.951 38.6758 191.326 39.2383 191.596 39.8828C191.877 40.5273 192.018 41.2129 192.018 41.9395V50.0605ZM189.855 41.8164C189.855 41.3828 189.773 40.9785 189.609 40.6035C189.445 40.2168 189.223 39.8828 188.941 39.6016C188.66 39.3203 188.326 39.0977 187.939 38.9336C187.564 38.7695 187.16 38.6875 186.727 38.6875H185.285C184.852 38.6875 184.441 38.7695 184.055 38.9336C183.68 39.0977 183.352 39.3203 183.07 39.6016C182.789 39.8828 182.566 40.2168 182.402 40.6035C182.238 40.9785 182.156 41.3828 182.156 41.8164V50.1836C182.156 50.6172 182.238 51.0273 182.402 51.4141C182.566 51.7891 182.789 52.1172 183.07 52.3984C183.352 52.6797 183.68 52.9023 184.055 53.0664C184.441 53.2305 184.852 53.3125 185.285 53.3125H186.727C187.16 53.3125 187.564 53.2305 187.939 53.0664C188.326 52.9023 188.66 52.6797 188.941 52.3984C189.223 52.1172 189.445 51.7891 189.609 51.4141C189.773 51.0273 189.855 50.6172 189.855 50.1836V41.8164ZM202.529 31.8496C202.166 31.8496 201.826 31.9199 201.51 32.0605C201.205 32.1895 200.936 32.3711 200.701 32.6055C200.467 32.8398 200.279 33.1152 200.139 33.4316C200.01 33.748 199.945 34.0879 199.945 34.4512V37H204.146V39.0566H199.945V55H197.783V39.0566H194.531V37H197.783V34.5566C197.783 33.9004 197.906 33.2852 198.152 32.7109C198.398 32.125 198.738 31.6152 199.172 31.1816C199.605 30.748 200.109 30.4082 200.684 30.1621C201.258 29.916 201.873 29.793 202.529 29.793H204.516V31.8496H202.529ZM207.223 32.6758V29.793H209.736V32.6758H207.223ZM207.398 55V37H209.561V55H207.398ZM221.18 55C220.523 55 219.902 54.877 219.316 54.6309C218.742 54.3848 218.238 54.0449 217.805 53.6113C217.383 53.1777 217.043 52.6738 216.785 52.0996C216.539 51.5254 216.416 50.9102 216.416 50.2539V39.0566H213.182V37H216.416V32.6758L218.578 32.3242V37H223.148V39.0566H218.578V50.3594C218.578 50.7227 218.643 51.0625 218.771 51.3789C218.912 51.6836 219.1 51.9531 219.334 52.1875C219.568 52.4219 219.844 52.6094 220.16 52.75C220.477 52.8789 220.816 52.9434 221.18 52.9434H223.148V55H221.18Z" fill="#EDF2F4"/>
</svg>
