<svg width="50" height="60" viewBox="0 0 50 60" fill="none" xmlns="http://www.w3.org/2000/svg">
<path d="M30 10.5461C41.0232 10.5461 50 19.5265 50 30.5753C50 41.6009 41.0232 50.5814 30 50.5814C18.9768 50.5814 10 41.6009 10 30.5753C10 19.5265 18.9768 10.5461 30 10.5461ZM27.722 22.6165C27.2973 22.6165 26.8919 22.7131 26.5058 22.9062C26.0232 23.1766 25.6371 23.6015 25.4247 24.1036C25.2896 24.4512 25.0772 25.4941 25.0772 25.5134C24.8649 26.6529 24.749 28.5069 24.749 30.5541C24.749 32.5066 24.8649 34.2814 25.0386 35.4402C25.0579 35.4595 25.2703 36.7534 25.5019 37.1976C25.9266 38.0088 26.7568 38.5109 27.6448 38.5109H27.722C28.3012 38.4916 29.5174 37.9895 29.5174 37.9701C31.5637 37.1204 35.5985 34.4745 37.2201 32.7171L37.3359 32.6012C37.5483 32.3888 37.8185 32.0605 37.8764 31.9832C38.1853 31.5776 38.3398 31.0755 38.3398 30.5753C38.3398 30.0133 38.166 29.4919 37.8378 29.067C37.7606 28.9897 37.471 28.6614 37.2008 28.391C35.6178 26.6915 31.4865 23.9105 29.3243 23.0607C28.9961 22.9275 28.166 22.6358 27.722 22.6165Z" fill="#8D99AE"/>
<path fill-rule="evenodd" clip-rule="evenodd" d="M30 0C13.4315 0 0 13.4315 0 30C0 46.5685 13.4315 60 30 60V56C15.6406 56 4 44.3594 4 30C4 15.6406 15.6406 4 30 4V0Z" fill="#EF233C"/>
</svg>
