<svg width="154" height="10" viewBox="0 0 154 10" fill="none" xmlns="http://www.w3.org/2000/svg">
<path d="M5.1123 8V3.2002L5.06836 3.49805L3.44238 8H3.11035L1.46973 3.49805L1.43066 3.2002V8H0.800781V0.998047H1.12793L3.25195 6.74023L3.27148 6.99902L3.29102 6.74023L5.41016 0.998047H5.74219V8H5.1123ZM10.1855 8L9.85352 7.50195C9.7168 7.68099 9.5459 7.82585 9.34082 7.93652C9.13574 8.04395 8.91113 8.09766 8.66699 8.09766H8.51562C8.3138 8.09766 8.12337 8.06022 7.94434 7.98535C7.7653 7.90723 7.60905 7.80143 7.47559 7.66797C7.34212 7.53451 7.23633 7.37826 7.1582 7.19922C7.08333 7.02018 7.0459 6.82975 7.0459 6.62793V6.5791C7.0459 6.37728 7.08333 6.18685 7.1582 6.00781C7.23633 5.82878 7.34212 5.67253 7.47559 5.53906C7.60905 5.4056 7.7653 5.30143 7.94434 5.22656C8.12337 5.14844 8.3138 5.10938 8.51562 5.10938H9.78516V4.33789C9.78516 4.21745 9.76237 4.10514 9.7168 4.00098C9.67122 3.89355 9.60938 3.80078 9.53125 3.72266C9.45312 3.64453 9.36035 3.58268 9.25293 3.53711C9.14876 3.49154 9.03646 3.46875 8.91602 3.46875H8.56445C8.44401 3.46875 8.33008 3.49154 8.22266 3.53711C8.11849 3.58268 8.02734 3.64453 7.94922 3.72266C7.87109 3.80078 7.80924 3.89355 7.76367 4.00098C7.7181 4.10514 7.69531 4.21745 7.69531 4.33789V4.51855L7.09473 4.4209V4.37207C7.09473 4.17025 7.13216 3.97982 7.20703 3.80078C7.28516 3.62174 7.39095 3.46549 7.52441 3.33203C7.65788 3.19857 7.81413 3.0944 7.99316 3.01953C8.1722 2.94141 8.36263 2.90234 8.56445 2.90234H8.91602C9.11784 2.90234 9.30827 2.94141 9.4873 3.01953C9.66634 3.0944 9.82259 3.19857 9.95605 3.33203C10.0895 3.46549 10.1937 3.62174 10.2686 3.80078C10.3467 3.97982 10.3857 4.17025 10.3857 4.37207V8H10.1855ZM9.78516 5.57812H8.51562C8.39518 5.57812 8.28125 5.60091 8.17383 5.64648C8.06966 5.69206 7.97852 5.75553 7.90039 5.83691C7.82227 5.91504 7.76042 6.00781 7.71484 6.11523C7.66927 6.2194 7.64648 6.33171 7.64648 6.45215V6.66211C7.64648 6.78255 7.66927 6.89648 7.71484 7.00391C7.76042 7.10807 7.82227 7.19922 7.90039 7.27734C7.97852 7.35547 8.06966 7.41732 8.17383 7.46289C8.28125 7.50846 8.39518 7.53125 8.51562 7.53125H8.91602C9.03646 7.53125 9.14876 7.50846 9.25293 7.46289C9.36035 7.41732 9.45312 7.35547 9.53125 7.27734C9.60938 7.19922 9.67122 7.10807 9.7168 7.00391C9.76237 6.89648 9.78516 6.78255 9.78516 6.66211V5.57812ZM14.3262 8V4.33789C14.3262 4.21745 14.3034 4.10514 14.2578 4.00098C14.2122 3.89355 14.1504 3.80078 14.0723 3.72266C13.9941 3.64453 13.9014 3.58268 13.7939 3.53711C13.6898 3.49154 13.5775 3.46875 13.457 3.46875H13.0566C12.9362 3.46875 12.8223 3.49154 12.7148 3.53711C12.6107 3.58268 12.5195 3.64453 12.4414 3.72266C12.3633 3.80078 12.3014 3.89355 12.2559 4.00098C12.2103 4.10514 12.1875 4.21745 12.1875 4.33789V8H11.5869V3H11.7871L12.1143 3.50781C12.251 3.32227 12.4219 3.17578 12.627 3.06836C12.8353 2.95768 13.0615 2.90234 13.3057 2.90234H13.457C13.6589 2.90234 13.8493 2.94141 14.0283 3.01953C14.2074 3.0944 14.3636 3.19857 14.4971 3.33203C14.6305 3.46549 14.7347 3.62174 14.8096 3.80078C14.8877 3.97982 14.9268 4.17025 14.9268 4.37207V8H14.3262ZM19.2676 8L18.9355 7.50195C18.7988 7.68099 18.6279 7.82585 18.4229 7.93652C18.2178 8.04395 17.9932 8.09766 17.749 8.09766H17.5977C17.3958 8.09766 17.2054 8.06022 17.0264 7.98535C16.8473 7.90723 16.6911 7.80143 16.5576 7.66797C16.4242 7.53451 16.3184 7.37826 16.2402 7.19922C16.1654 7.02018 16.1279 6.82975 16.1279 6.62793V6.5791C16.1279 6.37728 16.1654 6.18685 16.2402 6.00781C16.3184 5.82878 16.4242 5.67253 16.5576 5.53906C16.6911 5.4056 16.8473 5.30143 17.0264 5.22656C17.2054 5.14844 17.3958 5.10938 17.5977 5.10938H18.8672V4.33789C18.8672 4.21745 18.8444 4.10514 18.7988 4.00098C18.7533 3.89355 18.6914 3.80078 18.6133 3.72266C18.5352 3.64453 18.4424 3.58268 18.335 3.53711C18.2308 3.49154 18.1185 3.46875 17.998 3.46875H17.6465C17.526 3.46875 17.4121 3.49154 17.3047 3.53711C17.2005 3.58268 17.1094 3.64453 17.0312 3.72266C16.9531 3.80078 16.8913 3.89355 16.8457 4.00098C16.8001 4.10514 16.7773 4.21745 16.7773 4.33789V4.51855L16.1768 4.4209V4.37207C16.1768 4.17025 16.2142 3.97982 16.2891 3.80078C16.3672 3.62174 16.473 3.46549 16.6064 3.33203C16.7399 3.19857 16.8962 3.0944 17.0752 3.01953C17.2542 2.94141 17.4447 2.90234 17.6465 2.90234H17.998C18.1999 2.90234 18.3903 2.94141 18.5693 3.01953C18.7484 3.0944 18.9046 3.19857 19.0381 3.33203C19.1715 3.46549 19.2757 3.62174 19.3506 3.80078C19.4287 3.97982 19.4678 4.17025 19.4678 4.37207V8H19.2676ZM18.8672 5.57812H17.5977C17.4772 5.57812 17.3633 5.60091 17.2559 5.64648C17.1517 5.69206 17.0605 5.75553 16.9824 5.83691C16.9043 5.91504 16.8424 6.00781 16.7969 6.11523C16.7513 6.2194 16.7285 6.33171 16.7285 6.45215V6.66211C16.7285 6.78255 16.7513 6.89648 16.7969 7.00391C16.8424 7.10807 16.9043 7.19922 16.9824 7.27734C17.0605 7.35547 17.1517 7.41732 17.2559 7.46289C17.3633 7.50846 17.4772 7.53125 17.5977 7.53125H17.998C18.1185 7.53125 18.2308 7.50846 18.335 7.46289C18.4424 7.41732 18.5352 7.35547 18.6133 7.27734C18.6914 7.19922 18.7533 7.10807 18.7988 7.00391C18.8444 6.89648 18.8672 6.78255 18.8672 6.66211V5.57812ZM24.0576 8.62988C24.0576 8.83171 24.0186 9.01725 23.9404 9.18652C23.8656 9.35579 23.7614 9.50065 23.6279 9.62109C23.4945 9.74154 23.3382 9.83431 23.1592 9.89941C22.9801 9.96777 22.7897 10.002 22.5879 10.002H22.3389C22.137 10.002 21.9466 9.96777 21.7676 9.89941C21.5885 9.83431 21.4323 9.74154 21.2988 9.62109C21.1654 9.50065 21.0596 9.35579 20.9814 9.18652C20.9066 9.01725 20.8691 8.83171 20.8691 8.62988V8.61035C20.8691 8.41504 20.9049 8.236 20.9766 8.07324C21.0482 7.91048 21.1458 7.76888 21.2695 7.64844C21.1133 7.55404 20.988 7.42708 20.8936 7.26758C20.8024 7.10482 20.7568 6.92578 20.7568 6.73047C20.7568 6.55469 20.7943 6.39193 20.8691 6.24219C20.944 6.08919 21.0465 5.96549 21.1768 5.87109C21.0205 5.73438 20.8968 5.56999 20.8057 5.37793C20.7145 5.18587 20.6689 4.97591 20.6689 4.74805V4.37207C20.6689 4.17025 20.7064 3.97982 20.7812 3.80078C20.8594 3.62174 20.9652 3.46549 21.0986 3.33203C21.2321 3.19857 21.3883 3.0944 21.5674 3.01953C21.7464 2.94141 21.9368 2.90234 22.1387 2.90234H22.3877C22.6318 2.90234 22.8564 2.95768 23.0615 3.06836C23.2699 3.17578 23.4424 3.32227 23.5791 3.50781L23.9062 3H24.1064V4.74805C24.1064 4.94987 24.0674 5.1403 23.9893 5.31934C23.9144 5.49837 23.8102 5.65462 23.6768 5.78809C23.5433 5.92155 23.387 6.02734 23.208 6.10547C23.029 6.18034 22.8385 6.21777 22.6367 6.21777H21.7676C21.6992 6.21777 21.6341 6.23242 21.5723 6.26172C21.5104 6.28776 21.4551 6.32357 21.4062 6.36914C21.3607 6.41471 21.3249 6.47005 21.2988 6.53516C21.2728 6.59701 21.2598 6.66211 21.2598 6.73047C21.2598 6.79883 21.2728 6.86393 21.2988 6.92578C21.3249 6.98763 21.3607 7.04297 21.4062 7.0918C21.4551 7.13737 21.5104 7.17318 21.5723 7.19922C21.6341 7.22526 21.6992 7.23828 21.7676 7.23828H22.5879C22.7897 7.23828 22.9801 7.27246 23.1592 7.34082C23.3382 7.40592 23.4945 7.4987 23.6279 7.61914C23.7614 7.73958 23.8656 7.88444 23.9404 8.05371C24.0186 8.22298 24.0576 8.40853 24.0576 8.61035V8.62988ZM23.5107 4.33789C23.5107 4.21745 23.488 4.10514 23.4424 4.00098C23.3968 3.89355 23.3333 3.80078 23.252 3.72266C23.1738 3.64453 23.0811 3.58268 22.9736 3.53711C22.8695 3.49154 22.7572 3.46875 22.6367 3.46875H22.1387C22.0182 3.46875 21.9043 3.49154 21.7969 3.53711C21.6927 3.58268 21.6016 3.64453 21.5234 3.72266C21.4453 3.80078 21.3835 3.89355 21.3379 4.00098C21.2923 4.10514 21.2695 4.21745 21.2695 4.33789V4.78223C21.2695 4.90267 21.2923 5.0166 21.3379 5.12402C21.3835 5.22819 21.4453 5.31934 21.5234 5.39746C21.6016 5.47559 21.6927 5.53743 21.7969 5.58301C21.9043 5.62858 22.0182 5.65137 22.1387 5.65137H22.6367C22.7572 5.65137 22.8695 5.62858 22.9736 5.58301C23.0811 5.53743 23.1738 5.47559 23.252 5.39746C23.3333 5.31934 23.3968 5.22819 23.4424 5.12402C23.488 5.0166 23.5107 4.90267 23.5107 4.78223V4.33789ZM23.4863 8.58105C23.4863 8.46061 23.4635 8.35156 23.418 8.25391C23.3724 8.15951 23.3105 8.07975 23.2324 8.01465C23.1543 7.94954 23.0615 7.89909 22.9541 7.86328C22.8499 7.82747 22.7376 7.80957 22.6172 7.80957H22.3096C22.1891 7.80957 22.0752 7.82747 21.9678 7.86328C21.8636 7.89909 21.7725 7.94954 21.6943 8.01465C21.6162 8.07975 21.5544 8.15951 21.5088 8.25391C21.4632 8.35156 21.4404 8.46061 21.4404 8.58105V8.65918C21.4404 8.77962 21.4632 8.88704 21.5088 8.98145C21.5544 9.07585 21.6162 9.1556 21.6943 9.2207C21.7725 9.28906 21.8636 9.34115 21.9678 9.37695C22.0752 9.41276 22.1891 9.43066 22.3096 9.43066H22.6172C22.7376 9.43066 22.8499 9.41276 22.9541 9.37695C23.0615 9.34115 23.1543 9.28906 23.2324 9.2207C23.3105 9.1556 23.3724 9.07585 23.418 8.98145C23.4635 8.88704 23.4863 8.77962 23.4863 8.65918V8.58105ZM28.5498 6.62793C28.5498 6.82975 28.5107 7.02018 28.4326 7.19922C28.3577 7.37826 28.2536 7.53451 28.1201 7.66797C27.9867 7.80143 27.8304 7.90723 27.6514 7.98535C27.4723 8.06022 27.2819 8.09766 27.0801 8.09766H26.6797C26.4779 8.09766 26.2874 8.06022 26.1084 7.98535C25.9294 7.90723 25.7731 7.80143 25.6396 7.66797C25.5062 7.53451 25.4004 7.37826 25.3223 7.19922C25.2474 7.02018 25.21 6.82975 25.21 6.62793V4.37207C25.21 4.17025 25.2474 3.97982 25.3223 3.80078C25.4004 3.62174 25.5062 3.46549 25.6396 3.33203C25.7731 3.19857 25.9294 3.0944 26.1084 3.01953C26.2874 2.94141 26.4779 2.90234 26.6797 2.90234H27.0801C27.2819 2.90234 27.4723 2.94141 27.6514 3.01953C27.8304 3.0944 27.9867 3.19857 28.1201 3.33203C28.2536 3.46549 28.3577 3.62174 28.4326 3.80078C28.5107 3.97982 28.5498 4.17025 28.5498 4.37207V5.54883H25.8105V6.66211C25.8105 6.78255 25.8333 6.89648 25.8789 7.00391C25.9245 7.10807 25.9863 7.19922 26.0645 7.27734C26.1426 7.35547 26.2337 7.41732 26.3379 7.46289C26.4453 7.50846 26.5592 7.53125 26.6797 7.53125H27.0801C27.2005 7.53125 27.3128 7.50846 27.417 7.46289C27.5244 7.41732 27.6172 7.35547 27.6953 7.27734C27.7734 7.19922 27.8353 7.10807 27.8809 7.00391C27.9264 6.89648 27.9492 6.78255 27.9492 6.66211V6.33008L28.5498 6.42773V6.62793ZM27.9492 4.33789C27.9492 4.21745 27.9264 4.10514 27.8809 4.00098C27.8353 3.89355 27.7734 3.80078 27.6953 3.72266C27.6172 3.64453 27.5244 3.58268 27.417 3.53711C27.3128 3.49154 27.2005 3.46875 27.0801 3.46875H26.6797C26.5592 3.46875 26.4453 3.49154 26.3379 3.53711C26.2337 3.58268 26.1426 3.64453 26.0645 3.72266C25.9863 3.80078 25.9245 3.89355 25.8789 4.00098C25.8333 4.10514 25.8105 4.21745 25.8105 4.33789V5.08008H27.9492V4.33789ZM32.8662 10.002H32.2852L33.1738 7.57031L31.5527 3H32.1533L33.457 6.78906L33.4766 7.04785L33.4961 6.78906L34.7949 3H35.3955L32.8662 10.002ZM39.3408 6.62793C39.3408 6.82975 39.3018 7.02018 39.2236 7.19922C39.1488 7.37826 39.0446 7.53451 38.9111 7.66797C38.7777 7.80143 38.6214 7.90723 38.4424 7.98535C38.2633 8.06022 38.0729 8.09766 37.8711 8.09766H37.4707C37.2689 8.09766 37.0785 8.06022 36.8994 7.98535C36.7204 7.90723 36.5641 7.80143 36.4307 7.66797C36.2972 7.53451 36.1914 7.37826 36.1133 7.19922C36.0384 7.02018 36.001 6.82975 36.001 6.62793V4.37207C36.001 4.17025 36.0384 3.97982 36.1133 3.80078C36.1914 3.62174 36.2972 3.46549 36.4307 3.33203C36.5641 3.19857 36.7204 3.0944 36.8994 3.01953C37.0785 2.94141 37.2689 2.90234 37.4707 2.90234H37.8711C38.0729 2.90234 38.2633 2.94141 38.4424 3.01953C38.6214 3.0944 38.7777 3.19857 38.9111 3.33203C39.0446 3.46549 39.1488 3.62174 39.2236 3.80078C39.3018 3.97982 39.3408 4.17025 39.3408 4.37207V6.62793ZM38.7402 4.33789C38.7402 4.21745 38.7174 4.10514 38.6719 4.00098C38.6263 3.89355 38.5645 3.80078 38.4863 3.72266C38.4082 3.64453 38.3154 3.58268 38.208 3.53711C38.1038 3.49154 37.9915 3.46875 37.8711 3.46875H37.4707C37.3503 3.46875 37.2363 3.49154 37.1289 3.53711C37.0247 3.58268 36.9336 3.64453 36.8555 3.72266C36.7773 3.80078 36.7155 3.89355 36.6699 4.00098C36.6243 4.10514 36.6016 4.21745 36.6016 4.33789V6.66211C36.6016 6.78255 36.6243 6.89648 36.6699 7.00391C36.7155 7.10807 36.7773 7.19922 36.8555 7.27734C36.9336 7.35547 37.0247 7.41732 37.1289 7.46289C37.2363 7.50846 37.3503 7.53125 37.4707 7.53125H37.8711C37.9915 7.53125 38.1038 7.50846 38.208 7.46289C38.3154 7.41732 38.4082 7.35547 38.4863 7.27734C38.5645 7.19922 38.6263 7.10807 38.6719 7.00391C38.7174 6.89648 38.7402 6.78255 38.7402 6.66211V4.33789ZM43.6816 8L43.3496 7.49219C43.2129 7.67773 43.042 7.82585 42.8369 7.93652C42.6318 8.04395 42.4072 8.09766 42.1631 8.09766H42.0117C41.8099 8.09766 41.6195 8.06022 41.4404 7.98535C41.2614 7.90723 41.1051 7.80143 40.9717 7.66797C40.8382 7.53451 40.7324 7.37826 40.6543 7.19922C40.5794 7.02018 40.542 6.82975 40.542 6.62793V3H41.1426V6.66211C41.1426 6.78255 41.1654 6.89648 41.2109 7.00391C41.2565 7.10807 41.3184 7.19922 41.3965 7.27734C41.4746 7.35547 41.5658 7.41732 41.6699 7.46289C41.7773 7.50846 41.8913 7.53125 42.0117 7.53125H42.4121C42.5326 7.53125 42.6449 7.50846 42.749 7.46289C42.8564 7.41732 42.9492 7.35547 43.0273 7.27734C43.1055 7.19922 43.1673 7.10807 43.2129 7.00391C43.2585 6.89648 43.2812 6.78255 43.2812 6.66211V3H43.8818V8H43.6816ZM46.5527 3.57129C46.4323 3.57129 46.3184 3.59408 46.2109 3.63965C46.1068 3.68522 46.0156 3.74707 45.9375 3.8252C45.8594 3.90332 45.7975 3.99609 45.752 4.10352C45.7064 4.20768 45.6836 4.31999 45.6836 4.44043V8H45.083V3H45.2832L45.6104 3.50781C45.7471 3.32227 45.918 3.17578 46.123 3.06836C46.3314 2.95768 46.5576 2.90234 46.8018 2.90234H47.1533V3.57129H46.5527ZM51.7285 3.57129C51.6081 3.57129 51.4941 3.59408 51.3867 3.63965C51.2826 3.68522 51.1914 3.74707 51.1133 3.8252C51.0352 3.90332 50.9733 3.99609 50.9277 4.10352C50.8822 4.20768 50.8594 4.31999 50.8594 4.44043V8H50.2588V3H50.459L50.7861 3.50781C50.9229 3.32227 51.0938 3.17578 51.2988 3.06836C51.5072 2.95768 51.7334 2.90234 51.9775 2.90234H52.3291V3.57129H51.7285ZM56.4697 6.62793C56.4697 6.82975 56.4307 7.02018 56.3525 7.19922C56.2777 7.37826 56.1735 7.53451 56.04 7.66797C55.9066 7.80143 55.7503 7.90723 55.5713 7.98535C55.3923 8.06022 55.2018 8.09766 55 8.09766H54.5996C54.3978 8.09766 54.2074 8.06022 54.0283 7.98535C53.8493 7.90723 53.693 7.80143 53.5596 7.66797C53.4261 7.53451 53.3203 7.37826 53.2422 7.19922C53.1673 7.02018 53.1299 6.82975 53.1299 6.62793V4.37207C53.1299 4.17025 53.1673 3.97982 53.2422 3.80078C53.3203 3.62174 53.4261 3.46549 53.5596 3.33203C53.693 3.19857 53.8493 3.0944 54.0283 3.01953C54.2074 2.94141 54.3978 2.90234 54.5996 2.90234H55C55.2018 2.90234 55.3923 2.94141 55.5713 3.01953C55.7503 3.0944 55.9066 3.19857 56.04 3.33203C56.1735 3.46549 56.2777 3.62174 56.3525 3.80078C56.4307 3.97982 56.4697 4.17025 56.4697 4.37207V5.54883H53.7305V6.66211C53.7305 6.78255 53.7533 6.89648 53.7988 7.00391C53.8444 7.10807 53.9062 7.19922 53.9844 7.27734C54.0625 7.35547 54.1536 7.41732 54.2578 7.46289C54.3652 7.50846 54.4792 7.53125 54.5996 7.53125H55C55.1204 7.53125 55.2327 7.50846 55.3369 7.46289C55.4443 7.41732 55.5371 7.35547 55.6152 7.27734C55.6934 7.19922 55.7552 7.10807 55.8008 7.00391C55.8464 6.89648 55.8691 6.78255 55.8691 6.66211V6.33008L56.4697 6.42773V6.62793ZM55.8691 4.33789C55.8691 4.21745 55.8464 4.10514 55.8008 4.00098C55.7552 3.89355 55.6934 3.80078 55.6152 3.72266C55.5371 3.64453 55.4443 3.58268 55.3369 3.53711C55.2327 3.49154 55.1204 3.46875 55 3.46875H54.5996C54.4792 3.46875 54.3652 3.49154 54.2578 3.53711C54.1536 3.58268 54.0625 3.64453 53.9844 3.72266C53.9062 3.80078 53.8444 3.89355 53.7988 4.00098C53.7533 4.10514 53.7305 4.21745 53.7305 4.33789V5.08008H55.8691V4.33789ZM61.1084 6.73047C61.1084 6.93229 61.0677 7.11784 60.9863 7.28711C60.9049 7.45312 60.7943 7.59635 60.6543 7.7168C60.5143 7.83724 60.3516 7.93164 60.166 8C59.9837 8.0651 59.7917 8.09766 59.5898 8.09766H59.1895C58.9876 8.09766 58.7939 8.06022 58.6084 7.98535C58.4261 7.90723 58.265 7.80143 58.125 7.66797C57.9883 7.53451 57.8776 7.37826 57.793 7.19922C57.7116 7.02018 57.6709 6.82975 57.6709 6.62793V6.42773L58.2715 6.33008V6.66211C58.2715 6.78255 58.2959 6.89648 58.3447 7.00391C58.3968 7.10807 58.4652 7.19922 58.5498 7.27734C58.6344 7.35547 58.7321 7.41732 58.8428 7.46289C58.9535 7.50846 59.069 7.53125 59.1895 7.53125H59.5898C59.7103 7.53125 59.8258 7.51335 59.9365 7.47754C60.0472 7.44173 60.1449 7.39128 60.2295 7.32617C60.3174 7.25781 60.3857 7.17643 60.4346 7.08203C60.4867 6.98763 60.5127 6.88021 60.5127 6.75977C60.5127 6.58073 60.4736 6.43424 60.3955 6.32031C60.3174 6.20638 60.2132 6.11198 60.083 6.03711C59.9561 5.95898 59.8096 5.89551 59.6436 5.84668C59.4808 5.7946 59.3132 5.74414 59.1406 5.69531C58.9681 5.64323 58.7988 5.58464 58.6328 5.51953C58.4701 5.45443 58.3236 5.36979 58.1934 5.26562C58.0664 5.1582 57.9639 5.02474 57.8857 4.86523C57.8076 4.70573 57.7686 4.50716 57.7686 4.26953C57.7686 4.06771 57.8076 3.88379 57.8857 3.71777C57.9639 3.5485 58.0697 3.40365 58.2031 3.2832C58.3366 3.16276 58.4912 3.06999 58.667 3.00488C58.846 2.93652 59.0365 2.90234 59.2383 2.90234H59.5898C59.7917 2.90234 59.9821 2.94141 60.1611 3.01953C60.3402 3.0944 60.4964 3.19857 60.6299 3.33203C60.7633 3.46549 60.8675 3.62174 60.9424 3.80078C61.0205 3.97982 61.0596 4.17025 61.0596 4.37207V4.3916L60.459 4.48926V4.33789C60.459 4.21745 60.4362 4.10514 60.3906 4.00098C60.3451 3.89355 60.2832 3.80078 60.2051 3.72266C60.127 3.64453 60.0342 3.58268 59.9268 3.53711C59.8226 3.49154 59.7103 3.46875 59.5898 3.46875H59.2383C59.1178 3.46875 59.0039 3.48665 58.8965 3.52246C58.7923 3.55827 58.7012 3.61035 58.623 3.67871C58.5449 3.74382 58.4831 3.82357 58.4375 3.91797C58.3919 4.01237 58.3691 4.11979 58.3691 4.24023C58.3691 4.41276 58.4082 4.55436 58.4863 4.66504C58.5645 4.77246 58.667 4.86361 58.7939 4.93848C58.9242 5.01335 59.0706 5.07682 59.2334 5.12891C59.3994 5.17773 59.5671 5.22982 59.7363 5.28516C59.9089 5.33724 60.0765 5.39746 60.2393 5.46582C60.4053 5.53418 60.5518 5.62207 60.6787 5.72949C60.8089 5.83691 60.9131 5.97201 60.9912 6.13477C61.0693 6.29427 61.1084 6.49284 61.1084 6.73047ZM64.082 8C63.8997 8 63.7272 7.96582 63.5645 7.89746C63.4049 7.8291 63.265 7.7347 63.1445 7.61426C63.0273 7.49382 62.9329 7.35384 62.8613 7.19434C62.793 7.03483 62.7588 6.86393 62.7588 6.68164V3.57129H61.8604V3H62.7588V1.79883L63.3594 1.70117V3H64.6289V3.57129H63.3594V6.71094C63.3594 6.81185 63.3773 6.90625 63.4131 6.99414C63.4521 7.07878 63.5042 7.15365 63.5693 7.21875C63.6344 7.28385 63.7109 7.33594 63.7988 7.375C63.8867 7.41081 63.9811 7.42871 64.082 7.42871H64.6289V8H64.082ZM68.877 8L68.5449 7.50195C68.4082 7.68099 68.2373 7.82585 68.0322 7.93652C67.8271 8.04395 67.6025 8.09766 67.3584 8.09766H67.207C67.0052 8.09766 66.8148 8.06022 66.6357 7.98535C66.4567 7.90723 66.3005 7.80143 66.167 7.66797C66.0335 7.53451 65.9277 7.37826 65.8496 7.19922C65.7747 7.02018 65.7373 6.82975 65.7373 6.62793V6.5791C65.7373 6.37728 65.7747 6.18685 65.8496 6.00781C65.9277 5.82878 66.0335 5.67253 66.167 5.53906C66.3005 5.4056 66.4567 5.30143 66.6357 5.22656C66.8148 5.14844 67.0052 5.10938 67.207 5.10938H68.4766V4.33789C68.4766 4.21745 68.4538 4.10514 68.4082 4.00098C68.3626 3.89355 68.3008 3.80078 68.2227 3.72266C68.1445 3.64453 68.0518 3.58268 67.9443 3.53711C67.8402 3.49154 67.7279 3.46875 67.6074 3.46875H67.2559C67.1354 3.46875 67.0215 3.49154 66.9141 3.53711C66.8099 3.58268 66.7188 3.64453 66.6406 3.72266C66.5625 3.80078 66.5007 3.89355 66.4551 4.00098C66.4095 4.10514 66.3867 4.21745 66.3867 4.33789V4.51855L65.7861 4.4209V4.37207C65.7861 4.17025 65.8236 3.97982 65.8984 3.80078C65.9766 3.62174 66.0824 3.46549 66.2158 3.33203C66.3493 3.19857 66.5055 3.0944 66.6846 3.01953C66.8636 2.94141 67.054 2.90234 67.2559 2.90234H67.6074C67.8092 2.90234 67.9997 2.94141 68.1787 3.01953C68.3577 3.0944 68.514 3.19857 68.6475 3.33203C68.7809 3.46549 68.8851 3.62174 68.96 3.80078C69.0381 3.97982 69.0771 4.17025 69.0771 4.37207V8H68.877ZM68.4766 5.57812H67.207C67.0866 5.57812 66.9727 5.60091 66.8652 5.64648C66.7611 5.69206 66.6699 5.75553 66.5918 5.83691C66.5137 5.91504 66.4518 6.00781 66.4062 6.11523C66.3607 6.2194 66.3379 6.33171 66.3379 6.45215V6.66211C66.3379 6.78255 66.3607 6.89648 66.4062 7.00391C66.4518 7.10807 66.5137 7.19922 66.5918 7.27734C66.6699 7.35547 66.7611 7.41732 66.8652 7.46289C66.9727 7.50846 67.0866 7.53125 67.207 7.53125H67.6074C67.7279 7.53125 67.8402 7.50846 67.9443 7.46289C68.0518 7.41732 68.1445 7.35547 68.2227 7.27734C68.3008 7.19922 68.3626 7.10807 68.4082 7.00391C68.4538 6.89648 68.4766 6.78255 68.4766 6.66211V5.57812ZM73.418 8L73.0859 7.49219C72.9492 7.67773 72.7783 7.82585 72.5732 7.93652C72.3682 8.04395 72.1436 8.09766 71.8994 8.09766H71.748C71.5462 8.09766 71.3558 8.06022 71.1768 7.98535C70.9977 7.90723 70.8415 7.80143 70.708 7.66797C70.5745 7.53451 70.4688 7.37826 70.3906 7.19922C70.3158 7.02018 70.2783 6.82975 70.2783 6.62793V3H70.8789V6.66211C70.8789 6.78255 70.9017 6.89648 70.9473 7.00391C70.9928 7.10807 71.0547 7.19922 71.1328 7.27734C71.2109 7.35547 71.3021 7.41732 71.4062 7.46289C71.5137 7.50846 71.6276 7.53125 71.748 7.53125H72.1484C72.2689 7.53125 72.3812 7.50846 72.4854 7.46289C72.5928 7.41732 72.6855 7.35547 72.7637 7.27734C72.8418 7.19922 72.9036 7.10807 72.9492 7.00391C72.9948 6.89648 73.0176 6.78255 73.0176 6.66211V3H73.6182V8H73.418ZM76.2891 3.57129C76.1686 3.57129 76.0547 3.59408 75.9473 3.63965C75.8431 3.68522 75.752 3.74707 75.6738 3.8252C75.5957 3.90332 75.5339 3.99609 75.4883 4.10352C75.4427 4.20768 75.4199 4.31999 75.4199 4.44043V8H74.8193V3H75.0195L75.3467 3.50781C75.4834 3.32227 75.6543 3.17578 75.8594 3.06836C76.0677 2.95768 76.2939 2.90234 76.5381 2.90234H76.8896V3.57129H76.2891ZM80.8301 8L80.498 7.50195C80.3613 7.68099 80.1904 7.82585 79.9854 7.93652C79.7803 8.04395 79.5557 8.09766 79.3115 8.09766H79.1602C78.9583 8.09766 78.7679 8.06022 78.5889 7.98535C78.4098 7.90723 78.2536 7.80143 78.1201 7.66797C77.9867 7.53451 77.8809 7.37826 77.8027 7.19922C77.7279 7.02018 77.6904 6.82975 77.6904 6.62793V6.5791C77.6904 6.37728 77.7279 6.18685 77.8027 6.00781C77.8809 5.82878 77.9867 5.67253 78.1201 5.53906C78.2536 5.4056 78.4098 5.30143 78.5889 5.22656C78.7679 5.14844 78.9583 5.10938 79.1602 5.10938H80.4297V4.33789C80.4297 4.21745 80.4069 4.10514 80.3613 4.00098C80.3158 3.89355 80.2539 3.80078 80.1758 3.72266C80.0977 3.64453 80.0049 3.58268 79.8975 3.53711C79.7933 3.49154 79.681 3.46875 79.5605 3.46875H79.209C79.0885 3.46875 78.9746 3.49154 78.8672 3.53711C78.763 3.58268 78.6719 3.64453 78.5938 3.72266C78.5156 3.80078 78.4538 3.89355 78.4082 4.00098C78.3626 4.10514 78.3398 4.21745 78.3398 4.33789V4.51855L77.7393 4.4209V4.37207C77.7393 4.17025 77.7767 3.97982 77.8516 3.80078C77.9297 3.62174 78.0355 3.46549 78.1689 3.33203C78.3024 3.19857 78.4587 3.0944 78.6377 3.01953C78.8167 2.94141 79.0072 2.90234 79.209 2.90234H79.5605C79.7624 2.90234 79.9528 2.94141 80.1318 3.01953C80.3109 3.0944 80.4671 3.19857 80.6006 3.33203C80.734 3.46549 80.8382 3.62174 80.9131 3.80078C80.9912 3.97982 81.0303 4.17025 81.0303 4.37207V8H80.8301ZM80.4297 5.57812H79.1602C79.0397 5.57812 78.9258 5.60091 78.8184 5.64648C78.7142 5.69206 78.623 5.75553 78.5449 5.83691C78.4668 5.91504 78.4049 6.00781 78.3594 6.11523C78.3138 6.2194 78.291 6.33171 78.291 6.45215V6.66211C78.291 6.78255 78.3138 6.89648 78.3594 7.00391C78.4049 7.10807 78.4668 7.19922 78.5449 7.27734C78.623 7.35547 78.7142 7.41732 78.8184 7.46289C78.9258 7.50846 79.0397 7.53125 79.1602 7.53125H79.5605C79.681 7.53125 79.7933 7.50846 79.8975 7.46289C80.0049 7.41732 80.0977 7.35547 80.1758 7.27734C80.2539 7.19922 80.3158 7.10807 80.3613 7.00391C80.4069 6.89648 80.4297 6.78255 80.4297 6.66211V5.57812ZM84.9707 8V4.33789C84.9707 4.21745 84.9479 4.10514 84.9023 4.00098C84.8568 3.89355 84.7949 3.80078 84.7168 3.72266C84.6387 3.64453 84.5459 3.58268 84.4385 3.53711C84.3343 3.49154 84.222 3.46875 84.1016 3.46875H83.7012C83.5807 3.46875 83.4668 3.49154 83.3594 3.53711C83.2552 3.58268 83.1641 3.64453 83.0859 3.72266C83.0078 3.80078 82.946 3.89355 82.9004 4.00098C82.8548 4.10514 82.832 4.21745 82.832 4.33789V8H82.2314V3H82.4316L82.7588 3.50781C82.8955 3.32227 83.0664 3.17578 83.2715 3.06836C83.4798 2.95768 83.7061 2.90234 83.9502 2.90234H84.1016C84.3034 2.90234 84.4938 2.94141 84.6729 3.01953C84.8519 3.0944 85.0081 3.19857 85.1416 3.33203C85.2751 3.46549 85.3792 3.62174 85.4541 3.80078C85.5322 3.97982 85.5713 4.17025 85.5713 4.37207V8H84.9707ZM88.5938 8C88.4115 8 88.2389 7.96582 88.0762 7.89746C87.9167 7.8291 87.7767 7.7347 87.6562 7.61426C87.5391 7.49382 87.4447 7.35384 87.373 7.19434C87.3047 7.03483 87.2705 6.86393 87.2705 6.68164V3.57129H86.3721V3H87.2705V1.79883L87.8711 1.70117V3H89.1406V3.57129H87.8711V6.71094C87.8711 6.81185 87.889 6.90625 87.9248 6.99414C87.9639 7.07878 88.016 7.15365 88.0811 7.21875C88.1462 7.28385 88.2227 7.33594 88.3105 7.375C88.3984 7.41081 88.4928 7.42871 88.5938 7.42871H89.1406V8H88.5938ZM92.7539 8V0.998047H93.3545V8H92.7539ZM94.9121 1.79883V0.998047H95.6104V1.79883H94.9121ZM94.9609 8V3H95.5615V8H94.9609ZM99.9268 8L97.8857 5.5L99.9268 3H100.708L98.6182 5.5L100.708 8H99.9268ZM97.168 8V0.998047H97.7686V8H97.168ZM104.849 6.62793C104.849 6.82975 104.81 7.02018 104.731 7.19922C104.657 7.37826 104.552 7.53451 104.419 7.66797C104.285 7.80143 104.129 7.90723 103.95 7.98535C103.771 8.06022 103.581 8.09766 103.379 8.09766H102.979C102.777 8.09766 102.586 8.06022 102.407 7.98535C102.228 7.90723 102.072 7.80143 101.938 7.66797C101.805 7.53451 101.699 7.37826 101.621 7.19922C101.546 7.02018 101.509 6.82975 101.509 6.62793V4.37207C101.509 4.17025 101.546 3.97982 101.621 3.80078C101.699 3.62174 101.805 3.46549 101.938 3.33203C102.072 3.19857 102.228 3.0944 102.407 3.01953C102.586 2.94141 102.777 2.90234 102.979 2.90234H103.379C103.581 2.90234 103.771 2.94141 103.95 3.01953C104.129 3.0944 104.285 3.19857 104.419 3.33203C104.552 3.46549 104.657 3.62174 104.731 3.80078C104.81 3.97982 104.849 4.17025 104.849 4.37207V5.54883H102.109V6.66211C102.109 6.78255 102.132 6.89648 102.178 7.00391C102.223 7.10807 102.285 7.19922 102.363 7.27734C102.441 7.35547 102.533 7.41732 102.637 7.46289C102.744 7.50846 102.858 7.53125 102.979 7.53125H103.379C103.499 7.53125 103.612 7.50846 103.716 7.46289C103.823 7.41732 103.916 7.35547 103.994 7.27734C104.072 7.19922 104.134 7.10807 104.18 7.00391C104.225 6.89648 104.248 6.78255 104.248 6.66211V6.33008L104.849 6.42773V6.62793ZM104.248 4.33789C104.248 4.21745 104.225 4.10514 104.18 4.00098C104.134 3.89355 104.072 3.80078 103.994 3.72266C103.916 3.64453 103.823 3.58268 103.716 3.53711C103.612 3.49154 103.499 3.46875 103.379 3.46875H102.979C102.858 3.46875 102.744 3.49154 102.637 3.53711C102.533 3.58268 102.441 3.64453 102.363 3.72266C102.285 3.80078 102.223 3.89355 102.178 4.00098C102.132 4.10514 102.109 4.21745 102.109 4.33789V5.08008H104.248V4.33789ZM111.094 8V4.33789C111.094 4.21745 111.071 4.10514 111.025 4.00098C110.98 3.89355 110.918 3.80078 110.84 3.72266C110.762 3.64453 110.669 3.58268 110.562 3.53711C110.457 3.49154 110.345 3.46875 110.225 3.46875H109.824C109.704 3.46875 109.59 3.49154 109.482 3.53711C109.378 3.58268 109.287 3.64453 109.209 3.72266C109.131 3.80078 109.069 3.89355 109.023 4.00098C108.978 4.10514 108.955 4.21745 108.955 4.33789V8H108.354V3H108.555L108.882 3.50781C109.019 3.32227 109.189 3.17578 109.395 3.06836C109.603 2.95768 109.829 2.90234 110.073 2.90234H110.225C110.426 2.90234 110.617 2.94141 110.796 3.01953C110.975 3.0944 111.131 3.19857 111.265 3.33203C111.398 3.46549 111.502 3.62174 111.577 3.80078C111.655 3.97982 111.694 4.17025 111.694 4.37207V8H111.094ZM116.235 6.62793C116.235 6.82975 116.196 7.02018 116.118 7.19922C116.043 7.37826 115.939 7.53451 115.806 7.66797C115.672 7.80143 115.516 7.90723 115.337 7.98535C115.158 8.06022 114.967 8.09766 114.766 8.09766H114.365C114.163 8.09766 113.973 8.06022 113.794 7.98535C113.615 7.90723 113.459 7.80143 113.325 7.66797C113.192 7.53451 113.086 7.37826 113.008 7.19922C112.933 7.02018 112.896 6.82975 112.896 6.62793V4.37207C112.896 4.17025 112.933 3.97982 113.008 3.80078C113.086 3.62174 113.192 3.46549 113.325 3.33203C113.459 3.19857 113.615 3.0944 113.794 3.01953C113.973 2.94141 114.163 2.90234 114.365 2.90234H114.766C114.967 2.90234 115.158 2.94141 115.337 3.01953C115.516 3.0944 115.672 3.19857 115.806 3.33203C115.939 3.46549 116.043 3.62174 116.118 3.80078C116.196 3.97982 116.235 4.17025 116.235 4.37207V5.54883H113.496V6.66211C113.496 6.78255 113.519 6.89648 113.564 7.00391C113.61 7.10807 113.672 7.19922 113.75 7.27734C113.828 7.35547 113.919 7.41732 114.023 7.46289C114.131 7.50846 114.245 7.53125 114.365 7.53125H114.766C114.886 7.53125 114.998 7.50846 115.103 7.46289C115.21 7.41732 115.303 7.35547 115.381 7.27734C115.459 7.19922 115.521 7.10807 115.566 7.00391C115.612 6.89648 115.635 6.78255 115.635 6.66211V6.33008L116.235 6.42773V6.62793ZM115.635 4.33789C115.635 4.21745 115.612 4.10514 115.566 4.00098C115.521 3.89355 115.459 3.80078 115.381 3.72266C115.303 3.64453 115.21 3.58268 115.103 3.53711C114.998 3.49154 114.886 3.46875 114.766 3.46875H114.365C114.245 3.46875 114.131 3.49154 114.023 3.53711C113.919 3.58268 113.828 3.64453 113.75 3.72266C113.672 3.80078 113.61 3.89355 113.564 4.00098C113.519 4.10514 113.496 4.21745 113.496 4.33789V5.08008H115.635V4.33789ZM119.004 8H118.706L116.934 3H117.534L118.838 6.78906L118.857 7.04785L118.877 6.78906L120.176 3H120.776L119.004 8ZM124.819 6.62793C124.819 6.82975 124.78 7.02018 124.702 7.19922C124.627 7.37826 124.523 7.53451 124.39 7.66797C124.256 7.80143 124.1 7.90723 123.921 7.98535C123.742 8.06022 123.551 8.09766 123.35 8.09766H122.949C122.747 8.09766 122.557 8.06022 122.378 7.98535C122.199 7.90723 122.043 7.80143 121.909 7.66797C121.776 7.53451 121.67 7.37826 121.592 7.19922C121.517 7.02018 121.479 6.82975 121.479 6.62793V4.37207C121.479 4.17025 121.517 3.97982 121.592 3.80078C121.67 3.62174 121.776 3.46549 121.909 3.33203C122.043 3.19857 122.199 3.0944 122.378 3.01953C122.557 2.94141 122.747 2.90234 122.949 2.90234H123.35C123.551 2.90234 123.742 2.94141 123.921 3.01953C124.1 3.0944 124.256 3.19857 124.39 3.33203C124.523 3.46549 124.627 3.62174 124.702 3.80078C124.78 3.97982 124.819 4.17025 124.819 4.37207V5.54883H122.08V6.66211C122.08 6.78255 122.103 6.89648 122.148 7.00391C122.194 7.10807 122.256 7.19922 122.334 7.27734C122.412 7.35547 122.503 7.41732 122.607 7.46289C122.715 7.50846 122.829 7.53125 122.949 7.53125H123.35C123.47 7.53125 123.582 7.50846 123.687 7.46289C123.794 7.41732 123.887 7.35547 123.965 7.27734C124.043 7.19922 124.105 7.10807 124.15 7.00391C124.196 6.89648 124.219 6.78255 124.219 6.66211V6.33008L124.819 6.42773V6.62793ZM124.219 4.33789C124.219 4.21745 124.196 4.10514 124.15 4.00098C124.105 3.89355 124.043 3.80078 123.965 3.72266C123.887 3.64453 123.794 3.58268 123.687 3.53711C123.582 3.49154 123.47 3.46875 123.35 3.46875H122.949C122.829 3.46875 122.715 3.49154 122.607 3.53711C122.503 3.58268 122.412 3.64453 122.334 3.72266C122.256 3.80078 122.194 3.89355 122.148 4.00098C122.103 4.10514 122.08 4.21745 122.08 4.33789V5.08008H124.219V4.33789ZM127.49 3.57129C127.37 3.57129 127.256 3.59408 127.148 3.63965C127.044 3.68522 126.953 3.74707 126.875 3.8252C126.797 3.90332 126.735 3.99609 126.689 4.10352C126.644 4.20768 126.621 4.31999 126.621 4.44043V8H126.021V3H126.221L126.548 3.50781C126.685 3.32227 126.855 3.17578 127.061 3.06836C127.269 2.95768 127.495 2.90234 127.739 2.90234H128.091V3.57129H127.49ZM134.536 6.62793C134.536 6.82975 134.497 7.02018 134.419 7.19922C134.344 7.37826 134.24 7.53451 134.106 7.66797C133.973 7.80143 133.817 7.90723 133.638 7.98535C133.459 8.06022 133.268 8.09766 133.066 8.09766H132.666C132.464 8.09766 132.274 8.06022 132.095 7.98535C131.916 7.90723 131.759 7.80143 131.626 7.66797C131.493 7.53451 131.387 7.37826 131.309 7.19922C131.234 7.02018 131.196 6.82975 131.196 6.62793V0.998047H131.797V3.41992C131.934 3.25716 132.098 3.13021 132.29 3.03906C132.482 2.94792 132.69 2.90234 132.915 2.90234H133.066C133.268 2.90234 133.459 2.94141 133.638 3.01953C133.817 3.0944 133.973 3.19857 134.106 3.33203C134.24 3.46549 134.344 3.62174 134.419 3.80078C134.497 3.97982 134.536 4.17025 134.536 4.37207V6.62793ZM133.936 4.33789C133.936 4.21745 133.913 4.10514 133.867 4.00098C133.822 3.89355 133.76 3.80078 133.682 3.72266C133.604 3.64453 133.511 3.58268 133.403 3.53711C133.299 3.49154 133.187 3.46875 133.066 3.46875H132.666C132.546 3.46875 132.432 3.49154 132.324 3.53711C132.22 3.58268 132.129 3.64453 132.051 3.72266C131.973 3.80078 131.911 3.89355 131.865 4.00098C131.82 4.10514 131.797 4.21745 131.797 4.33789V6.66211C131.797 6.78255 131.82 6.89648 131.865 7.00391C131.911 7.10807 131.973 7.19922 132.051 7.27734C132.129 7.35547 132.22 7.41732 132.324 7.46289C132.432 7.50846 132.546 7.53125 132.666 7.53125H133.066C133.187 7.53125 133.299 7.50846 133.403 7.46289C133.511 7.41732 133.604 7.35547 133.682 7.27734C133.76 7.19922 133.822 7.10807 133.867 7.00391C133.913 6.89648 133.936 6.78255 133.936 6.66211V4.33789ZM139.077 6.62793C139.077 6.82975 139.038 7.02018 138.96 7.19922C138.885 7.37826 138.781 7.53451 138.647 7.66797C138.514 7.80143 138.358 7.90723 138.179 7.98535C138 8.06022 137.809 8.09766 137.607 8.09766H137.207C137.005 8.09766 136.815 8.06022 136.636 7.98535C136.457 7.90723 136.3 7.80143 136.167 7.66797C136.034 7.53451 135.928 7.37826 135.85 7.19922C135.775 7.02018 135.737 6.82975 135.737 6.62793V4.37207C135.737 4.17025 135.775 3.97982 135.85 3.80078C135.928 3.62174 136.034 3.46549 136.167 3.33203C136.3 3.19857 136.457 3.0944 136.636 3.01953C136.815 2.94141 137.005 2.90234 137.207 2.90234H137.607C137.809 2.90234 138 2.94141 138.179 3.01953C138.358 3.0944 138.514 3.19857 138.647 3.33203C138.781 3.46549 138.885 3.62174 138.96 3.80078C139.038 3.97982 139.077 4.17025 139.077 4.37207V5.54883H136.338V6.66211C136.338 6.78255 136.361 6.89648 136.406 7.00391C136.452 7.10807 136.514 7.19922 136.592 7.27734C136.67 7.35547 136.761 7.41732 136.865 7.46289C136.973 7.50846 137.087 7.53125 137.207 7.53125H137.607C137.728 7.53125 137.84 7.50846 137.944 7.46289C138.052 7.41732 138.145 7.35547 138.223 7.27734C138.301 7.19922 138.363 7.10807 138.408 7.00391C138.454 6.89648 138.477 6.78255 138.477 6.66211V6.33008L139.077 6.42773V6.62793ZM138.477 4.33789C138.477 4.21745 138.454 4.10514 138.408 4.00098C138.363 3.89355 138.301 3.80078 138.223 3.72266C138.145 3.64453 138.052 3.58268 137.944 3.53711C137.84 3.49154 137.728 3.46875 137.607 3.46875H137.207C137.087 3.46875 136.973 3.49154 136.865 3.53711C136.761 3.58268 136.67 3.64453 136.592 3.72266C136.514 3.80078 136.452 3.89355 136.406 4.00098C136.361 4.10514 136.338 4.21745 136.338 4.33789V5.08008H138.477V4.33789ZM141.997 1.56934C141.896 1.56934 141.802 1.58887 141.714 1.62793C141.629 1.66374 141.554 1.71419 141.489 1.7793C141.424 1.8444 141.372 1.9209 141.333 2.00879C141.297 2.09668 141.279 2.19108 141.279 2.29199V3H142.446V3.57129H141.279V8H140.679V3.57129H139.775V3H140.679V2.32129C140.679 2.139 140.713 1.9681 140.781 1.80859C140.85 1.64583 140.944 1.50423 141.064 1.38379C141.185 1.26335 141.325 1.16895 141.484 1.10059C141.644 1.03223 141.815 0.998047 141.997 0.998047H142.549V1.56934H141.997ZM146.489 6.62793C146.489 6.82975 146.45 7.02018 146.372 7.19922C146.297 7.37826 146.193 7.53451 146.06 7.66797C145.926 7.80143 145.77 7.90723 145.591 7.98535C145.412 8.06022 145.221 8.09766 145.02 8.09766H144.619C144.417 8.09766 144.227 8.06022 144.048 7.98535C143.869 7.90723 143.713 7.80143 143.579 7.66797C143.446 7.53451 143.34 7.37826 143.262 7.19922C143.187 7.02018 143.149 6.82975 143.149 6.62793V4.37207C143.149 4.17025 143.187 3.97982 143.262 3.80078C143.34 3.62174 143.446 3.46549 143.579 3.33203C143.713 3.19857 143.869 3.0944 144.048 3.01953C144.227 2.94141 144.417 2.90234 144.619 2.90234H145.02C145.221 2.90234 145.412 2.94141 145.591 3.01953C145.77 3.0944 145.926 3.19857 146.06 3.33203C146.193 3.46549 146.297 3.62174 146.372 3.80078C146.45 3.97982 146.489 4.17025 146.489 4.37207V6.62793ZM145.889 4.33789C145.889 4.21745 145.866 4.10514 145.82 4.00098C145.775 3.89355 145.713 3.80078 145.635 3.72266C145.557 3.64453 145.464 3.58268 145.356 3.53711C145.252 3.49154 145.14 3.46875 145.02 3.46875H144.619C144.499 3.46875 144.385 3.49154 144.277 3.53711C144.173 3.58268 144.082 3.64453 144.004 3.72266C143.926 3.80078 143.864 3.89355 143.818 4.00098C143.773 4.10514 143.75 4.21745 143.75 4.33789V6.66211C143.75 6.78255 143.773 6.89648 143.818 7.00391C143.864 7.10807 143.926 7.19922 144.004 7.27734C144.082 7.35547 144.173 7.41732 144.277 7.46289C144.385 7.50846 144.499 7.53125 144.619 7.53125H145.02C145.14 7.53125 145.252 7.50846 145.356 7.46289C145.464 7.41732 145.557 7.35547 145.635 7.27734C145.713 7.19922 145.775 7.10807 145.82 7.00391C145.866 6.89648 145.889 6.78255 145.889 6.66211V4.33789ZM149.16 3.57129C149.04 3.57129 148.926 3.59408 148.818 3.63965C148.714 3.68522 148.623 3.74707 148.545 3.8252C148.467 3.90332 148.405 3.99609 148.359 4.10352C148.314 4.20768 148.291 4.31999 148.291 4.44043V8H147.69V3H147.891L148.218 3.50781C148.354 3.32227 148.525 3.17578 148.73 3.06836C148.939 2.95768 149.165 2.90234 149.409 2.90234H149.761V3.57129H149.16ZM153.901 6.62793C153.901 6.82975 153.862 7.02018 153.784 7.19922C153.709 7.37826 153.605 7.53451 153.472 7.66797C153.338 7.80143 153.182 7.90723 153.003 7.98535C152.824 8.06022 152.633 8.09766 152.432 8.09766H152.031C151.829 8.09766 151.639 8.06022 151.46 7.98535C151.281 7.90723 151.125 7.80143 150.991 7.66797C150.858 7.53451 150.752 7.37826 150.674 7.19922C150.599 7.02018 150.562 6.82975 150.562 6.62793V4.37207C150.562 4.17025 150.599 3.97982 150.674 3.80078C150.752 3.62174 150.858 3.46549 150.991 3.33203C151.125 3.19857 151.281 3.0944 151.46 3.01953C151.639 2.94141 151.829 2.90234 152.031 2.90234H152.432C152.633 2.90234 152.824 2.94141 153.003 3.01953C153.182 3.0944 153.338 3.19857 153.472 3.33203C153.605 3.46549 153.709 3.62174 153.784 3.80078C153.862 3.97982 153.901 4.17025 153.901 4.37207V5.54883H151.162V6.66211C151.162 6.78255 151.185 6.89648 151.23 7.00391C151.276 7.10807 151.338 7.19922 151.416 7.27734C151.494 7.35547 151.585 7.41732 151.689 7.46289C151.797 7.50846 151.911 7.53125 152.031 7.53125H152.432C152.552 7.53125 152.664 7.50846 152.769 7.46289C152.876 7.41732 152.969 7.35547 153.047 7.27734C153.125 7.19922 153.187 7.10807 153.232 7.00391C153.278 6.89648 153.301 6.78255 153.301 6.66211V6.33008L153.901 6.42773V6.62793ZM153.301 4.33789C153.301 4.21745 153.278 4.10514 153.232 4.00098C153.187 3.89355 153.125 3.80078 153.047 3.72266C152.969 3.64453 152.876 3.58268 152.769 3.53711C152.664 3.49154 152.552 3.46875 152.432 3.46875H152.031C151.911 3.46875 151.797 3.49154 151.689 3.53711C151.585 3.58268 151.494 3.64453 151.416 3.72266C151.338 3.80078 151.276 3.89355 151.23 4.00098C151.185 4.10514 151.162 4.21745 151.162 4.33789V5.08008H153.301V4.33789Z" fill="#8D99AE"/>
</svg>
