<svg width="210" height="45" viewBox="0 0 210 45" fill="none" xmlns="http://www.w3.org/2000/svg">
<path d="M25.25 17.15H24.25C24.25 14.4833 23.4 12.0167 21.7 9.75C20 7.48333 17.5667 6.35 14.4 6.35C12.6333 6.35 11.1667 7.38333 10 9.45C8.86667 11.5167 8.3 15.05 8.3 20.05C8.3 25.05 8.86667 28.5833 10 30.65C11.1667 32.7167 12.9667 33.75 15.4 33.75C17.8667 33.75 19.9333 32.9833 21.6 31.45C23.3 29.9167 24.35 27.75 24.75 24.95H25.75C25.2833 28.25 24.1167 30.7167 22.25 32.35C20.4167 33.95 18.2167 34.75 15.65 34.75C10.6833 34.75 6.86667 33.5667 4.2 31.2C1.56667 28.8 0.25 25.0667 0.25 20C0.25 14.9 1.53333 11.1833 4.1 8.85C6.7 6.51667 10.1333 5.35 14.4 5.35C16.7 5.35 18.9333 5.96667 21.1 7.2C21.8 7.63333 22.3667 7.85 22.8 7.85C23.2667 7.85 23.6333 7.65 23.9 7.25C24.1667 6.81666 24.3 6.4 24.3 6H25.25V17.15ZM55.2285 33H57.7285V34H45.2285V33H47.7285V19C47.7285 16.6333 47.3785 14.95 46.6785 13.95C45.9785 12.95 44.9285 12.45 43.5285 12.45C41.6285 12.45 40.1118 13.45 38.9785 15.45V33H41.4785V34H28.9785V33H31.4785V1.5H28.9785V0.499999H38.9785V13.6C39.6118 12.7 40.5952 11.95 41.9285 11.35C43.2618 10.75 44.7285 10.45 46.3285 10.45C52.2618 10.45 55.2285 13.6667 55.2285 20.1V33ZM83.3051 24H68.2051C68.5384 29.8667 70.8217 32.8 75.0551 32.8C76.1884 32.8 77.4717 32.5333 78.9051 32C80.3717 31.4667 81.4384 30.7167 82.1051 29.75L82.8051 30.25C82.0717 31.4833 80.8217 32.5 79.0551 33.3C77.2884 34.1 75.5217 34.5 73.7551 34.5C72.0217 34.5 70.4551 34.3333 69.0551 34C67.6551 33.6333 66.2884 33.0333 64.9551 32.2C63.6217 31.3667 62.5717 30.1167 61.8051 28.45C61.0717 26.7833 60.7051 24.7667 60.7051 22.4C60.7051 18.3667 61.8217 15.3833 64.0551 13.45C66.2884 11.4833 68.9884 10.5 72.1551 10.5C75.3551 10.5 78.0051 11.5667 80.1051 13.7C82.2384 15.8333 83.3051 19.2667 83.3051 24ZM68.1551 23H76.3051C76.3051 19.9333 75.9717 17.25 75.3051 14.95C74.6717 12.65 73.6384 11.5 72.2051 11.5C70.7717 11.5 69.7384 12.6167 69.1051 14.85C68.4717 17.05 68.1551 19.5833 68.1551 22.45V23ZM99.4375 34H86.9375V33H89.4375V12H86.4375V11H89.4375C89.4375 3.66667 92.7375 -3.57628e-07 99.3375 -3.57628e-07C101.671 -3.57628e-07 103.454 0.499999 104.688 1.5C105.921 2.46666 106.538 3.6 106.538 4.9C106.538 5.7 106.271 6.33333 105.738 6.8C105.238 7.23333 104.638 7.45 103.938 7.45C102.138 7.45 101.238 6.38333 101.238 4.25C101.238 2.08333 100.604 0.999999 99.3375 0.999999C98.4042 0.999999 97.7708 1.81667 97.4375 3.45C97.1042 5.05 96.9375 7.56667 96.9375 11H103.438V12H96.9375V33H99.4375V34ZM119.77 33.6C123.236 33.6 124.97 32.65 124.97 30.75C124.97 29.6833 124.37 28.8167 123.17 28.15C121.97 27.45 120.52 26.8833 118.82 26.45C117.12 26.0167 115.436 25.5167 113.77 24.95C112.136 24.3833 110.77 23.4833 109.67 22.25C108.603 21.0167 108.17 19.4 108.37 17.4C108.57 15.4 109.586 13.75 111.42 12.45C113.286 11.15 115.57 10.5 118.27 10.5C121.003 10.5 123.203 10.9333 124.87 11.8C126.536 12.6667 127.47 13.8333 127.67 15.3C127.803 16.2 127.653 17.0333 127.22 17.8C126.82 18.5667 126.136 18.9667 125.17 19C124.236 19.0333 123.453 18.7833 122.82 18.25C122.22 17.7167 121.936 17.1 121.97 16.4C122.003 15.7 122.27 15.0833 122.77 14.55C123.27 13.9833 123.52 13.5333 123.52 13.2C123.52 12.6333 122.97 12.2167 121.87 11.95C120.803 11.65 119.553 11.5 118.12 11.5C116.72 11.5 115.57 11.8167 114.67 12.45C113.77 13.0833 113.32 13.8667 113.32 14.8C113.32 15.7333 113.87 16.5333 114.97 17.2C116.103 17.8667 117.47 18.4167 119.07 18.85C120.67 19.25 122.253 19.7167 123.82 20.25C125.42 20.75 126.77 21.5667 127.87 22.7C129.003 23.8333 129.57 25.2667 129.57 27C129.57 29.3 128.753 31.15 127.12 32.55C125.486 33.9167 123.02 34.6 119.72 34.6C116.42 34.6 113.736 34.1 111.67 33.1C109.636 32.1 108.52 30.8167 108.32 29.25C108.186 28.35 108.336 27.5167 108.77 26.75C109.203 25.9833 109.886 25.5833 110.82 25.55C111.753 25.5167 112.52 25.7667 113.12 26.3C113.753 26.8333 114.053 27.45 114.02 28.15C113.986 28.85 113.72 29.4833 113.22 30.05C112.72 30.5833 112.47 31.0167 112.47 31.35C112.47 32.0167 113.236 32.5667 114.77 33C116.336 33.4 118.003 33.6 119.77 33.6Z" fill="#D90429"/>
<path d="M147.25 33C152.25 33 154.75 30.1667 154.75 24.5H155.75V34H132.25V33H134.75V7H132.25V6H155.25V14.5H154.25C154.25 11.5333 153.65 9.55 152.45 8.55C151.283 7.51667 149.383 7 146.75 7H142.25V19H144.25C146.65 19 148.167 18.7 148.8 18.1C149.433 17.5 149.75 16.3 149.75 14.5H150.75V24.5H149.75C149.75 22.6333 149.433 21.4167 148.8 20.85C148.167 20.2833 146.65 20 144.25 20H142.25V33H147.25ZM170.096 39.55C169.196 41.4833 168.246 42.8667 167.246 43.7C166.246 44.5667 164.913 45 163.246 45C161.579 45 160.279 44.6333 159.346 43.9C158.413 43.2 157.946 42.25 157.946 41.05C157.946 39.8833 158.279 38.95 158.946 38.25C159.646 37.55 160.479 37.2 161.446 37.2C162.413 37.2 163.229 37.3833 163.896 37.75C164.563 38.1167 165.029 38.5167 165.296 38.95C166.029 40.1167 166.713 40.7 167.346 40.7C168.013 40.7 168.596 40.1333 169.096 39L171.196 34.05L159.496 12H157.496V11H170.946V12H168.446L175.146 25.2L180.896 12H176.896V11H185.096V12H182.096L170.096 39.55ZM209.672 24H194.572C194.906 29.8667 197.189 32.8 201.422 32.8C202.556 32.8 203.839 32.5333 205.272 32C206.739 31.4667 207.806 30.7167 208.472 29.75L209.172 30.25C208.439 31.4833 207.189 32.5 205.422 33.3C203.656 34.1 201.889 34.5 200.122 34.5C198.389 34.5 196.822 34.3333 195.422 34C194.022 33.6333 192.656 33.0333 191.322 32.2C189.989 31.3667 188.939 30.1167 188.172 28.45C187.439 26.7833 187.072 24.7667 187.072 22.4C187.072 18.3667 188.189 15.3833 190.422 13.45C192.656 11.4833 195.356 10.5 198.522 10.5C201.722 10.5 204.372 11.5667 206.472 13.7C208.606 15.8333 209.672 19.2667 209.672 24ZM194.522 23H202.672C202.672 19.9333 202.339 17.25 201.672 14.95C201.039 12.65 200.006 11.5 198.572 11.5C197.139 11.5 196.106 12.6167 195.472 14.85C194.839 17.05 194.522 19.5833 194.522 22.45V23Z" fill="#2B2D42"/>
</svg>
