<svg width="94" height="94" viewBox="0 0 94 94" fill="none" xmlns="http://www.w3.org/2000/svg">
<path d="M46.2168 42.6917C37.3259 40.3808 34.4668 37.9917 34.4668 34.2708C34.4668 30.0017 38.4226 27.025 45.0417 27.025C52.0134 27.025 54.5984 30.3542 54.8334 35.25H63.4893C63.2151 28.5133 59.1026 22.325 50.9167 20.3275V11.75H39.1668V20.21C31.5684 21.855 25.4584 26.79 25.4584 34.3492C25.4584 43.3967 32.9393 47.9008 43.8668 50.525C53.6584 52.875 55.6168 56.3217 55.6168 59.9642C55.6168 62.6667 53.6976 66.975 45.0417 66.975C36.9734 66.975 33.8009 63.3717 33.3701 58.75H24.7534C25.2234 67.3275 31.6468 72.145 39.1668 73.7508V82.25H50.9167V73.8292C58.5542 72.38 64.6251 67.9542 64.6251 59.925C64.6251 48.8017 55.1076 45.0025 46.2168 42.6917Z" fill="#EDF2F4"/>
</svg>
