<svg width="67" height="80" viewBox="0 0 67 80" fill="none" xmlns="http://www.w3.org/2000/svg">
<path d="M13.3333 60C13.3333 61.8333 14.8333 63.3333 16.6667 63.3333H20V75C20 77.7667 22.2333 80 25 80C27.7667 80 30 77.7667 30 75V63.3333H36.6667V75C36.6667 77.7667 38.9 80 41.6667 80C44.4333 80 46.6667 77.7667 46.6667 75V63.3333H50C51.8333 63.3333 53.3333 61.8333 53.3333 60V26.6667H13.3333V60ZM5 26.6667C2.23333 26.6667 0 28.9 0 31.6667V55C0 57.7667 2.23333 60 5 60C7.76667 60 10 57.7667 10 55V31.6667C10 28.9 7.76667 26.6667 5 26.6667ZM61.6667 26.6667C58.9 26.6667 56.6667 28.9 56.6667 31.6667V55C56.6667 57.7667 58.9 60 61.6667 60C64.4333 60 66.6667 57.7667 66.6667 55V31.6667C66.6667 28.9 64.4333 26.6667 61.6667 26.6667ZM45.1 7.2L49.4333 2.86667C50.1 2.2 50.1 1.16667 49.4333 0.5C48.7667 -0.166667 47.7333 -0.166667 47.0667 0.5L42.1333 5.43333C39.5 4.1 36.5 3.33333 33.3333 3.33333C30.1333 3.33333 27.1333 4.1 24.4667 5.43333L19.5 0.5C18.8333 -0.166667 17.8 -0.166667 17.1333 0.5C16.4667 1.16667 16.4667 2.2 17.1333 2.86667L21.5 7.23333C16.5667 10.8667 13.3333 16.7 13.3333 23.3333H53.3333C53.3333 16.7 50.1 10.8333 45.1 7.2ZM26.6667 16.6667H23.3333V13.3333H26.6667V16.6667ZM43.3333 16.6667H40V13.3333H43.3333V16.6667Z" fill="#EDF2F4"/>
</svg>
